<svg width="94" height="89" viewBox="0 0 94 89" fill="none" xmlns="http://www.w3.org/2000/svg">
<g filter="url(#filter0_i_2008_1557)">
<path d="M93.0351 44.4339C93.0351 49.1256 87.2006 52.84 85.8239 57.0738C84.3985 61.4636 86.8889 67.8858 84.2297 71.5417C81.5446 75.2301 74.6483 74.8372 70.9567 77.5224C67.265 80.2075 65.5637 86.8765 61.174 88.3018C56.9401 89.6753 51.6153 85.3278 46.9204 85.3278C42.2255 85.3278 36.9007 89.6785 32.6668 88.3018C28.2771 86.8765 26.5368 80.1815 22.8841 77.5224C19.1957 74.8372 12.2962 75.2334 9.61107 71.5417C6.95191 67.889 9.44223 61.4636 8.01687 57.0738C6.64347 52.84 0.805664 49.1256 0.805664 44.4339C0.805664 39.7423 6.64022 36.0279 8.01687 31.794C9.44223 27.4043 6.95191 20.9821 9.61107 17.3261C12.2702 13.6702 19.1925 14.0306 22.8841 11.3455C26.5368 8.68633 28.2771 1.99137 32.6668 0.566011C37.0565 -0.859347 42.2255 3.54011 46.9204 3.54011C51.6153 3.54011 56.9434 -0.807398 61.1772 0.569258C65.4111 1.94591 67.3072 8.68958 70.9599 11.3487C74.6483 14.0339 81.5478 13.6377 84.233 17.3294C86.8921 20.9821 84.4018 27.4076 85.8272 31.7973C87.2006 36.0311 93.0384 39.7455 93.0384 44.4372L93.0351 44.4339Z" fill="url(#paint0_radial_2008_1557)"/>
</g>
<defs>
<filter id="filter0_i_2008_1557" x="0.805664" y="0.281799" width="94.2324" height="89.2893" filterUnits="userSpaceOnUse" color-interpolation-filters="sRGB">
<feFlood flood-opacity="0" result="BackgroundImageFix"/>
<feBlend mode="normal" in="SourceGraphic" in2="BackgroundImageFix" result="shape"/>
<feColorMatrix in="SourceAlpha" type="matrix" values="0 0 0 0 0 0 0 0 0 0 0 0 0 0 0 0 0 0 127 0" result="hardAlpha"/>
<feOffset dx="2" dy="1"/>
<feGaussianBlur stdDeviation="3.9"/>
<feComposite in2="hardAlpha" operator="arithmetic" k2="-1" k3="1"/>
<feColorMatrix type="matrix" values="0 0 0 0 0 0 0 0 0 0 0 0 0 0 0 0 0 0 0.25 0"/>
<feBlend mode="normal" in2="shape" result="effect1_innerShadow_2008_1557"/>
</filter>
<radialGradient id="paint0_radial_2008_1557" cx="0" cy="0" r="1" gradientUnits="userSpaceOnUse" gradientTransform="translate(46.922 44.4264) rotate(86.8077) scale(60.6988 63.4099)">
<stop stop-color="#FDAC1F"/>
<stop offset="1" stop-color="#FF7E21"/>
</radialGradient>
</defs>
</svg>
