<svg width="33" height="33" viewBox="0 0 33 33" fill="none" xmlns="http://www.w3.org/2000/svg">
<rect width="32.3609" height="32.3609" rx="9.95719" fill="#FB6C00"/>
<path d="M25.3905 10.9175C25.3905 10.2196 25.1133 9.55021 24.6198 9.05669C24.1263 8.56318 23.4569 8.28593 22.759 8.28593H22.1011V7.64655C22.1011 7.29252 21.8289 6.98866 21.4749 6.97098C21.3859 6.96669 21.297 6.98051 21.2136 7.0116C21.1301 7.04268 21.0538 7.09039 20.9894 7.15182C20.9249 7.21326 20.8736 7.28714 20.8385 7.369C20.8034 7.45086 20.7853 7.53899 20.7853 7.62804V8.28593H11.5749V7.64655C11.5749 7.29252 11.3027 6.98866 10.9487 6.97098C10.8598 6.96669 10.7709 6.98051 10.6874 7.0116C10.6039 7.04268 10.5277 7.09039 10.4632 7.15182C10.3987 7.21326 10.3474 7.28714 10.3123 7.369C10.2773 7.45086 10.2592 7.53899 10.2592 7.62804V8.28593H9.60127C8.90334 8.28593 8.234 8.56318 7.74049 9.05669C7.24698 9.55021 6.96973 10.2196 6.96973 10.9175V11.4109C6.96973 11.4545 6.98705 11.4964 7.0179 11.5272C7.04874 11.558 7.09058 11.5754 7.1342 11.5754H25.2261C25.2697 11.5754 25.3115 11.558 25.3424 11.5272C25.3732 11.4964 25.3905 11.4545 25.3905 11.4109V10.9175ZM6.96973 22.7595C6.96973 23.4574 7.24698 24.1267 7.74049 24.6203C8.234 25.1138 8.90334 25.391 9.60127 25.391H22.759C23.4569 25.391 24.1263 25.1138 24.6198 24.6203C25.1133 24.1267 25.3905 23.4574 25.3905 22.7595V13.0145C25.3905 12.9818 25.3775 12.9504 25.3544 12.9273C25.3313 12.9041 25.2999 12.8911 25.2672 12.8911H7.09308C7.06036 12.8911 7.02899 12.9041 7.00586 12.9273C6.98272 12.9504 6.96973 12.9818 6.96973 13.0145V22.7595ZM21.1143 14.2069C21.3095 14.2069 21.5002 14.2648 21.6625 14.3732C21.8248 14.4817 21.9513 14.6358 22.026 14.8161C22.1007 14.9964 22.1202 15.1948 22.0821 15.3863C22.0441 15.5777 21.9501 15.7535 21.8121 15.8916C21.6741 16.0296 21.4982 16.1235 21.3068 16.1616C21.1154 16.1997 20.917 16.1802 20.7366 16.1055C20.5563 16.0308 20.4022 15.9043 20.2938 15.742C20.1853 15.5797 20.1274 15.3889 20.1274 15.1938C20.1274 14.932 20.2314 14.681 20.4165 14.496C20.6015 14.3109 20.8526 14.2069 21.1143 14.2069ZM21.1143 17.4964C21.3095 17.4964 21.5002 17.5542 21.6625 17.6627C21.8248 17.7711 21.9513 17.9252 22.026 18.1056C22.1007 18.2859 22.1202 18.4843 22.0821 18.6757C22.0441 18.8671 21.9501 19.043 21.8121 19.181C21.6741 19.319 21.4982 19.413 21.3068 19.4511C21.1154 19.4891 20.917 19.4696 20.7366 19.3949C20.5563 19.3202 20.4022 19.1937 20.2938 19.0315C20.1853 18.8692 20.1274 18.6784 20.1274 18.4832C20.1274 18.2215 20.2314 17.9705 20.4165 17.7854C20.6015 17.6003 20.8526 17.4964 21.1143 17.4964ZM17.8248 14.2069C18.02 14.2069 18.2108 14.2648 18.3731 14.3732C18.5354 14.4817 18.6619 14.6358 18.7366 14.8161C18.8112 14.9964 18.8308 15.1948 18.7927 15.3863C18.7546 15.5777 18.6606 15.7535 18.5226 15.8916C18.3846 16.0296 18.2088 16.1235 18.0174 16.1616C17.8259 16.1997 17.6275 16.1802 17.4472 16.1055C17.2669 16.0308 17.1128 15.9043 17.0043 15.742C16.8959 15.5797 16.838 15.3889 16.838 15.1938C16.838 14.932 16.942 14.681 17.1271 14.496C17.3121 14.3109 17.5631 14.2069 17.8248 14.2069ZM17.8248 17.4964C18.02 17.4964 18.2108 17.5542 18.3731 17.6627C18.5354 17.7711 18.6619 17.9252 18.7366 18.1056C18.8112 18.2859 18.8308 18.4843 18.7927 18.6757C18.7546 18.8671 18.6606 19.043 18.5226 19.181C18.3846 19.319 18.2088 19.413 18.0174 19.4511C17.8259 19.4891 17.6275 19.4696 17.4472 19.3949C17.2669 19.3202 17.1128 19.1937 17.0043 19.0315C16.8959 18.8692 16.838 18.6784 16.838 18.4832C16.838 18.2215 16.942 17.9705 17.1271 17.7854C17.3121 17.6003 17.5631 17.4964 17.8248 17.4964ZM17.8248 20.7858C18.02 20.7858 18.2108 20.8437 18.3731 20.9521C18.5354 21.0605 18.6619 21.2147 18.7366 21.395C18.8112 21.5753 18.8308 21.7737 18.7927 21.9652C18.7546 22.1566 18.6606 22.3324 18.5226 22.4704C18.3846 22.6084 18.2088 22.7024 18.0174 22.7405C17.8259 22.7786 17.6275 22.759 17.4472 22.6843C17.2669 22.6097 17.1128 22.4832 17.0043 22.3209C16.8959 22.1586 16.838 21.9678 16.838 21.7726C16.838 21.5109 16.942 21.2599 17.1271 21.0748C17.3121 20.8898 17.5631 20.7858 17.8248 20.7858ZM14.5354 17.4964C14.7306 17.4964 14.9214 17.5542 15.0837 17.6627C15.2459 17.7711 15.3724 17.9252 15.4471 18.1056C15.5218 18.2859 15.5414 18.4843 15.5033 18.6757C15.4652 18.8671 15.3712 19.043 15.2332 19.181C15.0952 19.319 14.9194 19.413 14.7279 19.4511C14.5365 19.4891 14.3381 19.4696 14.1578 19.3949C13.9775 19.3202 13.8233 19.1937 13.7149 19.0315C13.6065 18.8692 13.5486 18.6784 13.5486 18.4832C13.5486 18.2215 13.6526 17.9705 13.8376 17.7854C14.0227 17.6003 14.2737 17.4964 14.5354 17.4964ZM14.5354 20.7858C14.7306 20.7858 14.9214 20.8437 15.0837 20.9521C15.2459 21.0605 15.3724 21.2147 15.4471 21.395C15.5218 21.5753 15.5414 21.7737 15.5033 21.9652C15.4652 22.1566 15.3712 22.3324 15.2332 22.4704C15.0952 22.6084 14.9194 22.7024 14.7279 22.7405C14.5365 22.7786 14.3381 22.759 14.1578 22.6843C13.9775 22.6097 13.8233 22.4832 13.7149 22.3209C13.6065 22.1586 13.5486 21.9678 13.5486 21.7726C13.5486 21.5109 13.6526 21.2599 13.8376 21.0748C14.0227 20.8898 14.2737 20.7858 14.5354 20.7858ZM11.246 17.4964C11.4412 17.4964 11.632 17.5542 11.7942 17.6627C11.9565 17.7711 12.083 17.9252 12.1577 18.1056C12.2324 18.2859 12.2519 18.4843 12.2139 18.6757C12.1758 18.8671 12.0818 19.043 11.9438 19.181C11.8058 19.319 11.6299 19.413 11.4385 19.4511C11.2471 19.4891 11.0487 19.4696 10.8683 19.3949C10.688 19.3202 10.5339 19.1937 10.4255 19.0315C10.317 18.8692 10.2592 18.6784 10.2592 18.4832C10.2592 18.2215 10.3631 17.9705 10.5482 17.7854C10.7333 17.6003 10.9843 17.4964 11.246 17.4964ZM11.246 20.7858C11.4412 20.7858 11.632 20.8437 11.7942 20.9521C11.9565 21.0605 12.083 21.2147 12.1577 21.395C12.2324 21.5753 12.2519 21.7737 12.2139 21.9652C12.1758 22.1566 12.0818 22.3324 11.9438 22.4704C11.8058 22.6084 11.6299 22.7024 11.4385 22.7405C11.2471 22.7786 11.0487 22.759 10.8683 22.6843C10.688 22.6097 10.5339 22.4832 10.4255 22.3209C10.317 22.1586 10.2592 21.9678 10.2592 21.7726C10.2592 21.5109 10.3631 21.2599 10.5482 21.0748C10.7333 20.8898 10.9843 20.7858 11.246 20.7858Z" fill="white"/>
</svg>
