<svg width="118" height="102" viewBox="0 0 118 102" fill="none" xmlns="http://www.w3.org/2000/svg">
<path fill-rule="evenodd" clip-rule="evenodd" d="M105.777 0.697813C107.228 0.079937 108.816 -0.133164 110.376 0.080687C111.936 0.294538 113.41 0.927527 114.646 1.91377C115.883 2.90001 116.835 4.20344 117.404 5.68841C117.973 7.17338 118.139 8.78559 117.883 10.3572L104.568 92.0821C103.276 99.9653 94.728 104.486 87.583 100.559C81.6063 97.2742 72.7293 92.2128 64.7448 86.9316C60.7525 84.288 48.5232 75.8227 50.0262 69.7989C51.3178 64.6484 71.8663 45.2939 83.6083 33.787C88.217 29.2662 86.1152 26.6582 80.6728 30.8167C67.1578 41.1414 45.4585 56.8425 38.2842 61.2623C31.9552 65.1593 28.6557 65.8246 24.7104 65.1593C17.5125 63.9474 10.8372 62.0702 5.38892 59.7831C-1.97331 56.6939 -1.61518 46.4523 5.38305 43.4702L105.777 0.697813Z" fill="#FFDFC8"/>
</svg>
