<svg width="94" height="99" viewBox="0 0 94 99" fill="none" xmlns="http://www.w3.org/2000/svg">
<path fill-rule="evenodd" clip-rule="evenodd" d="M0.989686 15.1716C2.23026 12.9848 4.99329 12.2444 7.16109 13.518L12.7121 16.7793C14.8799 18.0528 15.6315 20.8581 14.391 23.045C13.1504 25.2318 10.3874 25.9722 8.21957 24.6986L2.66858 21.4373C0.500778 20.1638 -0.250886 17.3585 0.989686 15.1716Z" fill="#FFDFC8"/>
<path fill-rule="evenodd" clip-rule="evenodd" d="M2.12292 41.9689C1.46728 39.5219 2.88953 37.0148 5.29961 36.369L9.66345 35.1998C12.0735 34.554 14.5588 36.0141 15.2144 38.461C15.8701 40.9079 14.4478 43.415 12.0378 44.0608L7.67392 45.2301C5.26383 45.8759 2.77857 44.4158 2.12292 41.9689Z" fill="#FFDFC8"/>
<path fill-rule="evenodd" clip-rule="evenodd" d="M55.1633 0.655871C57.3311 1.92946 58.0828 4.73471 56.8422 6.92157L53.6655 12.5214C52.4249 14.7082 49.6619 15.4486 47.4941 14.175C45.3263 12.9014 44.5746 10.0962 45.8152 7.9093L48.9919 2.30949C50.2325 0.122632 52.9955 -0.617719 55.1633 0.655871Z" fill="#FFDFC8"/>
<path fill-rule="evenodd" clip-rule="evenodd" d="M53.3018 23.5069C52.6462 21.06 54.0684 18.5529 56.4785 17.9071L60.8424 16.7378C63.2524 16.092 65.7377 17.5521 66.3933 19.999C67.049 22.4459 65.6267 24.9531 63.2167 25.5988L58.8528 26.7681C56.4427 27.4139 53.9575 25.9538 53.3018 23.5069Z" fill="#FFDFC8"/>
<path d="M29.7593 14.1941C27.6881 14.7491 25.9255 16.1167 24.8594 17.996C23.7933 19.8754 23.5109 22.1126 24.0743 24.2155L33.3352 58.7774L27.9185 55.5952C26.0309 54.4877 23.8369 54.0482 21.6851 54.3465C19.5333 54.6448 17.547 55.6639 16.0417 57.2418C14.582 58.7709 13.773 60.8213 13.7867 62.9568C13.8004 65.0924 14.6358 67.1447 16.1153 68.6772C28.2594 81.2567 35.3454 88.4781 37.3164 90.2727L38.5292 91.3739L38.5328 91.3772C42.0656 94.5615 46.3169 96.813 50.9051 97.9295C55.1042 98.9512 59.4651 98.993 63.6587 98.0586C63.7428 98.0532 63.8277 98.0395 63.9121 98.0169L72.6398 95.6783C79.9192 93.7278 86.1137 88.9213 89.8607 82.3162C93.6077 75.7111 94.6002 67.8484 92.6199 60.4578L87.2777 40.5205C86.7142 38.4176 85.3511 36.6213 83.4881 35.5268C81.6251 34.4323 79.4149 34.1292 77.3437 34.6842C75.3347 35.2225 73.6161 36.5253 72.5417 38.3182C71.8417 36.772 70.6817 35.469 69.2097 34.6041C67.3467 33.5096 65.1365 33.2065 63.0653 33.7615C61.0562 34.2998 59.3375 35.6027 58.2632 37.3957C57.5632 35.8494 56.4031 34.5463 54.931 33.6814C53.068 32.5869 50.8578 32.2838 48.7866 32.8388C46.8265 33.364 45.1428 34.617 44.0642 36.3428L39.6933 20.0304C39.1299 17.9275 37.7667 16.1312 35.9037 15.0367C34.0407 13.9422 31.8305 13.6391 29.7593 14.1941Z" fill="#FFDFC8"/>
</svg>
