<svg width="123" height="123" viewBox="0 0 123 123" fill="none" xmlns="http://www.w3.org/2000/svg">
<path d="M45.9642 15.9568C46.0894 12.7352 50.1047 11.6593 51.8239 14.3867L69.1413 41.8591C69.9102 43.0788 71.3343 43.6625 72.669 43.3049L102.73 35.2501C105.714 34.4505 108.027 38.1201 106.105 40.6053L86.7474 65.639C85.888 66.7504 85.8266 68.3287 86.5955 69.5484L103.913 97.0208C105.632 99.7482 103.046 103.092 100.139 101.901L70.8582 89.8999C69.5581 89.367 68.0961 89.7588 67.2366 90.8702L47.8787 115.904C45.9569 118.389 42.0457 116.786 42.1709 113.565L43.432 81.114C43.488 79.6733 42.6457 78.3371 41.3457 77.8043L12.0644 65.8035C9.15746 64.6121 9.32591 60.2776 12.3102 59.4779L42.3709 51.4232C43.7055 51.0656 44.6471 49.848 44.703 48.4073L45.9642 15.9568Z" fill="#FFDFC8"/>
<path d="M85.5266 4.36423C85.9287 3.72628 86.8679 3.97795 86.8972 4.7315L87.1922 12.322C87.2053 12.659 87.4255 12.9438 87.7377 13.0275L94.7692 14.9116C95.4673 15.0986 95.5067 16.1125 94.8268 16.3912L87.9775 19.1983C87.6734 19.3229 87.4764 19.6355 87.4895 19.9725L87.7845 27.563C87.8138 28.3166 86.8989 28.6915 86.4494 28.1102L81.9214 22.2546C81.7203 21.9946 81.3783 21.903 81.0742 22.0276L74.225 24.8347C73.5451 25.1134 72.9402 24.3312 73.3424 23.6933L77.3931 17.2672C77.573 16.9819 77.5586 16.6127 77.3576 16.3527L72.8295 10.4971C72.38 9.91574 72.9211 9.05738 73.6192 9.24442L80.6507 11.1285C80.9629 11.2122 81.296 11.0756 81.4758 10.7903L85.5266 4.36423Z" fill="#FFDFC8"/>
</svg>
