<svg width="40" height="46" viewBox="0 0 40 46" fill="none" xmlns="http://www.w3.org/2000/svg">
  <path d="M39.604 22.6904C39.604 26.28 39.5991 29.8695 39.6101 33.4591C39.6113 33.928 39.435 34.2218 39.0322 34.4544C32.7701 38.0636 26.5165 41.685 20.247 45.2795C20.0205 45.4092 19.5871 45.408 19.3594 45.277C13.0887 41.6801 6.83266 38.0563 0.569286 34.4459C0.162828 34.212 0 33.9133 0 33.4481C0.0085699 26.2384 0.00734563 19.0286 0 11.8189C0 11.421 0.153034 11.1651 0.492157 10.9705C6.71758 7.38579 12.943 3.7999 19.1599 0.199317C19.6312 -0.0736959 20.0058 -0.0614532 20.4698 0.206662C26.6842 3.8048 32.9072 7.38946 39.1314 10.9741C39.4717 11.17 39.6138 11.4357 39.6125 11.8299C39.604 15.4501 39.6076 19.0702 39.6076 22.6904H39.6052H39.604ZM38.1042 13.0199C37.9255 13.1191 37.819 13.1754 37.7149 13.2354C32.1004 16.4736 26.4871 19.7154 20.8677 22.9451C20.5984 23.0993 20.5335 23.2756 20.5335 23.5633C20.5408 30.0079 20.5384 36.4512 20.5396 42.8958C20.5396 43.0403 20.5519 43.1847 20.5616 43.372C20.6865 43.3096 20.7673 43.2753 20.8432 43.2313C26.4957 39.9698 32.1457 36.7047 37.8031 33.4505C38.0761 33.2938 38.1299 33.1077 38.1299 32.8249C38.1238 26.3804 38.125 19.937 38.1238 13.4925C38.1238 13.3602 38.1128 13.228 38.103 13.0199H38.1042ZM1.50953 13.0064C1.49728 13.1509 1.48749 13.2097 1.48749 13.2696C1.48749 19.8207 1.48382 26.373 1.50096 32.9241C1.50096 33.0979 1.67113 33.3404 1.83029 33.4334C7.44725 36.6924 13.0728 39.938 18.6971 43.1835C18.8048 43.2459 18.9211 43.2912 19.0607 43.3586C19.0668 43.2337 19.0729 43.1737 19.0729 43.1125C19.0729 36.5761 19.0693 30.0397 19.0852 23.5033C19.0852 23.1434 18.8942 23.0283 18.6567 22.8912C14.0412 20.2272 9.42689 17.5632 4.81261 14.9004C3.73403 14.2784 2.653 13.6602 1.51075 13.0052L1.50953 13.0064ZM37.3329 11.6867C37.2228 11.6132 37.1873 11.5863 37.1469 11.563C31.4687 8.28441 25.7905 5.00703 20.1172 1.71986C19.8589 1.56928 19.6814 1.6207 19.4525 1.75292C14.0032 4.90419 8.55031 8.05057 3.09741 11.197C2.84031 11.3451 2.58566 11.4969 2.28694 11.6732C2.45344 11.7822 2.56118 11.8617 2.67626 11.9278C8.24914 15.1465 13.8257 18.3614 19.3912 21.591C19.7242 21.7845 19.9544 21.7404 20.258 21.5653C25.646 18.4459 31.039 15.3362 36.4307 12.2229C36.7171 12.0576 36.9987 11.885 37.3317 11.6867H37.3329Z" fill="#222222" />
</svg>