<svg width="60" height="60" viewBox="0 0 60 60" fill="none" xmlns="http://www.w3.org/2000/svg">
<rect width="60" height="60" fill="#F4F5F6"/>
<rect width="60" height="60" fill="url(#paint0_linear_132_5570)" fill-opacity="0.2"/>
<rect width="60" height="60" fill="white"/>
<circle cx="30" cy="30" r="30" fill="url(#paint1_linear_132_5570)"/>
<path d="M33.7256 23.7695C33.7256 23.7695 34.3506 24.3945 34.9756 25.6445C34.9756 25.6445 36.9608 22.5195 38.7256 21.8945" stroke="white" stroke-width="1.875" stroke-linecap="round" stroke-linejoin="round"/>
<path d="M27.4936 17.5268C24.3705 17.3945 21.9577 17.7543 21.9577 17.7543C20.4341 17.8632 17.5143 18.7174 17.5144 23.7058C17.5144 28.6517 17.4821 34.7492 17.5144 37.18C17.5144 38.6651 18.4339 42.1292 21.6166 42.3148C25.4851 42.5406 32.4534 42.5886 35.6506 42.3148C36.5064 42.2666 39.3558 41.5947 39.7164 38.4946C40.09 35.283 40.0157 33.051 40.0157 32.5197" stroke="white" stroke-width="1.875" stroke-linecap="round" stroke-linejoin="round"/>
<path d="M42.4998 23.7695C42.4998 27.2213 39.6989 30.0196 36.2438 30.0196C32.7887 30.0196 29.9878 27.2213 29.9878 23.7695C29.9878 20.3178 32.7887 17.5195 36.2438 17.5195C39.6989 17.5195 42.4998 20.3178 42.4998 23.7695Z" stroke="white" stroke-width="1.875" stroke-linecap="round"/>
<path d="M23.7256 31.2695H28.7255" stroke="white" stroke-width="1.875" stroke-linecap="round"/>
<path d="M23.7256 36.2695H33.7255" stroke="white" stroke-width="1.875" stroke-linecap="round"/>
<defs>
<linearGradient id="paint0_linear_132_5570" x1="4.68089" y1="65.4878" x2="39.641" y2="22.9664" gradientUnits="userSpaceOnUse">
<stop stop-color="#FF7E21"/>
<stop offset="1" stop-color="#FF5C01" stop-opacity="0.2"/>
</linearGradient>
<linearGradient id="paint1_linear_132_5570" x1="-0.98972" y1="-16.1855" x2="75.538" y2="10.4232" gradientUnits="userSpaceOnUse">
<stop stop-color="#FF7E21"/>
<stop offset="1" stop-color="#FF5C01" stop-opacity="0.3"/>
</linearGradient>
</defs>
</svg>
