<svg width="60" height="60" viewBox="0 0 60 60" fill="none" xmlns="http://www.w3.org/2000/svg">
<rect width="60" height="60" fill="#F4F5F6"/>
<rect width="60" height="60" fill="url(#paint0_linear_132_5530)" fill-opacity="0.2"/>
<rect width="60" height="60" fill="white"/>
<circle cx="30" cy="30" r="30" fill="url(#paint1_linear_132_5530)"/>
<path d="M40 42.5005V36.2505C40 33.8935 40 32.715 39.2677 31.9827C38.5355 31.2505 37.357 31.2505 35 31.2505L30 42.5005L25 31.2505C22.643 31.2505 21.4645 31.2505 20.7322 31.9827C20 32.715 20 33.8935 20 36.2505V42.5005" stroke="white" stroke-width="1.875" stroke-linecap="round" stroke-linejoin="round"/>
<path d="M30 33.75L29.375 38.75L30 40.625L30.625 38.75L30 33.75ZM30 33.75L28.75 31.25H31.25L30 33.75Z" stroke="white" stroke-width="1.875" stroke-linecap="round" stroke-linejoin="round"/>
<path d="M34.375 23.125V21.875C34.375 19.4588 32.4162 17.5 30 17.5C27.5838 17.5 25.625 19.4588 25.625 21.875V23.125C25.625 25.5412 27.5838 27.5 30 27.5C32.4162 27.5 34.375 25.5412 34.375 23.125Z" stroke="white" stroke-width="1.875" stroke-linecap="round" stroke-linejoin="round"/>
<defs>
<linearGradient id="paint0_linear_132_5530" x1="4.68089" y1="65.4878" x2="39.641" y2="22.9664" gradientUnits="userSpaceOnUse">
<stop stop-color="#FF7E21"/>
<stop offset="1" stop-color="#FF5C01" stop-opacity="0.2"/>
</linearGradient>
<linearGradient id="paint1_linear_132_5530" x1="-0.98972" y1="-16.1855" x2="75.538" y2="10.4232" gradientUnits="userSpaceOnUse">
<stop stop-color="#FF7E21"/>
<stop offset="1" stop-color="#FF5C01" stop-opacity="0.3"/>
</linearGradient>
</defs>
</svg>
