<svg width="60" height="60" viewBox="0 0 60 60" fill="none" xmlns="http://www.w3.org/2000/svg">
<rect width="60" height="60" fill="#F4F5F6"/>
<rect width="60" height="60" fill="url(#paint0_linear_132_5558)" fill-opacity="0.2"/>
<rect width="60" height="60" fill="white"/>
<circle cx="30" cy="30" r="30" fill="url(#paint1_linear_132_5558)"/>
<path d="M36.25 40C37.6307 40 38.75 38.8807 38.75 37.5C38.75 36.1193 37.6307 35 36.25 35C34.8693 35 33.75 36.1193 33.75 37.5C33.75 38.8807 34.8693 40 36.25 40Z" stroke="white" stroke-width="1.875"/>
<path d="M23.75 40C25.1307 40 26.25 38.8807 26.25 37.5C26.25 36.1193 25.1307 35 23.75 35C22.3693 35 21.25 36.1193 21.25 37.5C21.25 38.8807 22.3693 40 23.75 40Z" stroke="white" stroke-width="1.875"/>
<path d="M21.25 37.4655C19.8791 37.3973 19.0239 37.1932 18.4153 36.5847C17.8067 35.9761 17.6028 35.1209 17.5344 33.75M26.25 37.5H33.75M38.75 37.4655C40.1209 37.3973 40.9761 37.1932 41.5847 36.5847C42.5 35.6694 42.5 34.1963 42.5 31.25V28.75H36.625C35.6944 28.75 35.229 28.75 34.8525 28.6276C34.0914 28.3804 33.4946 27.7836 33.2474 27.0225C33.125 26.646 33.125 26.1806 33.125 25.25C33.125 23.854 33.125 23.1561 32.9415 22.5912C32.5705 21.4495 31.6755 20.5545 30.5339 20.1835C29.969 20 29.271 20 27.875 20H17.5" stroke="white" stroke-width="1.875" stroke-linecap="round" stroke-linejoin="round"/>
<path d="M17.5 25H25" stroke="white" stroke-width="1.875" stroke-linecap="round" stroke-linejoin="round"/>
<path d="M17.5 28.75H22.5" stroke="white" stroke-width="1.875" stroke-linecap="round" stroke-linejoin="round"/>
<path d="M33.125 22.5H35.4015C37.2207 22.5 38.1302 22.5 38.8705 22.9421C39.6107 23.3843 40.042 24.1851 40.9045 25.7869L42.5 28.75" stroke="white" stroke-width="1.875" stroke-linecap="round" stroke-linejoin="round"/>
<defs>
<linearGradient id="paint0_linear_132_5558" x1="4.68089" y1="65.4878" x2="39.641" y2="22.9664" gradientUnits="userSpaceOnUse">
<stop stop-color="#FF7E21"/>
<stop offset="1" stop-color="#FF5C01" stop-opacity="0.2"/>
</linearGradient>
<linearGradient id="paint1_linear_132_5558" x1="-0.98972" y1="-16.1855" x2="75.538" y2="10.4232" gradientUnits="userSpaceOnUse">
<stop stop-color="#FF7E21"/>
<stop offset="1" stop-color="#FF5C01" stop-opacity="0.3"/>
</linearGradient>
</defs>
</svg>
