<svg width="51" height="20" viewBox="0 0 51 20" fill="none" xmlns="http://www.w3.org/2000/svg">
<path d="M42.8884 16.1534H43.7161V19.3814H42.8884V18.1245H41.4435V19.3814H40.6159V16.1534H41.4435V17.3436H42.8884V16.1534ZM44.1072 16.9532H45.1376V19.3814H45.9653V16.9532H46.9825V16.1534H44.1061V16.9543L44.1072 16.9532ZM51.0001 18.6796V19.3659C50.8583 19.4371 50.6821 19.4727 50.476 19.4727C50.0461 19.4727 49.8289 19.2836 49.7425 18.981L49.7292 19.001C49.4788 19.3169 49.132 19.4727 48.6833 19.4727C48.2345 19.4727 47.8877 19.3114 47.5797 18.9821C47.2772 18.6529 47.1232 18.2457 47.1232 17.7686C47.1232 17.2914 47.2783 16.8898 47.5797 16.5617C47.8877 16.2324 48.2534 16.0645 48.6833 16.0645C49.1132 16.0645 49.4478 16.2068 49.696 16.4949V16.1546H50.5237V18.4382C50.5237 18.6328 50.6123 18.7341 50.7885 18.7341C50.8716 18.7341 50.9403 18.7163 51.0001 18.6807M49.7281 17.7674C49.7281 17.5027 49.6439 17.2836 49.4722 17.1156C49.3048 16.941 49.0932 16.8564 48.8362 16.8564C48.5791 16.8564 48.3675 16.941 48.2013 17.1156C48.034 17.2825 47.9509 17.5027 47.9509 17.7674C47.9509 18.0322 48.034 18.2513 48.2013 18.4271C48.3675 18.5939 48.5802 18.6785 48.8362 18.6785C49.0921 18.6785 49.3048 18.5939 49.4722 18.4271C49.645 18.2524 49.7281 18.0333 49.7281 17.7674ZM33.795 16.1534L33.7695 17.3659C33.764 17.8564 33.7462 18.1 33.6764 18.3781C33.6122 18.644 33.4881 18.7185 33.2942 18.7185C33.2299 18.7185 33.1712 18.7129 33.1235 18.6951V19.3814C33.1878 19.417 33.2942 19.4348 33.4349 19.4348C34.0177 19.417 34.2991 19.1412 34.4398 18.644C34.5396 18.2891 34.5573 18.0166 34.575 17.6095L34.5939 16.9554H35.6221V19.3837H36.4498V16.1557H33.7928L33.795 16.1534ZM37.7816 17.9855C37.8702 18.5361 38.3057 18.7174 38.7467 18.7174C39.0381 18.7174 39.345 18.6017 39.5333 18.4315L40.0441 18.9487C39.7383 19.288 39.314 19.4738 38.7345 19.4738C37.9223 19.4738 36.9417 18.991 36.9417 17.7686C36.9417 16.5461 37.8857 16.0645 38.6868 16.0645C39.7007 16.0645 40.1206 16.5428 40.1206 17.0811C40.1206 17.9599 39.0104 18.3648 37.7838 17.9866L37.7816 17.9855ZM39.2198 17.1735C39.2198 16.9232 38.9738 16.8108 38.6968 16.8108C38.2747 16.8108 37.9101 16.9899 37.7993 17.4504C38.6591 17.6996 39.2198 17.5127 39.2198 17.1723V17.1735Z" fill="white"/>
<path d="M24.0268 19.9979C22.501 16.4295 18.951 13.9268 14.8159 13.9268C16.3405 17.4963 19.8917 20.0001 24.0279 20.0001C27.0671 20.0001 29.682 18.2004 30.8632 15.6097C27.8239 15.6097 25.2079 17.4095 24.0279 19.999L24.0268 19.9979Z" fill="white"/>
<path d="M24.0344 0C19.8838 0 16.5797 3.25915 16.5797 7.48382C16.5797 11.7085 19.8838 14.9676 24.0344 14.9676C28.185 14.9676 31.519 11.7074 31.519 7.48382C31.519 3.26027 28.185 0 24.0344 0ZM24.0344 11.3959C21.886 11.3959 20.2206 9.7808 20.2206 7.48271C20.2206 5.18461 21.8594 3.5695 24.0344 3.5695C26.2094 3.5695 27.8758 5.18684 27.8758 7.48271C27.8758 9.77858 26.1828 11.3959 24.0344 11.3959Z" fill="white"/>
<path d="M14.2667 7.48415C14.2667 3.51532 10.9925 0.445265 6.8929 0.390761H6.85302C6.83418 0.390761 6.81534 0.389648 6.79651 0.389648L0.73904 0.390761C0.331294 0.390761 0 0.72335 0 1.13269V3.16494C0 3.17383 2.5385e-08 3.18162 0.00110803 3.18941V13.8323C0.00110803 13.8323 0.00110803 13.8334 0.00110803 13.8345V13.8401C0.00110803 14.2494 0.332402 14.582 0.740148 14.582H6.89512V14.5798C10.9925 14.523 14.2667 11.4541 14.2667 7.48638V7.48415ZM6.84748 11.0648H3.50241V3.90464H6.8929C9.01252 3.95136 10.6225 5.34401 10.6225 7.48304C10.6225 9.62207 8.96266 11.0347 6.84748 11.0648Z" fill="white"/>
<path d="M50.4658 1.11823C50.4647 0.715564 50.1389 0.389648 49.7378 0.389648H47.5861C47.329 0.389648 47.0908 0.525354 46.96 0.747822L42.333 8.58871L37.5697 0.740035C37.4378 0.522017 37.2018 0.389648 36.9481 0.389648H34.7919C34.3897 0.389648 34.064 0.716676 34.064 1.12046V13.8501C34.064 14.2539 34.3897 14.5809 34.7919 14.5809H37.0323C37.4345 14.5809 37.7603 14.2539 37.7603 13.8501V7.26168L41.1729 12.8501C41.2992 13.0559 41.5231 13.1816 41.7635 13.1816H42.7596C43.0034 13.1816 43.2294 13.0525 43.3546 12.8423L46.7905 7.0559L46.806 13.8523C46.806 14.255 47.1329 14.5809 47.534 14.5809H49.7744C50.1766 14.5809 50.5034 14.2527 50.5023 13.8478L50.4658 1.11823Z" fill="white"/>
</svg>
