<svg width="60" height="60" viewBox="0 0 60 60" fill="none" xmlns="http://www.w3.org/2000/svg">
<rect width="60" height="60" fill="#F4F5F6"/>
<rect width="60" height="60" fill="url(#paint0_linear_132_5548)" fill-opacity="0.2"/>
<rect width="60" height="60" fill="white"/>
<circle cx="30" cy="30" r="30" fill="url(#paint1_linear_132_5548)"/>
<path d="M34.375 41.875H28.125C23.411 41.875 21.0539 41.875 19.5895 40.4105C18.125 38.9461 18.125 36.589 18.125 31.875V23.125H41.875V31.875" stroke="white" stroke-width="1.875" stroke-linecap="round" stroke-linejoin="round"/>
<path d="M18.125 23.125L18.875 22.125C20.3471 20.1621 21.0832 19.1807 22.1389 18.6529C23.1947 18.125 24.4214 18.125 26.875 18.125H33.125C35.5785 18.125 36.8054 18.125 37.8611 18.6529C38.9168 19.1807 39.6529 20.1621 41.125 22.125L41.875 23.125" stroke="white" stroke-width="1.875" stroke-linecap="round" stroke-linejoin="round"/>
<path d="M35 31.8735C35 31.8735 31.875 34.175 31.875 34.9985C31.875 35.822 35 38.1235 35 38.1235M32.5 34.9985L38.4378 34.9994C40.3361 34.9998 41.875 36.5389 41.875 38.4374C41.875 40.3358 40.336 41.875 38.4375 41.875" stroke="white" stroke-width="1.875" stroke-linecap="round" stroke-linejoin="round"/>
<defs>
<linearGradient id="paint0_linear_132_5548" x1="4.68089" y1="65.4878" x2="39.641" y2="22.9664" gradientUnits="userSpaceOnUse">
<stop stop-color="#FF7E21"/>
<stop offset="1" stop-color="#FF5C01" stop-opacity="0.2"/>
</linearGradient>
<linearGradient id="paint1_linear_132_5548" x1="-0.98972" y1="-16.1855" x2="75.538" y2="10.4232" gradientUnits="userSpaceOnUse">
<stop stop-color="#FF7E21"/>
<stop offset="1" stop-color="#FF5C01" stop-opacity="0.3"/>
</linearGradient>
</defs>
</svg>
