<svg width="60" height="60" viewBox="0 0 60 60" fill="none" xmlns="http://www.w3.org/2000/svg">
<rect width="60" height="60" fill="#F4F5F6"/>
<rect width="60" height="60" fill="url(#paint0_linear_132_5581)" fill-opacity="0.2"/>
<rect width="60" height="60" fill="white"/>
<circle cx="30" cy="30" r="30" fill="url(#paint1_linear_132_5581)"/>
<path d="M36.25 23.75C36.25 20.8037 36.25 19.3306 35.3347 18.4153C34.4194 17.5 32.9463 17.5 30 17.5H26.25C23.3037 17.5 21.8306 17.5 20.9153 18.4153C20 19.3306 20 20.8037 20 23.75V36.25C20 39.1963 20 40.6694 20.9153 41.5847C21.8306 42.5 23.3037 42.5 26.25 42.5H30C32.9463 42.5 34.4194 42.5 35.3347 41.5847C36.25 40.6694 36.25 39.1963 36.25 36.25V35" stroke="white" stroke-width="1.875" stroke-linecap="round" stroke-linejoin="round"/>
<path d="M30.625 17.5H25.625L26.25 18.75H30L30.625 17.5Z" stroke="white" stroke-width="1.875" stroke-linecap="round" stroke-linejoin="round"/>
<path d="M30 30.625C30 30.625 31.6856 31.2584 32.5 33.75C32.5 33.75 36.4706 27.5 40 26.25" stroke="white" stroke-width="1.875" stroke-linecap="round" stroke-linejoin="round"/>
<defs>
<linearGradient id="paint0_linear_132_5581" x1="4.68089" y1="65.4878" x2="39.641" y2="22.9664" gradientUnits="userSpaceOnUse">
<stop stop-color="#FF7E21"/>
<stop offset="1" stop-color="#FF5C01" stop-opacity="0.2"/>
</linearGradient>
<linearGradient id="paint1_linear_132_5581" x1="-0.98972" y1="-16.1855" x2="75.538" y2="10.4232" gradientUnits="userSpaceOnUse">
<stop stop-color="#FF7E21"/>
<stop offset="1" stop-color="#FF5C01" stop-opacity="0.3"/>
</linearGradient>
</defs>
</svg>
