<svg width="60" height="60" viewBox="0 0 60 60" fill="none" xmlns="http://www.w3.org/2000/svg">
<rect width="60" height="60" fill="#F4F5F6"/>
<rect width="60" height="60" fill="url(#paint0_linear_132_5539)" fill-opacity="0.2"/>
<rect width="60" height="60" fill="white"/>
<circle cx="30" cy="30" r="30" fill="url(#paint1_linear_132_5539)"/>
<path d="M30 42.5C35.5229 42.5 40 38.0229 40 32.5C40 25 30 17.5 30 17.5C29.5146 20.6087 29.0394 22.277 27.5 25C25.9989 24.3061 25.625 23.75 25 22.1875C22.5 25 20 28.75 20 32.5C20 38.0229 24.4771 42.5 30 42.5Z" stroke="white" stroke-width="1.875" stroke-linejoin="round"/>
<path d="M27.5 36.25L32.5 31.25" stroke="white" stroke-width="1.875" stroke-linecap="round" stroke-linejoin="round"/>
<path d="M27.5 31.25H27.5112M32.4888 36.25H32.5" stroke="white" stroke-width="2.5" stroke-linecap="round" stroke-linejoin="round"/>
<defs>
<linearGradient id="paint0_linear_132_5539" x1="4.68089" y1="65.4878" x2="39.641" y2="22.9664" gradientUnits="userSpaceOnUse">
<stop stop-color="#FF7E21"/>
<stop offset="1" stop-color="#FF5C01" stop-opacity="0.2"/>
</linearGradient>
<linearGradient id="paint1_linear_132_5539" x1="-0.98972" y1="-16.1855" x2="75.538" y2="10.4232" gradientUnits="userSpaceOnUse">
<stop stop-color="#FF7E21"/>
<stop offset="1" stop-color="#FF5C01" stop-opacity="0.3"/>
</linearGradient>
</defs>
</svg>
