<svg width="29" height="29" viewBox="0 0 29 29" fill="none" xmlns="http://www.w3.org/2000/svg">
<path fill-rule="evenodd" clip-rule="evenodd" d="M14.0655 1.90321C15.5885 0.599213 18.033 1.6439 18.033 3.69397V10.1805H21.6384C22.7193 10.1805 23.5621 10.8464 23.8938 11.7298C24.2165 12.5896 24.043 13.5985 23.3313 14.3663L15.6761 25.597C15.6377 25.6534 15.594 25.7061 15.5457 25.7544C14.7972 26.5019 13.7693 26.6399 12.9293 26.2638C12.0991 25.8921 11.5167 25.0504 11.5167 24.0204V17.5339H7.30925C6.20922 17.5339 5.39993 16.8472 5.09235 15.9814C4.80136 15.1622 4.95317 14.1813 5.62808 13.456L13.8927 2.0903C13.9427 2.0214 14.0007 1.95861 14.0655 1.90321ZM15.5506 3.51956L7.34854 14.7994C7.3149 14.8456 7.27767 14.8892 7.2372 14.9296C7.12633 15.0404 7.1173 15.1647 7.148 15.2511C7.16312 15.2937 7.18425 15.3161 7.19842 15.3266C7.20717 15.333 7.23487 15.3524 7.30925 15.3524H11.6441C12.6357 15.3524 13.6982 16.113 13.6982 17.4053V24.0204C13.6982 24.1162 13.723 24.1727 13.7434 24.2042C13.7658 24.2389 13.7941 24.2608 13.8208 24.2728C13.8471 24.2845 13.8702 24.2862 13.8893 24.2828C13.899 24.281 13.92 24.2761 13.9501 24.256L21.58 13.0624C21.6184 13.006 21.6621 12.9533 21.7104 12.9051C21.8113 12.8043 21.8475 12.7168 21.8605 12.6581C21.8744 12.596 21.868 12.5408 21.8514 12.4966C21.8345 12.4516 21.8079 12.4197 21.78 12.3998C21.7561 12.3827 21.7146 12.362 21.6384 12.362H17.9056C16.914 12.362 15.8515 11.6014 15.8515 10.3091V3.69397C15.8515 3.65361 15.8413 3.62927 15.8269 3.6086C15.8092 3.58314 15.7768 3.55328 15.7289 3.53184C15.6812 3.51048 15.6335 3.50444 15.5949 3.50892C15.5808 3.51057 15.5661 3.51373 15.5506 3.51956Z" fill="url(#paint0_linear_478_1570)"/>
<defs>
<linearGradient id="paint0_linear_478_1570" x1="14.5005" y1="2.41677" x2="14.5005" y2="25.3751" gradientUnits="userSpaceOnUse">
<stop stop-color="#FFB37B"/>
<stop offset="1" stop-color="#FF6B00"/>
</linearGradient>
</defs>
</svg>
