<svg width="330" height="498" viewBox="0 0 330 498" fill="none" xmlns="http://www.w3.org/2000/svg">
<path d="M-385.879 296.958L-385.777 296.976L-379.667 291.941C-379.932 291.312 -380.152 290.657 -380.389 290.014C-380.416 290.025 -380.443 290.042 -380.472 290.053L-380.433 289.94C-380.445 289.978 -380.474 290.053 -380.474 290.056C-380.508 290.028 -380.542 289.996 -380.575 289.966C-380.859 290.062 -381.144 290.176 -381.433 290.209C-381.804 290.251 -382.136 289.985 -382.063 289.576C-381.966 289.031 -381.568 289.182 -381.284 289.371C-381.032 289.54 -380.808 289.761 -380.577 289.968C-380.526 289.951 -380.476 289.933 -380.426 289.918C-380.415 289.949 -380.402 289.982 -380.391 290.014C-379.673 289.686 -379.114 289.07 -378.455 288.146C-378.136 289.07 -378.227 289.978 -378.357 290.86L-366.421 281.027C-369.473 279.385 -369.496 279.31 -368.586 275.981C-368.216 274.625 -367.73 273.286 -366.885 272.103C-364.886 274.777 -364.727 274.928 -366.414 277.199C-367.524 278.694 -366.435 279.661 -366.273 280.905L-346.846 264.903C-348.211 263.82 -349.226 262.486 -350.515 261.551C-351.382 260.921 -351.007 259.686 -351.168 258.697C-351.395 257.313 -352.265 256.591 -353.362 257.763C-354.96 259.469 -355.524 258.412 -355.97 256.85C-356.213 256.004 -356.285 255.089 -356.498 254.227C-356.668 253.538 -356.611 252.909 -356.129 252.433C-355.906 252.214 -355.662 252.048 -355.408 251.907L-358.36 251.388L-377.94 267.519C-377.489 269.435 -377.824 271.459 -378.139 273.451C-378.348 274.785 -378.885 275.656 -380.532 274.888C-381.68 274.352 -383.036 273.582 -384.747 274.158C-384.738 273.813 -384.743 273.473 -384.753 273.132L-408.782 292.926L-389.906 296.247C-388.99 295.573 -387.899 295.013 -387.445 295.114C-387.082 295.194 -386.43 296.024 -385.879 296.956L-385.879 296.958ZM-369.847 272.38C-369.513 272.161 -369.211 272.26 -368.989 272.872C-369.014 273.032 -368.961 273.517 -369.141 273.701C-369.57 274.135 -369.966 273.869 -370.16 273.354C-370.3 272.981 -370.168 272.59 -369.848 272.382L-369.847 272.38ZM-382.717 286.022C-382.348 285.952 -382.14 286.183 -382.071 286.54C-381.997 286.923 -382.126 287.27 -382.517 287.281C-382.686 287.287 -382.925 287.106 -383.002 286.93C-383.154 286.581 -383.023 286.251 -382.717 286.024L-382.717 286.022ZM-383.478 278.882C-382.657 280.138 -382.6 281.618 -383.308 283.324C-383.778 281.789 -383.87 280.494 -383.478 278.882Z" fill="#7F2E00"/>
<path d="M-309.565 259.98L-328.569 275.635C-328.603 276.091 -328.797 276.477 -329.357 276.642C-329.525 276.691 -329.67 276.684 -329.805 276.654L-359.984 301.515L-336.981 305.563L-286.562 264.027L-309.565 259.978L-309.565 259.98ZM-330.732 283.333C-331.14 281.613 -331.475 280.446 -331.677 279.242C-331.758 278.763 -331.509 278.183 -330.98 278.065C-330.427 277.942 -330.244 278.456 -330.088 278.925C-329.683 280.158 -329.603 281.383 -330.732 283.33L-330.732 283.333ZM-327.671 279.165C-327.805 279.006 -327.986 278.873 -328.062 278.685C-328.165 278.423 -328.036 278.237 -327.785 278.187C-327.647 278.333 -327.425 278.456 -327.394 278.634C-327.369 278.779 -327.57 278.986 -327.672 279.167L-327.671 279.165ZM-326.983 284.831C-327.291 284.373 -327.353 283.901 -326.875 283.493C-326.422 283.105 -325.92 283.2 -325.669 283.649C-324.959 284.922 -324.09 286.157 -324.495 288.505C-325.492 287.034 -326.241 285.933 -326.983 284.829L-326.983 284.831ZM-296.446 272.033C-297.176 272.36 -297.707 271.802 -298.135 271.235C-298.368 270.924 -298.276 270.542 -297.919 270.257C-297.248 270.003 -296.598 270.07 -296.171 270.752C-295.894 271.196 -295.978 271.823 -296.446 272.033Z" fill="#7F2E00"/>
<path d="M-245.821 271.199C-245.891 271.344 -245.96 271.491 -246.056 271.528C-246.179 271.578 -246.365 271.388 -246.523 271.302C-246.486 271.239 -246.45 271.166 -246.416 271.094L-249.698 270.516C-249.644 270.604 -249.59 270.698 -249.54 270.798C-249.168 271.548 -248.575 272.471 -249.393 273.193C-250.287 273.982 -250.786 272.906 -251.238 272.275C-251.672 271.669 -252.035 270.974 -251.647 270.172L-260.77 268.566L-311.189 310.102L-288.186 314.15L-237.765 272.614L-245.817 271.197L-245.821 271.199Z" fill="#7F2E00"/>
<path d="M-211.978 277.156L-232.778 294.291C-232.691 294.718 -232.614 295.134 -232.488 295.519C-232.326 296.017 -232.74 296.481 -233.241 296.598C-233.625 296.69 -233.957 296.43 -233.999 296.047C-234.024 295.819 -234.047 295.589 -234.07 295.357L-262.397 318.693L-259.134 319.267C-259.102 318.828 -258.904 318.436 -258.389 318.206C-257.75 317.92 -257.345 318.333 -257.141 318.982C-257.071 319.203 -257.04 319.425 -257.05 319.633L-239.394 322.741L-188.975 281.205L-211.978 277.156ZM-225.623 297.25C-226.534 297.444 -227.911 299.167 -228.331 296.585C-228.505 295.517 -229.232 294.377 -228.025 293.441C-227.411 292.964 -224.759 295.007 -224.543 296.099C-224.369 296.981 -224.846 297.221 -225.623 297.25ZM-223.114 306C-223.436 306.264 -223.774 306.151 -223.942 305.733C-224.119 305.291 -223.752 304.257 -223.357 304.019C-222.989 303.887 -222.633 303.956 -222.498 304.348C-222.254 305.057 -222.63 305.598 -223.114 305.997L-223.114 306ZM-215.286 284.881C-215.563 284.781 -215.776 284.422 -215.962 284.133C-215.99 284.09 -215.714 283.786 -215.58 283.605C-215.17 283.571 -214.967 283.872 -214.853 284.237C-214.718 284.66 -214.829 285.045 -215.288 284.881L-215.286 284.881Z" fill="#7F2E00"/>
<path d="M-163.184 285.745L-213.604 327.28L-190.601 331.33L-189.444 330.376C-189.473 330.325 -189.504 330.286 -189.532 330.226C-189.514 330.013 -189.589 329.456 -189.431 329.345C-189.049 329.072 -188.709 329.229 -188.466 329.57L-140.182 289.794L-163.184 285.745ZM-194.311 321.215C-194.807 321.448 -195.092 320.914 -195.357 320.494C-195.447 319.888 -195.635 319.191 -194.866 318.937C-194.387 318.778 -193.932 319.09 -193.782 319.584C-193.595 320.203 -193.692 320.927 -194.311 321.215Z" fill="#7F2E00"/>
<path d="M-100.222 301.945C-99.6721 301.867 -99.6406 300.486 -100.154 300.371C-102.412 299.873 -103.372 297.592 -104.904 296.003L-106.746 295.678C-107.593 297.224 -107.51 298.857 -106.821 300.375C-106.094 301.98 -106.486 303.099 -107.585 304.136C-108.654 305.146 -108.971 306.462 -109.361 307.89C-110.035 310.364 -110.888 312.792 -111.791 315.19L-100.649 306.011C-100.804 305.459 -100.96 304.907 -101.143 304.366C-101.533 303.217 -102.071 302.202 -100.219 301.943L-100.222 301.945Z" fill="#7F2E00"/>
<path d="M-117.512 318.004C-117.092 317.655 -116.408 317.694 -115.84 317.626C-115.017 317.528 -114.575 316.993 -114.444 316.127C-113.875 312.329 -111.627 309.152 -110.998 305.372C-110.916 304.876 -110.737 304.175 -110.418 303.976C-108.144 302.545 -108.333 300.813 -109.175 298.483C-109.495 297.601 -109.488 296.438 -109.267 295.236L-114.387 294.334L-141.952 317.04C-142.03 317.197 -142.151 317.305 -142.313 317.337L-164.808 335.869L-141.806 339.919L-129.75 329.989C-126.761 324.566 -121.873 321.623 -117.509 318.007L-117.512 318.004ZM-140.648 321.323C-141.16 321.359 -141.474 320.784 -141.456 320.283C-141.381 318.3 -140.064 318.677 -138.972 318.384C-138.811 320.086 -139.12 321.219 -140.648 321.325L-140.648 321.323Z" fill="#7F2E00"/>
<path d="M-67.7758 327.528C-68.0159 327.057 -67.8981 326.587 -67.436 326.219C-66.9421 326.014 -66.5858 326.187 -66.2908 326.489L-42.5954 306.97L-55.0761 304.774C-54.9593 304.899 -54.8448 305.031 -54.7348 305.171C-54.0973 305.98 -54.5144 306.561 -55.1711 307.073C-56.8381 308.368 -57.2763 310.093 -56.9603 312.247C-56.7945 313.371 -57.3843 314.467 -57.8582 315.497C-57.8925 315.572 -58.3388 315.552 -58.4608 315.418C-59.4385 314.349 -59.2238 312.873 -58.7001 311.791C-57.7935 309.921 -57.4854 308.12 -57.7836 306.111C-57.8849 305.424 -57.5787 304.866 -57.0992 304.421L-65.5985 302.925L-92.7181 325.264C-92.8337 325.427 -92.9495 325.592 -93.067 325.755C-93.8561 326.853 -95.0314 327.592 -95.7103 329.032C-95.9749 328.811 -96.2316 328.585 -96.475 328.361L-103.166 333.873C-102.564 334.083 -102.103 334.466 -101.911 335.373C-101.58 336.928 -103.087 337.42 -104.258 338.635C-104.262 337.435 -104.803 336.619 -105.284 335.616L-116.02 344.46L-93.017 348.51L-67.7032 327.655C-67.7288 327.615 -67.7546 327.577 -67.7781 327.532L-67.7758 327.528ZM-77.0066 322.206C-78.2864 323.036 -79.016 322.078 -79.3767 320.974C-79.9789 319.139 -79.9755 317.241 -78.7454 315.141C-77.2114 316.244 -76.9868 317.91 -76.1038 319.042C-75.1095 320.321 -75.8575 321.459 -77.0045 322.204L-77.0066 322.206Z" fill="#7F2E00"/>
<path d="M-1.42026 318.146C-1.44435 318.11 -1.47034 318.074 -1.49426 318.036C-1.46373 318.038 -1.4327 318.032 -1.40204 318.032C-1.77996 316.826 -2.15247 315.599 -2.03037 314.285C-2.02561 314.222 -2.02168 314.169 -2.01725 314.111L-13.8256 312.032C-13.8215 312.054 -13.8192 312.073 -13.8186 312.091C-13.9228 313.803 -15.2939 314.524 -16.1103 315.681C-16.1361 315.719 -16.6287 315.5 -16.6326 315.373C-16.6939 313.776 -15.5205 313.14 -14.7189 311.874L-16.8003 311.508L-67.2197 353.043L-56.3614 354.955C-56.2711 354.924 -56.1788 354.894 -56.087 354.869C-55.3835 354.676 -55.0437 354.866 -54.8562 355.221L-44.2169 357.093L-36.6625 350.869C-36.9564 350.173 -37.2566 349.484 -37.5347 348.782C-37.7619 348.216 -37.897 347.47 -37.1571 347.15C-36.6783 346.943 -36.2565 347.313 -36.0167 347.762C-35.6829 348.385 -35.4152 349.023 -35.2179 349.68L-1.27639 321.719C-1.7247 320.634 -2.05915 319.538 -1.41628 318.144L-1.42026 318.146ZM-37.4016 342.171C-34.6395 341.353 -34.9846 343.848 -33.9016 345.22C-35.1944 344.836 -36.3611 343.82 -37.4016 342.171ZM-28.7127 336.079C-28.7842 336.139 -29.2667 335.762 -29.4007 335.483C-29.6157 335.035 -29.5819 334.485 -29.183 334.119C-28.8397 333.805 -28.5808 334.026 -28.4189 334.467C-28.4306 335.003 -28.1993 335.642 -28.7128 336.081L-28.7127 336.079ZM-11.59 316.621C-11.1825 318.881 -11.3194 320.899 -10.3219 323.075C-12.5394 321.368 -12.8451 319.635 -11.59 316.621ZM-6.05474 324.276C-6.7921 324.791 -7.47637 324.221 -7.66526 323.478C-7.9288 322.43 -8.5945 321.791 -9.08985 320.975C-9.43033 320.415 -9.26048 319.761 -8.87464 319.264C-8.48319 318.946 -8.02123 319.012 -7.96479 319.355C-7.73062 320.792 -6.60993 321.132 -5.82601 321.929C-5.28221 322.483 -5.16998 323.66 -6.05474 324.276Z" fill="#7F2E00"/>
<path d="M19.5487 352.657C19.3344 351.895 19.5826 351.091 21.2692 351.083C21.3592 351.083 21.433 351.069 21.4995 351.05L21.8158 350.79C22.0516 350.303 21.708 349.326 21.892 348.738C22.1841 347.809 22.5353 346.883 23.5435 347.066C24.3478 347.211 24.3254 347.964 24.2807 348.761L54.3041 324.028L49.6238 323.205C49.4852 323.469 49.2549 323.681 48.9408 323.811C48.4232 324.026 48.0856 323.781 47.9054 323.228C47.8928 323.116 47.8857 323.007 47.8844 322.898L31.3014 319.978L29.0852 321.805C29.04 322.302 28.9752 322.831 28.9273 323.39C28.5914 323.124 28.3503 322.845 28.1689 322.56L20.2515 329.081C20.1881 329.211 20.097 329.327 19.9697 329.417C19.8625 329.493 19.7616 329.536 19.6615 329.569L3.77134 342.659C3.86197 342.929 3.9602 343.2 4.07976 343.467C3.6982 343.426 3.38384 343.331 3.10194 343.212L-19.1182 361.516L-2.85615 364.377C-2.86676 364.01 -2.8026 363.616 -2.73212 363.24C-2.61687 362.626 -2.64527 361.911 -1.72173 361.161C-1.31484 361.805 -0.943158 362.282 -0.682135 362.831C-0.350408 363.532 -0.415021 364.186 -0.778578 364.743L3.88283 365.563L19.5466 352.659L19.5487 352.657ZM32.4002 324.719C32.8366 324.414 32.9518 324.84 33.0036 325.193C33.0377 325.426 33.0338 325.834 32.923 325.907C32.4882 326.191 32.4618 325.653 32.2773 325.46C32.3177 325.178 32.2832 324.799 32.4002 324.719ZM23.1811 328.046C23.5605 327.659 23.8648 327.913 23.986 328.261C24.0897 328.56 24.1079 329.08 23.9465 329.29C23.6764 329.649 23.3 329.438 23.0981 329.095C22.8994 328.761 22.947 328.384 23.1832 328.043L23.1811 328.046ZM19.161 336.053C19.4729 335.495 19.7948 334.855 20.4529 334.859C21.2794 334.863 21.5821 335.645 21.7673 336.362C21.9199 336.951 22.0823 337.818 21.8234 338.231C20.7645 339.913 20.8143 341.892 20.3493 344.377C18.0458 341.119 17.7832 338.512 19.161 336.053ZM19.1036 331.917C18.7995 332.702 18.6534 333.648 17.6149 333.386C17.5172 333.362 17.4248 332.913 17.4804 332.708C17.7398 331.755 18.3758 331.747 19.1036 331.917ZM9.08693 343.738C9.72706 343.396 10.1374 343.892 10.394 344.525C10.5625 345.159 10.7153 345.898 10.1213 346.288C9.4165 346.752 8.70946 346.332 8.36955 345.662C7.96463 344.865 8.40096 344.104 9.08693 343.738ZM-0.0328536 359.272C-1.08917 359.423 -1.73096 358.899 -1.96514 357.741C-2.07957 357.178 -1.89209 356.671 -1.43436 356.489C-0.556542 356.142 0.0618057 356.748 0.589671 357.387C0.868521 357.724 1.01847 358.198 1.39351 358.935C0.625624 359.118 0.29805 359.223 -0.0326871 359.27L-0.0328536 359.272Z" fill="#7F2E00"/>
<path d="M39.6147 371.849C39.923 370.832 40.3921 369.891 39.9671 368.7C39.5308 367.481 40.3584 366.633 41.3172 366.379C42.1667 366.154 42.9407 366.803 43.1578 367.705C43.5321 369.264 43.8398 370.868 43.6019 372.55L52.681 374.148L74.8828 355.859C74.852 355.633 74.8171 355.411 74.7944 355.178C75.0524 355.234 75.2899 355.284 75.5215 355.333L100.027 335.145C99.5856 334.124 99.7235 333.159 99.9576 332.06L80.0957 328.563L50.9966 352.535C51.0892 352.626 51.1519 352.76 51.1687 352.917C51.2376 353.627 51.5965 354.503 50.698 354.92C50.5433 354.992 50.2087 354.506 50.0458 354.357C49.9429 354.021 49.8875 353.715 49.8966 353.443L29.6762 370.101L39.6128 371.849L39.6147 371.849ZM87.7573 336.624C88.265 336.337 88.924 336.101 89.0857 336.926C89.2098 337.564 88.6838 338.092 88.1934 338.428C87.7654 338.723 87.3426 338.645 87.0566 338.148C86.8897 337.418 87.2156 336.929 87.7573 336.624ZM84.0626 334.53C84.2588 334.543 84.5646 334.472 84.6307 334.586C84.7912 334.868 84.9905 335.296 84.9003 335.553C84.7421 336.002 84.3882 335.873 84.1794 335.545C83.9947 335.253 83.8263 334.923 84.0626 334.53ZM74.3832 336.527C74.6695 336.817 74.6703 337.212 74.2599 337.4C74.1329 337.46 73.8272 337.25 73.7393 337.072C73.6546 336.9 73.7454 336.61 73.7616 336.37C73.9724 336.417 74.2446 336.386 74.3834 336.525L74.3832 336.527Z" fill="#7F2E00"/>
<path d="M84.0735 379.674C84.038 379.385 84.0733 379.018 84.4013 378.804C84.7837 378.555 84.9132 379.047 85.0118 379.363C85.061 379.523 85.1151 379.693 85.1464 379.862L101.474 382.735L106.074 378.946C105.832 377.721 105.585 376.497 105.39 375.258C105.283 374.59 105.562 373.885 106.1 373.549C106.701 373.177 107.132 373.676 107.571 374.117C108.247 374.795 108.759 375.577 109.137 376.423L145.921 346.12C145.935 345.866 145.921 345.505 146.074 345.285C146.314 344.941 146.691 345.025 146.786 345.407L147.731 344.627C147.241 343.547 146.64 342.447 146.594 341.154C148.042 341.856 149.161 342.796 150.623 342.094C150.722 342.046 150.818 342.018 150.911 342.006L151.894 341.196L128.891 337.146L124.792 340.523C125.229 341.686 125.531 342.882 125.435 344.232C125.311 345.965 124.499 347.673 123.892 349.761C121.836 347.004 124.141 344.202 122.941 342.048L121.727 343.047C121.724 343.572 121.773 344.111 121.436 344.392C120.977 344.433 120.648 344.233 120.603 343.973L78.4702 378.681L84.074 379.668L84.0735 379.674ZM136.275 344.101C136.713 343.79 137.124 344.007 137.475 344.345C137.482 344.568 137.574 344.893 137.48 344.995C137.08 345.431 136.632 345.199 136.264 344.973C135.919 344.759 135.945 344.337 136.275 344.104L136.275 344.101ZM131.971 345.156C132.458 344.87 132.974 344.418 133.516 344.896C133.794 345.142 133.886 345.647 133.607 345.879C133.043 346.349 132.386 346.609 131.767 346.084C131.481 345.666 131.655 345.34 131.971 345.156ZM129.48 349.238C129.588 349.077 129.854 349.048 130.052 348.963C130.033 349.206 130.08 349.501 129.971 349.677C129.877 349.829 129.606 349.848 129.415 349.924C129.428 349.689 129.374 349.395 129.48 349.238ZM116.903 350.294C117.401 352.623 118.762 353.958 117.625 356.32C116.435 354.591 116.078 352.985 116.903 350.294ZM112.583 360.854C114.469 361.635 115.189 359.901 116.168 358.695C116.167 358.677 116.165 358.66 116.162 358.642L116.181 358.643C116.193 358.644 116.202 358.644 116.214 358.644C117.3 358.168 118.006 356.902 119.472 356.629C118.686 358.3 117.505 358.576 116.214 358.644C116.21 358.644 116.208 358.649 116.204 358.651C116.191 358.665 116.178 358.682 116.168 358.697C116.209 359.209 116.423 359.952 116.227 360.143C114.052 362.268 114.699 364.769 114.98 367.309C115.118 368.55 115.103 370.076 113.66 370.582C112.17 371.104 111.131 370.611 110.343 368.913C109.663 367.45 109.4 366.083 109.727 364.497C109.856 363.868 110.181 363.27 110.253 362.641C110.551 360.039 110.538 360.006 112.585 360.854L112.583 360.854ZM102.211 370.962C102.707 370.636 103.064 370.898 103.329 371.296C103.574 371.667 103.808 372.168 103.367 372.539C103.226 372.657 102.767 372.401 102.529 372.202C102.185 371.914 101.893 371.53 102.209 370.964L102.211 370.962ZM96.0339 375.856C96.2102 375.624 96.4284 375.623 96.5277 375.931C96.6359 376.271 96.6909 376.66 96.6765 377.028C96.6633 377.33 96.3819 377.484 96.1981 377.281C95.852 376.897 95.8974 376.371 96.0339 375.856ZM86.6324 373.076C87.2143 372.974 87.4371 373.42 87.5781 373.91C87.7145 374.385 87.7787 375.005 87.2488 375.18C86.766 375.339 86.4273 374.831 86.2478 374.37C86.0553 373.877 86.174 373.394 86.6324 373.076Z" fill="#7F2E00"/>
<path d="M148.251 390.97C147.467 389.735 147.478 389.524 147.625 387.134C148.053 388.416 148.548 389.544 148.506 391.016L150.268 391.327L200.687 349.791L177.684 345.741L169.157 352.767C169.199 352.937 169.242 353.107 169.294 353.275C169.083 353.24 168.883 353.198 168.683 353.156L145.892 371.93C145.557 373.932 145.18 375.937 144.269 377.796C143.866 378.616 143.69 379.454 142.677 379.668C141.376 379.941 141.241 378.69 140.681 377.986C140.347 377.565 140.316 377.067 140.563 376.539C140.936 376.03 141.394 376.245 141.844 376.252C142.44 376.261 143.194 377.148 143.595 375.919C143.946 374.839 143.379 374.65 142.618 374.631L127.265 387.279L148.251 390.972L148.251 390.97ZM182.264 350.691C182.653 349.775 183.254 349.191 184.147 349.142C184.999 349.095 185.222 349.943 185.631 350.602C185.948 351.91 186.199 353.304 186.622 354.619C187.126 356.179 186.999 357.416 185.549 358.269C183.907 359.234 182.822 357.528 182.529 356.694C181.899 354.899 181.371 352.793 182.264 350.689L182.264 350.691ZM177.891 365.354C176.041 364.353 175.702 363.544 175.211 358.845C176.283 361.452 177.031 363.263 177.891 365.354ZM158.073 374.746C158.173 374.946 158.353 375.146 158.346 375.347C158.341 375.512 158.114 375.681 157.986 375.85C157.902 375.654 157.778 375.469 157.744 375.261C157.692 374.949 157.831 374.767 158.073 374.746ZM156.696 378.01C157.242 377.552 157.475 378.11 157.68 378.495C157.949 379.002 158.325 379.658 157.798 380.173C157.41 380.552 156.959 380.135 156.658 379.753C156.234 379.215 156.241 378.637 156.696 378.01Z" fill="#7F2E00"/>
<path d="M226.478 354.328L220.038 359.633C220.012 360.311 219.948 361.001 219.852 361.699C219.761 362.363 219.571 362.984 219.867 363.521C221.265 366.046 220.016 368.885 220.311 371.539C220.391 372.26 219.711 372.16 219.285 372.25C219.285 372.25 219.285 372.252 219.285 372.254C219.285 372.256 219.285 372.259 219.286 372.263C219.899 373.023 220.489 373.844 220.621 374.888C220.889 377.016 221.484 378.901 222.657 380.471L249.479 358.376L226.476 354.328L226.478 354.328ZM223.914 365.819C223.748 365.868 223.454 365.757 223.364 365.604C223.194 365.317 223.037 364.878 223.56 364.78C223.717 364.75 223.909 365.042 224.086 365.185C224.211 365.459 224.167 365.743 223.914 365.819ZM230.952 361.714C230.658 365.11 230.362 368.505 230.055 372.04C228.979 369.966 229.159 365.598 230.952 361.714Z" fill="#7F2E00"/>
<path d="M219.277 372.254C219.277 372.254 219.283 372.254 219.285 372.254C219.467 370.901 218.86 369.664 219.428 368.149C219.998 366.631 219.976 364.789 218.58 363.533C217.905 362.925 217.795 362.176 217.956 361.35L176.059 395.866L193.518 398.938C193.52 397.852 194.051 397.195 195.014 396.888C195.185 397.135 195.306 397.226 195.308 397.326C195.316 398.061 195.148 398.691 194.75 399.155L199.062 399.914L221.792 381.189C220.521 378.395 219.932 375.319 219.288 372.265C219.284 372.261 219.283 372.259 219.279 372.254L219.277 372.254Z" fill="#7F2E00"/>
<path d="M266.538 371.88C266.832 374.253 267.465 376.133 269.221 377.723C270.872 379.22 270.546 380.753 268.96 382.22C267.641 383.441 267.13 383.294 266.416 381.641C266.046 380.782 266.187 379.853 266.036 378.97C265.891 378.123 265.384 377.61 264.697 377.389C263.826 377.108 263.537 377.898 263.135 378.58C262.462 379.721 262.249 381.75 260.676 381.492C258.839 381.189 258.944 379.054 258.697 377.436C258.657 377.177 258.629 376.914 258.597 376.653L224.85 404.455L245.25 408.045C245.026 407.187 244.742 406.356 244.294 405.597C243.924 404.969 243.605 403.991 243.088 403.843C240.893 403.213 241.213 402.221 242.643 400.798C243.247 400.195 243.469 399.304 242.73 398.824C241.36 397.929 241.893 396.372 241.385 395.197C241.619 395.081 241.852 394.965 242.087 394.849C243.011 396.418 244.023 397.927 244.837 399.568C245.644 401.197 246.668 402.488 248.241 403.076C249.764 403.644 250.563 404.587 250.324 406.469L260.831 397.814C260.781 397.41 260.738 397.016 260.542 396.714C260.873 396.899 261.117 397.137 261.312 397.416L298.272 366.969L275.269 362.919L266.062 370.504C266.326 370.904 266.471 371.366 266.534 371.882L266.538 371.88ZM239.943 401.643C239.831 401.939 239.501 401.924 239.438 401.625C239.365 401.275 239.442 400.877 239.453 400.565C239.725 400.279 240.005 400.27 240.058 400.558C240.12 400.896 240.068 401.315 239.943 401.643ZM249.533 389.371C249.442 389.465 249.093 389.417 249.003 389.297C248.794 389.02 248.716 388.654 249.007 388.303C249.154 388.329 249.406 388.288 249.493 388.405C249.694 388.678 249.838 389.058 249.533 389.371ZM254.562 391.833C254.425 392.112 254.197 392.159 254.074 391.896C254.002 391.747 254.109 391.481 254.136 391.268C254.367 391.13 254.534 391.201 254.6 391.49C254.625 391.594 254.61 391.737 254.562 391.833ZM256.844 399.214C256.851 399.227 256.857 399.24 256.864 399.254L256.756 399.236C256.756 399.236 256.864 399.254 256.856 399.253C256.806 399.288 256.755 399.325 256.704 399.362C256.445 400.007 256.168 400.695 255.603 402.094C255.645 400.39 256.108 399.804 256.704 399.362C256.721 399.319 256.74 399.277 256.756 399.236C256.785 399.231 256.815 399.221 256.844 399.216C256.631 398.787 256.489 398.26 256.174 397.971C254.209 396.164 255.239 394.129 256.031 392.126C256.216 391.658 256.579 391.254 257.102 391.578C257.528 391.844 257.853 392.458 257.592 392.828C256.231 394.756 256.944 396.333 257.766 398.053C258.08 398.713 257.432 399.081 256.844 399.216L256.844 399.214ZM256.787 381.191C259.217 382.644 260.143 385.115 260.978 387.844C258.77 385.83 257.373 383.612 256.787 381.191Z" fill="#7F2E00"/>
<path d="M296.509 397.874C296.553 397.835 296.595 397.8 296.639 397.758C296.649 397.78 296.658 397.801 296.666 397.823C298.973 395.025 301.487 393.06 305.102 393.488C306.675 393.675 308.895 393.92 309.191 390.832C310.53 391.121 310.781 392.62 311.758 393.188C309.28 397.068 306.182 398.379 302.327 397.783C301.271 397.619 300.077 398.253 298.959 398.591C298.001 398.879 297.157 398.951 296.668 397.823C296.647 397.848 296.626 397.871 296.607 397.896C296.607 397.896 296.607 397.901 296.607 397.903C296.575 397.891 296.543 397.885 296.511 397.875C293.966 400.159 292.461 400.596 290.395 399.244L273.648 413.04L280.53 414.252C280.043 413.327 279.723 412.244 279.8 411.471C279.845 411.028 280.025 410.72 280.351 410.569C281.158 410.193 282.032 410.145 282.577 410.891C283.336 411.935 283.929 413.135 284.588 414.273C284.618 414.25 284.649 414.223 284.683 414.203C284.707 414.241 284.733 414.273 284.757 414.309C286.879 413.501 286.697 410.564 288.593 409.074C288.609 410.938 290.382 410.297 290.906 411.287C291.453 412.317 291.31 414.006 293.069 413.012C292.851 414.633 294.004 415.237 294.767 416.13C294.801 416.108 294.835 416.09 294.869 416.067L294.823 416.194C294.823 416.194 294.869 416.067 294.867 416.074C294.886 416.127 294.901 416.182 294.918 416.235C295.536 416.518 296.206 416.694 296.852 416.922L314.036 402.767C314.168 401.815 314.597 400.91 315.189 400.572C315.726 400.337 316.055 400.508 316.293 400.909L347.074 375.552L324.071 371.502L290.717 398.977C292.862 398.701 294.535 397.212 296.514 397.87L296.509 397.874ZM337.296 375.067C338.131 373.903 339.206 373.975 339.692 375.332C340.193 376.733 340.29 378.312 341.274 379.83C339.94 379.376 338.968 379.088 338.024 378.712C336.482 378.095 336.199 376.601 337.296 375.069L337.296 375.067ZM321.852 382.398C322.824 381.966 323.675 381.677 324.48 380.723C325.483 379.531 326.596 380.024 327.043 381.582C327.441 382.967 327.184 384.406 327.042 385.832C326.825 387.997 325.252 389.741 325.591 392.197C325.74 393.275 324.15 393.978 322.873 394.797C322.921 392.455 323.806 390.189 321.846 388.871C321.221 388.867 321.154 389.466 320.97 389.926C320.453 391.225 319.832 391.118 319.23 390.142C317.785 387.801 319.153 383.591 321.852 382.395L321.852 382.398ZM311.81 400.058C310.91 400.528 310.012 400.636 309.428 399.539C309.18 399.072 309.188 398.56 309.672 398.086C310.675 397.632 311.337 398.338 311.953 399.072C312.197 399.364 312.157 399.875 311.812 400.056L311.81 400.058Z" fill="#7F2E00"/>
<path d="M331.897 413.837L322.439 421.629L345.442 425.678L366.656 408.204C366.525 407.29 366.473 406.392 366.553 405.457C366.623 404.623 367.047 404.208 367.703 404.9C368.167 405.39 368.592 405.747 369.001 404.817C369.244 404.263 369.091 403.676 368.687 403.448C365.554 401.678 366.624 398.448 366.819 395.532C366.854 395.023 367.019 394.451 367.632 394.454C368.133 394.457 368.526 394.8 368.661 395.299C368.858 396.025 368.773 396.9 369.071 397.544C370.334 400.266 372.028 400.966 374.211 398.447C374.611 397.983 374.768 397.224 375.193 396.811C376.356 395.679 377.68 394.646 377.01 392.642C376.448 390.961 374.734 390.852 373.619 389.92C372.418 388.92 371.767 390.875 371.137 391.778C369.961 391.534 370.369 390.557 370.258 389.883C369.885 387.644 368.818 385.958 367.554 384.468L333.643 412.404C333.204 413.285 332.654 413.83 331.899 413.842L331.897 413.837ZM352.808 411.42C353.037 409.393 353.205 407.929 353.386 406.338C355.509 408.547 355.471 409.3 352.808 411.42ZM355.581 412.888C355.581 412.888 355.589 412.88 355.594 412.874L355.593 412.878C355.593 412.878 355.593 412.887 355.592 412.891C355.852 414.554 357.466 413.954 358.199 414.825C356.546 415.545 355.677 414.9 355.592 412.891C355.592 412.891 355.591 412.884 355.591 412.882C355.587 412.884 355.583 412.886 355.581 412.888C353.304 415.552 350.566 416.281 346.777 415.913C350.024 414.002 353.009 414.313 355.581 412.888ZM343.136 405.066C343.247 405.049 343.385 405.396 343.509 405.576C343.492 405.955 343.503 406.389 343.071 406.457C342.965 406.474 342.757 406.135 342.719 405.926C342.652 405.555 342.71 405.13 343.136 405.068L343.136 405.066ZM339.198 418.918C339.198 418.918 339.239 418.8 339.242 418.791C339.28 418.791 339.311 418.79 339.347 418.789C340.934 417.437 342.78 417.277 344.947 416.936C342.972 418.634 342.568 418.762 339.347 418.789C339.308 418.823 339.269 418.854 339.233 418.887C339.156 420.124 339.289 421.461 337.932 422.222C336.721 420.722 337.008 418.798 336.39 417.097C338.3 416.411 338.457 418.154 339.196 418.918L339.198 418.918Z" fill="#7F2E00"/>
<path d="M382.79 386.396C380.404 389.006 381.058 392.383 380.726 395.494C380.687 395.863 380.699 396.236 380.724 396.613L395.861 384.143L387.086 382.599C386.929 382.699 386.772 382.797 386.62 382.893C385.151 383.812 383.977 385.103 382.79 386.398L382.79 386.396Z" fill="#7F2E00"/>
<path d="M392.237 433.914C391.975 433.387 391.709 432.874 391.377 432.425C390.591 431.356 391.328 430.137 392.172 429.379C393.01 428.625 393.903 428.702 394.493 429.836C394.607 430.053 394.757 430.245 394.895 430.445C395.421 431.211 396.719 431.079 397.154 431.862L411.063 420.404C410.905 419.982 410.963 419.518 411.516 418.913C413.888 416.31 413.507 413.067 413.288 409.93C412.947 405.064 412.632 400.236 416.285 396.108C415.734 395.418 414.977 395.155 414.283 394.753L371.233 430.218L392.237 433.914ZM389.585 428.078C388.587 428.345 388.235 427.324 388.013 426.487C387.825 425.779 387.76 424.973 387.826 424.224C387.944 422.905 388.388 421.616 388.248 420.171C388.678 422.26 389.913 423.831 390.224 425.825C390.346 426.614 390.743 427.768 389.583 428.078L389.585 428.078Z" fill="#7F2E00"/>
<path d="M418.871 402.983C418.789 404.201 417.762 404.442 416.798 404.742C414.59 405.425 414.114 406.023 414.862 408.314C416.013 411.845 415.696 414.908 414.319 417.721L430.688 404.236C429.354 402.54 429.563 401.649 430.813 399.24C431.613 400.456 431.776 401.761 431.898 403.241L444.658 392.73L421.655 388.68L417.635 391.992C420.391 395.062 419.128 399.171 418.873 402.983L418.871 402.983ZM426.957 405.78C427.206 405.676 427.359 405.805 427.395 406.114C427.416 406.42 427.275 406.639 427.038 406.558C426.902 406.511 426.821 406.23 426.757 406.037C426.742 405.987 426.872 405.818 426.957 405.782L426.957 405.78Z" fill="#7F2E00"/>
<path d="M426.636 434.068C426.636 434.068 426.632 434.076 426.627 434.08C425.844 435.208 425.003 435.872 424.173 436.097L420.735 438.93L443.738 442.978L444.146 442.641C443.993 442.538 443.831 442.422 443.648 442.283C443.107 441.866 442.661 441.976 442.13 441.892C440.382 441.612 438.232 438.689 438.174 436.743C438.139 435.551 439.347 434.916 440.492 435.495C441.636 436.074 442.094 437.641 443.468 438.157C444.576 436.985 443.635 435.3 444.658 434.677C447.796 432.763 448.18 427.975 451.488 426.111C452.016 427.568 451.002 427.941 450.552 428.632C449.318 430.52 447.58 432.175 448.158 434.897C448.225 435.214 448.112 435.807 447.909 435.959C446.2 437.25 446.256 439.218 445.994 441.119L480.813 412.436C480.885 411.15 481.397 409.921 482.358 408.758C484.283 406.425 484.5 404.505 483.084 401.791C482.676 401.01 482.245 400.253 482.292 399.357L471.154 397.397L426.636 434.072L426.636 434.068ZM439.373 430.71C437.889 432.37 436.309 433.905 435.314 436.061C435.01 436.721 434.024 436.672 433.98 435.988C433.863 434.214 432.36 433.285 432.152 431.498C432.578 431.436 432.972 431.233 433.199 431.368C434.542 432.165 435.608 432.109 436.132 430.165C436.462 428.939 437.266 428.578 438.235 428.449C438.799 428.374 439.43 428.208 439.74 428.918C440.022 429.561 439.781 430.25 439.373 430.707L439.373 430.71ZM455.717 411.661C456.141 412.937 456.577 414.208 456.984 415.492C457.101 415.866 457.036 416.275 456.7 416.513C456.261 416.825 455.803 416.754 455.485 416.362C454.346 414.961 454.755 413.374 455.717 411.661ZM455.001 422.341C454.987 425.341 459.687 423.273 458.943 426.969C455.353 427.469 454.149 426.148 455.001 422.341ZM461.924 424.488C460.878 422.197 461.23 420.439 461.529 418.058C463.243 420.24 462.567 422.028 461.924 424.488Z" fill="#7F2E00"/>
<path d="M516.026 423.433C519.569 425.581 519.894 426.634 517.779 430.766L542.95 410.032L540.816 409.657C540.814 409.805 540.817 409.953 540.807 410.103C540.765 410.921 540.331 411.569 539.925 412.212C539.64 412.662 539.258 413.054 538.787 412.728C538.549 412.562 538.283 412.077 538.342 411.809C538.541 410.896 538.536 410.049 538.415 409.235L521.57 406.271C521.576 406.535 521.568 406.803 521.533 407.08C521.283 409.135 520.86 411.166 521.475 413.261C521.781 414.304 521.489 415.811 520.018 415.83C518.65 415.85 518.303 414.589 518.546 413.348C518.971 411.19 518.885 409.077 518.768 406.956L511.193 413.196C511.691 416.139 513.011 418.706 514.131 421.359C514.518 422.275 515.173 422.919 516.024 423.435L516.026 423.433Z" fill="#7F2E00"/>
<path d="M492.295 429.536C492.718 428.925 493.213 428.663 493.714 429.24C494.088 429.669 493.845 430.175 493.567 430.642C492.342 432.699 492.345 434.698 493.575 436.641C492.86 437.83 491.541 436.791 491.073 438.107C490.876 438.663 490.715 439.522 489.91 439.028C489.469 438.757 489.479 438.199 489.591 437.657C490.061 435.381 490.31 433.251 488.87 431.585L469.531 447.517L478.075 449.022C478.028 448.963 477.981 448.904 477.936 448.839C477.664 448.443 477.917 447.802 478.373 447.517C479.228 446.987 479.922 447.249 480.422 448.057C480.581 448.613 480.476 449.084 480.119 449.382L492.532 451.567L517.574 430.938C517.709 430.041 517.874 429.145 517.932 428.245C518.129 425.185 516.819 423.876 514.242 424.489C510.782 425.311 510.749 425.331 509.215 421.72C508.487 420.006 507.631 418.364 507.156 416.522L490.504 430.239C490.973 430.692 491.543 430.623 492.295 429.536ZM483.384 445.291C482.939 445.618 482.524 445.429 482.252 444.985C481.952 444.496 482.064 444.041 482.511 443.681C482.97 443.427 483.388 443.472 483.649 443.962C483.909 444.447 483.828 444.964 483.384 445.291ZM502.058 441.637C502.384 441.466 502.619 441.584 502.551 441.892C502.475 442.247 502.282 442.622 502.046 442.877C501.836 443.106 501.556 442.936 501.622 442.636C501.704 442.269 501.922 441.932 502.056 441.635L502.058 441.637Z" fill="#7F2E00"/>
<path d="M556.69 427.048C556.931 427.929 557.196 428.866 556.199 429.386C555.333 429.838 554.697 429.338 554.263 428.577C554.165 427.786 554.08 426.983 554.393 426.391L547.871 431.762C547.888 431.82 547.904 431.88 547.921 431.937C548.076 432.454 547.87 432.997 547.459 433.271C547.05 433.545 546.656 433.355 546.378 432.993L534.524 442.757C534.314 444.249 533.705 445.752 532.704 447.162C532.262 446.51 531.822 445.864 531.583 445.179L523.176 452.106C523.021 452.339 522.804 452.569 522.508 452.813C521.255 453.845 520.093 455.025 518.937 456.212L541.326 460.154L545.589 456.642C545.577 456.578 545.556 456.514 545.546 456.45C545.404 455.613 545.877 454.932 545.991 454.182C546.344 451.88 547.48 449.682 546.89 447.232C546.668 446.313 547.051 445.27 547.949 444.97C549.268 444.528 550.003 443.165 551.099 442.538C552.551 441.705 553.229 440.629 553.41 438.888C553.522 437.809 553.985 436.694 555.149 436.794C556.455 436.905 557.63 437.488 557.806 439.223C557.93 440.45 557.791 441.829 556.51 442.118C552.172 443.099 550.052 446.085 549.567 450.949C549.458 452.035 548.595 453.05 548.129 454.124C548.034 454.344 547.963 454.544 547.893 454.741L570.383 436.213C570.316 436.051 570.26 435.863 570.23 435.628C570.034 434.134 572.412 433.735 573.569 432.738C574.032 432.34 574.595 432.261 575.172 432.267L591.744 418.616L568.741 414.566L555.236 425.692C556.036 425.435 556.451 426.185 556.688 427.046L556.69 427.048ZM558.017 430.007C559.016 429.779 559.716 430.495 560.162 431.475C560.317 431.813 560.481 432.148 560.826 432.874C560.917 433.317 561.246 434.18 561.236 435.052C561.217 436.571 561.489 437.833 562.55 438.793C563.147 439.332 563.302 440.118 562.751 440.828C561.975 441.829 561.274 441.045 560.688 440.57C559.685 439.761 559.552 438.508 559.576 437.137C559.6 435.836 559.495 434.437 558.073 434.107C557.266 433.918 556.385 433.933 556.762 432.561C557.023 431.617 556.845 430.272 558.017 430.004L558.017 430.007Z" fill="#7F2E00"/>
<path d="M628.804 427.348C627.971 427.707 627.448 427.178 627.216 426.393C627.029 425.756 626.756 425.219 626.424 424.724L617.535 423.16L606.465 432.281C606.529 432.925 606.634 433.569 606.779 434.206C606.923 434.832 607.095 435.47 606.819 436.112C606.606 436.606 606.242 437.032 605.756 437.017C605.469 437.009 605.075 436.753 604.952 436.475C604.634 435.747 604.36 434.994 604.094 434.233L598.278 439.024C599.422 439.485 600.619 439.737 602.013 439.22C602.922 438.883 603.873 439.628 604.02 440.819C604.385 443.773 606.271 445.782 607.574 448.024C608.438 449.511 608.156 450.124 607.611 451.286C607.1 452.378 606.308 453.138 605.58 454.013C604.778 454.976 604.393 455.97 604.358 457.011L622.152 442.353C622.251 442.09 622.358 441.828 622.49 441.575C622.717 441.133 623.132 440.81 623.39 440.514C623.829 440.348 624.157 440.365 624.399 440.502L626.944 438.407C626.825 438.278 626.726 438.103 626.655 437.873C626.503 437.378 626.483 436.775 626.965 436.519C627.571 436.2 628.064 436.519 628.364 437.165C628.37 437.184 628.372 437.204 628.378 437.226L640.54 427.207L631.036 425.535C630.496 426.331 629.745 426.941 628.804 427.348ZM615.651 428.94C615.301 429.009 615.073 428.757 614.987 428.35C615.046 427.892 614.997 427.277 615.599 427.263C615.835 427.258 616.19 427.579 616.263 427.844C616.41 428.368 616.179 428.835 615.649 428.94L615.651 428.94Z" fill="#7F2E00"/>
<path d="M599.938 451.589C599.838 450.296 599.89 448.979 599.794 447.683C599.716 446.613 599.544 445.844 598.183 445.855C596.748 445.867 595.777 444.436 595.102 443.141C594.918 442.79 594.753 442.427 594.588 442.064L567.117 464.693L578.948 466.776C578.921 466.705 578.896 466.634 578.877 466.552C578.761 466.032 579.244 465.644 579.645 465.35C580.362 465.051 580.692 465.497 580.866 466.168C580.947 466.484 580.981 466.845 580.873 467.115L590.12 468.743L601.472 459.392C601.41 459.294 601.354 459.195 601.289 459.096C599.913 457.017 600.138 454.168 599.94 451.589L599.938 451.589ZM573.881 464.578C572.942 464.137 572.974 463.183 572.826 462.178C574.102 462.368 574.539 463.062 574.375 464.228C574.354 464.371 573.987 464.627 573.882 464.576L573.881 464.578Z" fill="#7F2E00"/>
<path d="M664.337 435.199C663.319 434.805 663.753 434.205 664.066 433.612L653.463 442.347C653.645 443.43 653.808 444.519 653.983 445.605C653.691 445.714 653.398 445.825 653.106 445.934C652.953 444.976 652.749 444.046 652.508 443.133L630.62 461.164C630.754 461.172 630.877 461.18 631.018 461.191C631.475 461.224 631.94 461.197 632.393 461.263C633.474 461.419 633.889 462.641 633.226 463.157C629.637 465.949 630.511 470.143 630.028 473.86C629.937 474.558 629.764 475.152 629.528 475.676L634.582 476.566C634.427 474.692 635.049 473.241 636.184 471.938C637.071 470.92 638.04 471.212 638.068 472.57C638.099 474.209 638.366 475.765 638.728 477.295L638.917 477.328L668.226 453.182C668.148 451.343 668.373 449.488 668.853 447.638C669.128 446.579 668.739 445.644 669.229 444.346C670.459 446.585 670.077 449.063 670.471 451.227C670.476 451.257 670.482 451.288 670.487 451.319L677.243 445.753C677.277 444.793 677.607 443.83 678.288 443.045C679.594 441.538 679.95 440.062 679.988 438.134C680.025 436.36 680.54 435.085 681.392 434.393L676.362 433.508C675.862 434.733 675.206 435.921 674.974 437.202C674.879 437.714 674.248 437.869 673.788 437.665C673.496 437.537 673.101 437.266 673.057 436.983C672.964 436.368 672.99 435.693 673.1 435.065C673.224 434.362 673.292 433.665 673.316 432.972L667.51 431.95C667.312 432.668 666.855 433.376 666.344 434.112C665.764 434.949 665.166 435.514 664.343 435.195L664.337 435.199ZM639.057 467.676C638.779 467.629 638.468 467.31 638.334 467.011C638.173 466.655 638.329 466.263 638.708 466.06C639.277 465.978 639.522 466.36 639.589 466.911C639.642 467.336 639.442 467.744 639.057 467.676ZM663.911 447.95C663.072 448.469 662.787 447.477 662.526 446.819C662.254 446.133 661.951 445.208 662.671 444.75C663.573 444.175 663.731 445.236 663.998 445.878C664.132 446.593 664.705 447.46 663.911 447.95Z" fill="#7F2E00"/>
<path d="M698.217 456.813C698.225 456.836 698.308 457.845 698.772 458.496C701.265 461.995 698.984 465.071 697.776 468.214C697.514 468.898 696.884 469.537 696.1 469.382C695.28 469.218 695.22 468.391 695.097 467.607C694.744 465.353 693.93 463.162 694.993 460.784C695.293 460.115 695.119 459.418 694.856 458.776L683.559 468.083C684.598 469.613 684.98 471.746 685.142 473.769C685.281 475.528 685.696 477.017 686.606 478.384C688.048 480.551 688.536 483.263 689.482 485.715C689.532 485.844 689.568 485.976 689.596 486.111L703.919 474.311C703.288 472.686 702.828 470.94 701.434 469.905C700.776 469.417 700.254 468.425 701.062 467.589C701.83 466.793 702.95 466.023 703.869 467.004C705.118 468.334 706.354 469.563 708.082 470.049C708.262 470.098 708.434 470.274 708.576 470.474L739.873 444.693L737.289 444.239C737.456 445.346 737.296 446.091 736.582 446.862C735.992 445.899 736.059 445.119 736.584 444.116L716.87 440.646L698.065 456.137C698.117 456.344 698.167 456.565 698.221 456.816L698.217 456.813ZM716.43 442.445C717.083 444.365 716.833 446.48 718.58 447.167C717.689 450.89 719.005 455.089 716.309 458.403C715.874 458.937 715.298 459.579 714.415 459.286C714.771 456.488 715.155 453.714 714.693 450.875C714.244 448.102 714.367 445.275 716.43 442.445ZM710.046 461.864C710.483 460.915 710.454 459.025 711.805 459.302C713.305 459.609 712.289 461.262 712.275 462.287C712.253 463.843 712.224 465.436 711.653 466.953C711.377 467.684 710.862 467.918 710.265 467.942C709.776 467.961 709.401 467.674 709.209 467.133C708.574 465.248 709.291 463.499 710.046 461.864ZM703.515 460.537C704.364 460.706 704.602 461.332 704.427 462.194C704.394 462.354 704.065 462.45 703.872 462.577C703.837 461.882 703.025 461.396 703.515 460.539L703.515 460.537Z" fill="#7F2E00"/>
<path d="M680.388 470.694L670.804 478.588C671.095 480.412 671.604 482.016 672.671 483.272L684.49 485.351C684.311 481.662 683.119 478.254 681.751 475.182C681.119 473.765 680.795 472.208 680.388 470.694Z" fill="#7F2E00"/>
<path d="M-393.33 254.415L-391.442 252.86C-391.854 251.546 -393.029 250.476 -392.402 248.84C-391.985 247.751 -391.455 246.713 -390.943 245.656L-407.152 242.804L-415.582 249.749C-415.308 250.123 -415.057 250.499 -414.778 250.836C-414.482 251.194 -414.318 251.736 -414.823 252.123C-415.266 252.463 -415.747 252.239 -416.047 251.903C-416.35 251.562 -416.607 251.188 -416.823 250.773L-423.932 256.63L-428.661 283.52L-423.239 279.055C-423.261 279.008 -423.284 278.963 -423.303 278.916C-423.876 277.604 -423.25 275.366 -422.256 274.767C-421.756 274.609 -421.197 274.714 -421.183 275.291C-421.167 275.961 -421.083 276.582 -420.948 277.166L-402.043 261.594C-402.131 260.724 -401.685 260.009 -401.105 259.353C-400.787 258.994 -400.434 259.112 -400.267 259.482C-400.185 259.662 -400.138 259.832 -400.109 259.997L-394.309 255.222C-394.299 255.163 -394.291 255.102 -394.275 255.044C-394.057 254.206 -393.705 254.239 -393.328 254.413L-393.33 254.415ZM-404.198 247.069C-403.869 246.772 -403.586 247.101 -403.432 247.446C-403.165 248.047 -403.192 248.628 -403.633 249.125C-404.048 249.382 -404.3 249.211 -404.401 248.797C-404.545 248.205 -404.719 247.543 -404.196 247.07L-404.198 247.069ZM-405.593 262.883C-406.083 263.105 -406.398 262.646 -406.587 262.182C-406.882 261.453 -406.983 260.705 -406.148 260.297C-405.622 260.04 -405.372 260.529 -405.153 261.027C-404.957 261.703 -404.715 262.484 -405.593 262.883Z" fill="#7F2E00"/>
<path d="M754.151 481.052C753.31 479.21 753.651 476.244 755.032 474.83C755.437 474.414 755.887 474.055 756.317 473.627L759.75 454.099L756.375 456.879C756.327 457.616 755.846 458.028 755.237 458.269C755.006 458.361 754.786 458.386 754.593 458.345L746.476 465.034C746.673 465.697 746.589 466.37 746.468 467.018C746.066 469.147 746.077 471.156 747.067 473.026C748.308 475.374 745.921 476.403 745.327 478.237C745.19 476.174 744.682 474.43 743.84 472.654C742.978 470.833 742.711 469.282 742.999 467.899L721.423 485.671C721.484 485.685 721.535 485.707 721.598 485.718C723.007 485.961 723.495 487.812 723.253 489.145C723.076 490.127 722.983 491.122 722.92 492.12L738.239 494.817L740.97 492.567C739.319 490.7 738.499 488.146 738.301 485.295C738.22 484.112 738.041 482.73 739.423 482.388C740.564 482.108 741.279 483.078 741.775 484.145C741.879 484.368 741.993 484.635 741.978 484.876C741.835 487.162 742.589 488.884 743.661 490.35L754.411 481.496C754.314 481.365 754.223 481.217 754.149 481.054L754.151 481.052ZM733.932 490.36C733.845 490.4 733.668 490.158 733.531 490.043C733.651 489.872 733.749 489.614 733.897 489.558C734 489.519 734.173 489.76 734.315 489.875C734.191 490.047 734.089 490.286 733.932 490.36ZM735.442 484.404C734.417 484.722 733.672 484.195 733.172 483.233C732.775 482.467 732.425 481.668 731.76 480.264C731.835 480.444 731.577 480.005 731.472 479.518C731.337 478.899 731.277 478.173 731.954 477.839C732.467 477.585 732.819 478 732.995 478.483C733.404 479.607 733.985 480.351 735.155 480.569C736.197 480.762 736.462 481.839 736.441 482.952C736.428 483.689 736.03 484.221 735.442 484.404ZM755.019 469.427C755.024 469.237 755.227 468.93 755.381 468.882C755.509 468.844 755.697 469.108 755.856 469.24C755.784 469.461 755.764 469.8 755.634 469.877C755.261 470.096 755.007 469.858 755.019 469.427Z" fill="#7F2E00"/>
<path d="M-533.516 170.888L-533.414 170.87L-529.395 164.049C-529.859 163.549 -530.29 163.008 -530.732 162.484C-530.754 162.505 -530.773 162.529 -530.797 162.55L-530.799 162.43C-530.798 162.471 -530.799 162.551 -530.798 162.553C-530.84 162.539 -530.883 162.52 -530.923 162.503C-531.158 162.691 -531.386 162.895 -531.647 163.025C-531.981 163.192 -532.384 163.055 -532.455 162.646C-532.551 162.101 -532.125 162.106 -531.793 162.187C-531.499 162.259 -531.212 162.391 -530.924 162.506C-530.882 162.472 -530.842 162.439 -530.8 162.407C-530.779 162.433 -530.755 162.46 -530.734 162.485C-530.172 161.932 -529.857 161.162 -529.553 160.068C-528.938 160.827 -528.713 161.711 -528.534 162.584L-520.681 149.263C-524.11 148.763 -524.157 148.7 -524.441 145.261C-524.557 143.861 -524.558 142.437 -524.169 141.035C-521.375 142.865 -521.174 142.952 -521.983 145.663C-522.515 147.447 -521.161 147.984 -520.583 149.097L-507.801 127.416C-509.454 126.866 -510.864 125.959 -512.394 125.521C-513.425 125.226 -513.495 123.937 -513.985 123.063C-514.671 121.84 -515.735 121.459 -516.365 122.935C-517.284 125.085 -518.175 124.285 -519.129 122.969C-519.646 122.257 -520.027 121.422 -520.522 120.685C-520.917 120.096 -521.079 119.485 -520.789 118.873C-520.654 118.591 -520.481 118.352 -520.291 118.132L-523.243 118.654L-536.125 140.509C-535.046 142.155 -534.668 144.171 -534.282 146.151C-534.023 147.477 -534.23 148.478 -536.04 148.32C-537.302 148.209 -538.84 147.95 -540.25 149.075C-540.36 148.749 -540.481 148.431 -540.608 148.114L-556.417 174.932L-537.543 171.597C-536.913 170.65 -536.079 169.751 -535.618 169.691C-535.25 169.642 -534.354 170.199 -533.517 170.886L-533.516 170.888ZM-526.858 142.309C-526.618 141.989 -526.3 141.979 -525.883 142.478C-525.852 142.637 -525.636 143.074 -525.743 143.308C-525.997 143.863 -526.46 143.748 -526.819 143.331C-527.078 143.029 -527.087 142.616 -526.857 142.311L-526.858 142.309ZM-534.285 159.53C-533.963 159.338 -533.688 159.484 -533.501 159.796C-533.3 160.13 -533.303 160.501 -533.667 160.645C-533.824 160.708 -534.11 160.619 -534.243 160.481C-534.505 160.204 -534.495 159.85 -534.285 159.532L-534.285 159.53ZM-537.443 153.081C-536.241 153.98 -535.682 155.352 -535.763 157.197C-536.73 155.915 -537.259 154.729 -537.443 153.081Z" fill="#7F2E00"/>
<path d="M-474.452 110.039L-486.955 131.249C-486.832 131.69 -486.882 132.119 -487.351 132.465C-487.493 132.569 -487.631 132.612 -487.769 132.63L-507.624 166.314L-484.624 162.25L-451.451 105.975L-474.452 110.037L-474.452 110.039ZM-486.355 139.223C-487.327 137.747 -488.041 136.765 -488.642 135.702C-488.882 135.28 -488.847 134.65 -488.39 134.358C-487.912 134.053 -487.564 134.473 -487.257 134.861C-486.455 135.881 -485.961 137.005 -486.356 139.221L-486.355 139.223ZM-484.905 134.259C-485.084 134.156 -485.3 134.094 -485.436 133.942C-485.622 133.731 -485.565 133.512 -485.346 133.379C-485.166 133.469 -484.915 133.509 -484.826 133.666C-484.752 133.794 -484.871 134.057 -484.904 134.262L-484.905 134.259ZM-482.32 139.349C-482.766 139.023 -482.986 138.601 -482.676 138.054C-482.383 137.535 -481.879 137.452 -481.489 137.789C-480.387 138.742 -479.148 139.605 -478.725 141.95C-480.165 140.909 -481.246 140.131 -482.32 139.347L-482.32 139.349ZM-458.001 116.878C-458.576 117.435 -459.265 117.092 -459.861 116.706C-460.187 116.493 -460.231 116.102 -459.994 115.713C-459.449 115.245 -458.816 115.085 -458.181 115.58C-457.77 115.903 -457.634 116.52 -458.001 116.878Z" fill="#7F2E00"/>
<path d="M-410.715 98.7794C-410.731 98.9399 -410.745 99.1018 -410.823 99.1697C-410.921 99.2577 -411.162 99.1435 -411.339 99.1171C-411.326 99.0444 -411.317 98.9639 -411.31 98.884L-414.592 99.4644C-414.511 99.528 -414.428 99.5978 -414.346 99.6751C-413.74 100.252 -412.868 100.917 -413.39 101.875C-413.96 102.922 -414.796 102.082 -415.437 101.643C-416.053 101.222 -416.631 100.694 -416.541 99.8069L-425.663 101.419L-458.836 157.694L-435.835 153.63L-402.661 97.3542L-410.712 98.7762L-410.715 98.7794Z" fill="#7F2E00"/>
<path d="M-376.875 92.8019L-390.56 116.018C-390.333 116.39 -390.118 116.754 -389.868 117.073C-389.546 117.486 -389.776 118.063 -390.206 118.344C-390.536 118.562 -390.937 118.432 -391.108 118.086C-391.209 117.88 -391.309 117.672 -391.41 117.461L-410.048 149.079L-406.784 148.502C-406.905 148.079 -406.853 147.642 -406.448 147.25C-405.945 146.763 -405.423 147.013 -405.009 147.552C-404.869 147.736 -404.763 147.934 -404.701 148.134L-387.048 145.015L-353.875 88.7401L-376.875 92.8019ZM-382.825 116.351C-383.614 116.846 -384.32 118.935 -385.597 116.653C-386.126 115.709 -387.199 114.886 -386.385 113.593C-385.971 112.936 -382.781 113.948 -382.204 114.9C-381.738 115.67 -382.105 116.059 -382.825 116.351ZM-377.475 123.715C-377.687 124.074 -378.043 124.083 -378.344 123.748C-378.661 123.393 -378.67 122.295 -378.38 121.937C-378.08 121.688 -377.721 121.63 -377.46 121.952C-376.99 122.535 -377.157 123.173 -377.475 123.713L-377.475 123.715ZM-377.342 101.193C-377.637 101.194 -377.959 100.929 -378.233 100.721C-378.274 100.69 -378.119 100.311 -378.055 100.094C-377.681 99.9219 -377.387 100.136 -377.155 100.44C-376.884 100.791 -376.857 101.191 -377.344 101.193L-377.342 101.193Z" fill="#7F2E00"/>
<path d="M-328.087 84.1847L-361.26 140.46L-338.259 136.398L-337.498 135.106C-337.543 135.068 -337.585 135.042 -337.632 134.995C-337.688 134.789 -337.949 134.291 -337.839 134.133C-337.573 133.746 -337.199 133.777 -336.855 134.014L-305.086 80.1229L-328.087 84.1847ZM-345.204 128.162C-345.591 128.551 -346.041 128.146 -346.434 127.842C-346.726 127.304 -347.142 126.713 -346.506 126.211C-346.11 125.898 -345.576 126.036 -345.266 126.448C-344.878 126.966 -344.722 127.679 -345.204 128.162Z" fill="#7F2E00"/>
<path d="M-263.38 77.8737C-262.891 77.6127 -263.334 76.3039 -263.856 76.3718C-266.147 76.6755 -267.83 74.8608 -269.813 73.8915L-271.654 74.216C-271.922 75.9581 -271.285 77.4641 -270.118 78.6552C-268.886 79.9151 -268.873 81.1006 -269.55 82.4505C-270.21 83.7652 -270.058 85.1106 -269.935 86.5861C-269.723 89.1412 -269.694 91.715 -269.722 94.2769L-262.391 81.8406C-262.726 81.3749 -263.061 80.9091 -263.418 80.4639C-264.178 79.5171 -265.03 78.7478 -263.379 77.8711L-263.38 77.8737Z" fill="#7F2E00"/>
<path d="M-274.136 98.8781C-273.86 98.4057 -273.204 98.2088 -272.694 97.9504C-271.954 97.5767 -271.721 96.9235 -271.895 96.0646C-272.659 92.301 -271.634 88.5468 -272.335 84.7795C-272.428 84.2857 -272.499 83.5659 -272.267 83.2693C-270.62 81.1466 -271.389 79.5841 -272.978 77.6826C-273.58 76.9629 -273.971 75.8683 -274.175 74.6625L-279.295 75.5663L-297.431 106.33C-297.451 106.506 -297.528 106.648 -297.669 106.734L-312.469 131.842L-289.469 127.78L-281.536 114.326C-280.582 108.207 -276.996 103.77 -274.131 98.8791L-274.136 98.8781ZM-294.741 109.909C-295.21 110.118 -295.702 109.686 -295.856 109.209C-296.464 107.319 -295.097 107.223 -294.171 106.574C-293.438 108.119 -293.341 109.29 -294.741 109.911L-294.741 109.909Z" fill="#7F2E00"/>
<path d="M-224.142 90.8163C-224.528 90.4558 -224.578 89.9737 -224.27 89.4703C-223.876 89.1091 -223.482 89.1499 -223.102 89.332L-207.511 62.8864L-219.99 65.091C-219.837 65.1687 -219.685 65.2533 -219.534 65.3474C-218.658 65.89 -218.851 66.5786 -219.293 67.2838C-220.417 69.0707 -220.238 70.8417 -219.205 72.7576C-218.664 73.7572 -218.844 74.9896 -218.937 76.1195C-218.943 76.2016 -219.37 76.3354 -219.53 76.251C-220.814 75.5808 -221.117 74.1207 -220.995 72.9246C-220.783 70.8574 -221.11 69.0598 -222.077 67.2739C-222.407 66.6628 -222.31 66.034 -222.012 65.4516L-230.51 66.9524L-248.354 97.2202C-248.407 97.4127 -248.459 97.6072 -248.514 97.8003C-248.88 99.1026 -249.731 100.199 -249.877 101.784C-250.201 101.666 -250.52 101.543 -250.825 101.415L-255.228 108.883C-254.59 108.874 -254.025 109.076 -253.535 109.863C-252.693 111.211 -253.94 112.19 -254.625 113.732C-255.038 112.605 -255.826 112.024 -256.622 111.246L-263.685 123.228L-240.684 119.166L-224.03 90.9113C-224.068 90.8821 -224.105 90.855 -224.142 90.8211L-224.142 90.8163ZM-234.636 88.9723C-235.555 90.1901 -236.568 89.5399 -237.284 88.6253C-238.478 87.1068 -239.124 85.3226 -238.686 82.9289C-236.867 83.4405 -236.087 84.9287 -234.87 85.6908C-233.498 86.5528 -233.812 87.8776 -234.635 88.9696L-234.636 88.9723Z" fill="#7F2E00"/>
<path d="M-164.996 59.3058C-165.031 59.2802 -165.068 59.2552 -165.104 59.2275C-165.074 59.2184 -165.047 59.2029 -165.019 59.1917C-165.786 58.188 -166.556 57.1622 -166.89 55.8856C-166.908 55.8247 -166.922 55.7744 -166.938 55.7177L-178.745 57.8027C-178.734 57.822 -178.725 57.8398 -178.718 57.856C-178.231 59.5002 -179.272 60.6471 -179.644 62.0129C-179.655 62.0576 -180.193 62.0208 -180.24 61.9031C-180.844 60.4232 -179.959 59.4238 -179.638 57.9599L-181.719 58.3277L-214.892 114.603L-204.035 112.686C-203.961 112.626 -203.884 112.565 -203.806 112.511C-203.211 112.089 -202.827 112.151 -202.529 112.421L-191.892 110.541L-186.921 102.109C-187.436 101.556 -187.953 101.01 -188.455 100.446C-188.862 99.9913 -189.244 99.3371 -188.658 98.7832C-188.279 98.4245 -187.756 98.628 -187.377 98.968C-186.85 99.4398 -186.381 99.9478 -185.971 100.497L-163.639 62.6137C-164.432 61.7479 -165.121 60.8316 -164.993 59.3025L-164.996 59.3058ZM-190.591 94.1876C-188.275 92.4741 -187.746 94.9366 -186.259 95.856C-187.605 95.9376 -189.049 95.3814 -190.591 94.1876ZM-184.51 85.4914C-184.556 85.5723 -185.139 85.3829 -185.36 85.1669C-185.715 84.8194 -185.872 84.2907 -185.622 83.8104C-185.407 83.398 -185.088 83.5171 -184.785 83.8764C-184.612 84.3841 -184.177 84.9051 -184.509 85.4935L-184.51 85.4914ZM-175.075 61.3505C-173.919 63.3352 -173.357 65.2782 -171.676 66.9816C-174.343 66.1359 -175.223 64.6125 -175.075 61.3505ZM-167.255 66.6512C-167.772 67.3867 -168.61 67.0856 -169.041 66.4516C-169.647 65.557 -170.491 65.1848 -171.236 64.5873C-171.748 64.177 -171.811 63.505 -171.619 62.9056C-171.36 62.4727 -170.903 62.3772 -170.733 62.68C-170.021 63.9502 -168.852 63.8868 -167.843 64.3671C-167.142 64.7021 -166.634 65.769 -167.255 66.6512Z" fill="#7F2E00"/>
<path d="M-133.489 84.5636C-133.951 83.9208 -133.993 83.0798 -132.41 82.4963C-132.326 82.4652 -132.261 82.4267 -132.205 82.3863L-131.997 82.0332C-131.942 81.4952 -132.599 80.6944 -132.627 80.0797C-132.67 79.1067 -132.657 78.116 -131.647 77.9429C-130.842 77.8042 -130.605 78.5201 -130.375 79.2836L-110.621 45.7739L-115.3 46.6012C-115.34 46.8969 -115.484 47.175 -115.735 47.4045C-116.148 47.783 -116.549 47.669 -116.907 47.2107C-116.957 47.11 -117.002 47.0096 -117.04 46.9075L-133.622 49.8358L-135.079 52.31C-134.952 52.7929 -134.832 53.3124 -134.686 53.8535C-135.092 53.7185 -135.414 53.5387 -135.682 53.3328L-140.892 62.1687C-140.907 62.3127 -140.953 62.4527 -141.042 62.5811C-141.116 62.689 -141.196 62.7644 -141.279 62.8292L-151.734 80.5648C-151.556 80.7876 -151.372 81.0082 -151.168 81.2183C-151.54 81.3102 -151.868 81.3286 -152.174 81.3127L-166.794 106.113L-150.534 103.24C-150.669 102.899 -150.744 102.506 -150.806 102.129C-150.908 101.512 -151.179 100.85 -150.568 99.8295C-149.965 100.296 -149.453 100.617 -149.02 101.043C-148.468 101.589 -148.305 102.225 -148.456 102.873L-143.796 102.05L-133.49 84.5663L-133.489 84.5636ZM-130.968 53.9149C-130.662 53.4787 -130.408 53.8397 -130.238 54.1542C-130.127 54.3612 -129.991 54.7457 -130.07 54.8527C-130.381 55.2679 -130.59 54.7716 -130.83 54.6527C-130.888 54.3742 -131.05 54.03 -130.968 53.9149ZM-138.493 60.1938C-138.269 59.7009 -137.896 59.8351 -137.663 60.1206C-137.463 60.3662 -137.268 60.8485 -137.348 61.1019C-137.479 61.5313 -137.905 61.4617 -138.212 61.2086C-138.513 60.9628 -138.597 60.5919 -138.492 60.1912L-138.493 60.1938ZM-139.532 69.0931C-139.43 68.4626 -139.346 67.7512 -138.726 67.5293C-137.948 67.2508 -137.396 67.8815 -136.977 68.4921C-136.632 68.9935 -136.183 69.7524 -136.285 70.2297C-136.705 72.1724 -135.981 74.0144 -135.568 76.5087C-138.847 74.2356 -139.986 71.8754 -139.532 69.0931ZM-141 65.2264C-141.018 66.0677 -140.831 67.0072 -141.897 67.1156C-141.997 67.1265 -142.238 66.7361 -142.255 66.5247C-142.337 65.541 -141.743 65.3155 -141 65.2264ZM-146.37 79.7602C-145.886 79.2199 -145.33 79.5457 -144.873 80.0529C-144.498 80.5906 -144.101 81.2334 -144.526 81.803C-145.03 82.4795 -145.838 82.3267 -146.386 81.8137C-147.039 81.2034 -146.889 80.3389 -146.37 79.7602ZM-149.627 97.4765C-150.568 97.9797 -151.35 97.7069 -151.966 96.699C-152.266 96.2087 -152.263 95.6688 -151.896 95.3409C-151.189 94.715 -150.401 95.0727 -149.687 95.4924C-149.309 95.7142 -149.006 96.1079 -148.402 96.6718C-149.061 97.107 -149.333 97.3179 -149.628 97.4744L-149.627 97.4765Z" fill="#7F2E00"/>
<path d="M-108.069 95.7353C-108.127 94.6734 -108.008 93.6289 -108.815 92.6558C-109.641 91.6593 -109.154 90.5791 -108.34 90.0129C-107.619 89.5102 -106.669 89.8561 -106.157 90.6293C-105.272 91.9661 -104.434 93.368 -104.082 95.0297L-95.004 93.4268L-80.3966 68.6464C-80.5029 68.4446 -80.6116 68.248 -80.7123 68.0376C-80.451 68.0012 -80.2108 67.9669 -79.9761 67.9344L-63.8532 40.5818C-64.6173 39.7735 -64.8177 38.8201 -64.9738 37.7067L-84.8337 41.2142L-103.979 73.6925C-103.861 73.7468 -103.756 73.851 -103.686 73.9935C-103.379 74.6369 -102.742 75.3368 -103.444 76.0366C-103.565 76.1567 -104.045 75.8144 -104.249 75.73C-104.461 75.4493 -104.618 75.181 -104.702 74.9221L-118.006 97.4913L-108.07 95.7359L-108.069 95.7353ZM-74.8772 46.1686C-74.4982 45.7253 -73.9598 45.2777 -73.5257 45.9978C-73.1908 46.555 -73.5045 47.2312 -73.8505 47.7143C-74.1518 48.1378 -74.5758 48.2092 -75.0145 47.8399C-75.4208 47.2116 -75.2819 46.6404 -74.8772 46.1686ZM-79.0652 45.4644C-78.8764 45.4097 -78.6134 45.2381 -78.5123 45.3228C-78.265 45.5329 -77.9314 45.8667 -77.9281 46.1397C-77.9233 46.6155 -78.3 46.615 -78.6083 46.3784C-78.8817 46.1673 -79.1529 45.9144 -79.0652 45.4644ZM-87.4779 50.6516C-87.1098 50.8261 -86.9739 51.1968 -87.295 51.5146C-87.3939 51.6141 -87.753 51.5213 -87.8967 51.3837C-88.035 51.2513 -88.049 50.9474 -88.1156 50.7171C-87.9016 50.6887 -87.6565 50.5661 -87.4785 50.6495L-87.4779 50.6516Z" fill="#7F2E00"/>
<path d="M-63.6147 87.8827C-63.7471 87.6228 -63.8395 87.2659 -63.6044 86.9523C-63.3302 86.5876 -63.0402 87.0058 -62.8394 87.2694C-62.7387 87.4022 -62.6296 87.5438 -62.5423 87.6922L-46.2162 84.8075L-43.19 79.6738C-43.837 78.6049 -44.4872 77.5392 -45.0946 76.4419C-45.4232 75.8508 -45.4021 75.0928 -45.0112 74.5933C-44.5744 74.0383 -43.9984 74.3599 -43.4347 74.6237C-42.5674 75.0297 -41.8195 75.5897 -41.1748 76.2551L-16.9731 35.1991C-17.0475 34.9553 -17.1831 34.621 -17.1151 34.3622C-17.0071 33.956 -16.6245 33.9067 -16.4041 34.2326L-15.7829 33.1766C-16.6134 32.3297 -17.5537 31.5013 -18.0393 30.3018C-16.439 30.4663 -15.0655 30.9669 -13.9322 29.8073C-13.8553 29.7283 -13.7748 29.6688 -13.6915 29.6267L-13.0446 28.5284L-36.0453 32.5902L-38.7424 37.1662C-37.9344 38.1092 -37.2416 39.1295 -36.8701 40.4311C-36.3931 42.1015 -36.5719 43.9846 -36.4283 46.1547C-39.3034 44.2665 -38.0956 40.8455 -39.9602 39.2316L-40.7594 40.5855C-40.5828 41.0804 -40.3522 41.5698 -40.5726 41.9496C-40.9897 42.1445 -41.3676 42.069 -41.4991 41.8408L-69.2198 88.8658L-63.6164 87.8764L-63.6147 87.8827ZM-26.7283 36.6011C-26.4226 36.1581 -25.9628 36.2215 -25.5167 36.4195C-25.4347 36.6267 -25.237 36.9003 -25.29 37.0289C-25.5172 37.5752 -26.017 37.5106 -26.4397 37.424C-26.8376 37.3411 -26.9575 36.9357 -26.7277 36.6032L-26.7283 36.6011ZM-30.4115 39.0636C-30.052 38.6288 -29.7214 38.0271 -29.0487 38.291C-28.7033 38.4269 -28.4438 38.8707 -28.6274 39.1841C-28.9964 39.8183 -29.5246 40.2879 -30.2857 40.0061C-30.6976 39.7107 -30.6457 39.345 -30.4115 39.0636ZM-31.3566 43.7519C-31.3103 43.5638 -31.0702 43.445 -30.9133 43.2976C-30.8473 43.5327 -30.7028 43.7933 -30.7449 43.9961C-30.7808 44.1718 -31.0294 44.2818 -31.1831 44.4191C-31.2505 44.1936 -31.4023 43.9352 -31.3566 43.7519ZM-42.8139 49.0453C-41.5491 51.0645 -39.8132 51.8532 -40.074 54.4609C-41.7836 53.2436 -42.6686 51.8566 -42.8139 49.0453ZM-43.2613 60.4468C-41.2225 60.5353 -41.1388 58.6592 -40.6313 57.1913C-40.6379 57.1751 -40.6463 57.1595 -40.6546 57.1438L-40.6364 57.1381C-40.6254 57.1346 -40.6163 57.1318 -40.6054 57.1284C-39.7474 56.3086 -39.517 54.8775 -38.233 54.1205C-38.4005 55.9589 -39.4155 56.6224 -40.6054 57.1284C-40.6091 57.1295 -40.6098 57.1343 -40.6128 57.1375C-40.6196 57.1556 -40.6258 57.1759 -40.6308 57.1934C-40.4163 57.6605 -39.9614 58.285 -40.0803 58.5324C-41.3978 61.2731 -39.9341 63.4011 -38.801 65.6922C-38.247 66.8109 -37.7397 68.2502 -38.9224 69.2198C-40.144 70.2199 -41.2886 70.1111 -42.6102 68.7858C-43.7498 67.6431 -44.4637 66.449 -44.6996 64.8468C-44.7928 64.2115 -44.6924 63.5383 -44.8397 62.9222C-45.4498 60.3756 -45.4732 60.3487 -43.2594 60.4462L-43.2613 60.4468ZM-49.5504 73.4924C-49.1966 73.016 -48.7711 73.1405 -48.3862 73.4239C-48.0285 73.6884 -47.6372 74.0794 -47.9252 74.5786C-48.0173 74.7377 -48.5364 74.654 -48.8275 74.549C-49.2491 74.3959 -49.6553 74.1351 -49.5516 73.4951L-49.5504 73.4924ZM-53.6816 80.204C-53.5952 79.9257 -53.3905 79.85 -53.192 80.1051C-52.9738 80.3883 -52.7892 80.7346 -52.6769 81.0853C-52.5859 81.3741 -52.7979 81.6143 -53.0398 81.4869C-53.4964 81.2443 -53.6336 80.7347 -53.6816 80.204ZM-63.4669 80.807C-62.9552 80.5117 -62.5932 80.8548 -62.2929 81.2675C-62.0022 81.6672 -61.7298 82.228 -62.168 82.5734C-62.5672 82.8883 -63.0593 82.5266 -63.3859 82.1541C-63.7354 81.7568 -63.7891 81.2621 -63.4669 80.807Z" fill="#7F2E00"/>
<path d="M0.555559 76.547C-0.602903 75.6546 -0.665578 75.4528 -1.34425 73.156C-0.503881 74.2145 0.346895 75.1053 0.8109 76.5034L2.57296 76.1923L35.7457 19.9174L12.7451 23.9792L7.13457 33.4982C7.23278 33.6432 7.33104 33.7882 7.4378 33.9283C7.22668 33.9671 7.02469 33.9963 6.82276 34.0254L-8.17308 59.4621C-7.80281 61.4583 -7.47136 63.4713 -7.69216 65.5297C-7.79006 66.4374 -7.66891 67.2854 -8.5478 67.8331C-9.67689 68.5347 -10.2321 67.4049 -10.9983 66.9352C-11.4558 66.6541 -11.6558 66.1962 -11.6046 65.616C-11.4279 65.0102 -10.9237 65.0551 -10.4991 64.9082C-9.93552 64.713 -8.92352 65.2882 -8.96736 63.9957C-9.00639 62.8615 -9.60441 62.878 -10.3253 63.1203L-20.4271 80.2563L0.556177 76.5491L0.555559 76.547ZM18.7413 27.064C18.7933 26.0703 19.1583 25.3162 19.9813 24.9643C20.7652 24.6291 21.2648 25.3492 21.8753 25.829C22.62 26.9494 23.3326 28.1736 24.18 29.2642C25.1875 30.5579 25.4907 31.7645 24.4199 33.062C23.2068 34.5299 21.6039 33.2974 21.0435 32.6147C19.8374 31.1435 18.6206 29.3445 18.7407 27.0619L18.7413 27.064ZM19.6473 42.3385C17.5666 42.0303 16.9713 41.3859 14.9025 37.139C16.8016 39.2216 18.1236 40.6679 19.6473 42.3385ZM4.2367 57.9416C4.39901 58.0962 4.63666 58.2225 4.69819 58.4133C4.75027 58.5705 4.59463 58.8067 4.53243 59.0089C4.38586 58.8539 4.20635 58.723 4.10297 58.5385C3.94825 58.2628 4.01598 58.0451 4.2367 57.9416ZM4.0589 61.4801C4.41502 60.8636 4.82527 61.308 5.14889 61.5992C5.57594 61.9836 6.15302 62.4715 5.83407 63.1357C5.5989 63.6252 5.03257 63.3873 4.61967 63.131C4.03673 62.7705 3.84594 62.2252 4.0589 61.4801Z" fill="#7F2E00"/>
<path d="M61.533 15.3599L57.2958 22.5477C57.5027 23.193 57.6792 23.8638 57.8271 24.5527C57.9692 25.207 58.0029 25.8564 58.4649 26.2594C60.6423 28.1542 60.4389 31.2486 61.6244 33.642C61.9458 34.2924 61.2731 34.4306 60.9036 34.6607C60.9036 34.6607 60.9042 34.6628 60.9047 34.6649C60.9053 34.667 60.906 34.6691 60.909 34.6727C61.7446 35.1778 62.5802 35.7467 63.0611 36.6828C64.0408 38.5905 65.2443 40.1584 66.8842 41.2331L84.5313 11.2965L61.5312 15.3604L61.533 15.3599ZM63.0534 27.0343C62.9138 27.1374 62.5995 27.1333 62.4629 27.0209C62.2052 26.8095 61.9082 26.4506 62.3652 26.1792C62.5028 26.0972 62.7833 26.306 62.9984 26.3801C63.2093 26.5948 63.2648 26.8765 63.0534 27.0343ZM68.2635 20.7696C69.1482 24.0614 70.0312 27.3536 70.9519 30.7802C69.2312 29.1988 67.9068 25.0334 68.2635 20.7696Z" fill="#7F2E00"/>
<path d="M60.8975 34.6672C60.8975 34.6672 60.9029 34.6655 60.9047 34.6649C60.6135 33.3313 59.6196 32.3758 59.6352 30.7586C59.6515 29.1367 59.001 27.4134 57.2596 26.7108C56.4167 26.3703 56.0572 25.7044 55.9268 24.8729L28.3608 71.6369L45.8181 68.5525C45.4481 67.5313 45.7233 66.7324 46.5228 66.1138C46.7679 66.288 46.9129 66.3316 46.9492 66.4252C47.2079 67.1136 47.2653 67.7625 47.0495 68.3349L51.3609 67.573L66.3163 42.2038C64.1667 40.0125 62.5612 37.3239 60.9113 34.6743C60.9065 34.6712 60.9041 34.6697 60.8993 34.6666L60.8975 34.6672Z" fill="#7F2E00"/>
<path d="M105.18 18.1514C106.268 20.2809 107.506 21.8311 109.699 22.7251C111.763 23.5663 111.981 25.1193 110.992 27.0397C110.17 28.6382 109.64 28.6747 108.404 27.3658C107.763 26.6855 107.577 25.764 107.133 24.9855C106.707 24.2399 106.056 23.9306 105.334 23.9585C104.42 23.992 104.418 24.8329 104.274 25.6113C104.031 26.9138 104.526 28.8938 102.959 29.1891C101.129 29.533 100.498 27.4907 99.7122 26.0543C99.5862 25.8244 99.4699 25.5869 99.3506 25.3526L77.147 63.0203L97.545 59.4169C97.0406 58.6869 96.4898 58.0034 95.8091 57.4429C95.247 56.9799 94.613 56.1695 94.0767 56.2077C91.798 56.3658 91.7594 55.3251 92.6162 53.4987C92.9778 52.7252 92.882 51.8121 92.0234 51.6134C90.4302 51.2412 90.3982 49.5955 89.5187 48.6658C89.6994 48.4766 89.8784 48.288 90.0591 48.0988C91.4645 49.2563 92.9311 50.3282 94.2575 51.5927C95.573 52.8468 96.977 53.7101 98.656 53.7243C100.281 53.7371 101.355 54.35 101.774 56.2008L108.687 44.4734C108.502 44.1113 108.326 43.7552 108.04 43.5392C108.414 43.5999 108.724 43.7399 109.003 43.9355L133.32 2.68345L110.32 6.74531L104.262 17.0214C104.647 17.3069 104.942 17.6917 105.177 18.1546L105.18 18.1514ZM90.3689 55.2158C90.3647 55.5323 90.0495 55.6312 89.8874 55.3715C89.699 55.0676 89.636 54.6671 89.539 54.371C89.6969 54.0086 89.957 53.9041 90.1052 54.1567C90.2798 54.4536 90.3735 54.865 90.3689 55.2158ZM95.1829 40.4043C95.1292 40.5239 94.7852 40.5976 94.6593 40.5161C94.3682 40.3266 94.1702 40.0097 94.3231 39.5803C94.4705 39.5546 94.6932 39.4298 94.815 39.5104C95.0976 39.698 95.3622 40.0054 95.1829 40.4043ZM100.751 40.9972C100.717 41.307 100.519 41.4285 100.313 41.2237C100.195 41.1077 100.204 40.8217 100.157 40.6126C100.327 40.4041 100.508 40.4135 100.669 40.6622C100.727 40.7511 100.763 40.8908 100.751 40.9972ZM105.419 47.1525C105.43 47.1628 105.441 47.1731 105.452 47.1834L105.344 47.2034C105.344 47.2034 105.452 47.1834 105.444 47.1857C105.409 47.2357 105.374 47.2878 105.339 47.3399C105.316 48.0345 105.29 48.7756 105.238 50.2833C104.695 48.6679 104.93 47.9592 105.339 47.3399C105.34 47.2939 105.343 47.2473 105.344 47.2034C105.37 47.1886 105.394 47.1695 105.42 47.1546C105.073 46.8249 104.759 46.3776 104.365 46.2138C101.9 45.1879 102.172 42.9239 102.231 40.77C102.245 40.2679 102.448 39.7633 103.05 39.8894C103.541 39.9933 104.057 40.4595 103.938 40.8966C103.319 43.1737 104.528 44.4108 105.889 45.7468C106.409 46.2594 105.926 46.8266 105.42 47.1546L105.419 47.1525ZM99.2017 30.2362C101.982 30.7702 103.697 32.7759 105.415 35.0546C102.651 33.9172 100.58 32.3111 99.2017 30.2362Z" fill="#7F2E00"/>
<path d="M142.235 32.3278C142.262 32.2759 142.29 32.2282 142.316 32.1742C142.333 32.1918 142.349 32.2073 142.364 32.2254C143.575 28.808 145.265 26.1011 148.809 25.2672C150.35 24.9044 152.521 24.376 151.743 21.3728C153.1 21.1865 153.848 22.5092 154.961 22.7081C153.959 27.2018 151.496 29.4935 147.67 30.2517C146.622 30.4596 145.716 31.4632 144.781 32.1633C143.98 32.7619 143.212 33.1173 142.366 32.2248C142.355 32.2557 142.343 32.2845 142.334 32.3148C142.334 32.3148 142.335 32.319 142.336 32.3211C142.302 32.3204 142.27 32.3259 142.236 32.3272C140.626 35.3449 139.361 36.2694 136.957 35.7063L125.938 54.3977L132.82 53.1828C132.046 52.4804 131.375 51.5721 131.183 50.8192C131.074 50.3877 131.138 50.0365 131.392 49.7832C132.022 49.1538 132.827 48.8096 133.594 49.3248C134.665 50.046 135.632 50.971 136.64 51.8147C136.661 51.783 136.681 51.7471 136.706 51.7164C136.741 51.7441 136.777 51.7649 136.812 51.7905C138.53 50.3057 137.354 47.6078 138.626 45.5596C139.279 47.305 140.726 46.0972 141.557 46.848C142.423 47.6291 142.866 49.2643 144.179 47.7286C144.529 49.327 145.818 49.5 146.841 50.0787C146.865 50.0459 146.891 50.0173 146.916 49.9845L146.916 50.1192C146.916 50.1192 146.916 49.9845 146.915 49.9913C146.951 50.0349 146.984 50.0816 147.019 50.1257C147.696 50.1802 148.386 50.1167 149.072 50.1093L160.378 30.9303C160.176 29.9913 160.27 28.9934 160.711 28.4736C161.134 28.0689 161.503 28.1176 161.863 28.4133L182.115 -5.94236L159.114 -1.88053L137.169 35.3453C139.09 34.3516 140.152 32.3808 142.237 32.3225L142.235 32.3278ZM172.761 -3.05409C173.147 -4.43348 174.183 -4.73348 175.102 -3.62463C176.052 -2.47952 176.684 -1.02888 178.128 0.061609C176.719 0.0906042 175.707 0.152329 174.692 0.121718C173.032 0.0695666 172.255 -1.23708 172.762 -3.05199L172.761 -3.05409ZM160.755 9.11647C161.521 8.37818 162.222 7.81578 162.652 6.64395C163.187 5.18123 164.401 5.26359 165.354 6.57449C166.203 7.73998 166.452 9.18022 166.807 10.5694C167.343 12.6778 166.462 14.8545 167.621 17.0463C168.129 18.0081 166.875 19.2123 165.955 20.4191C165.2 18.2013 165.256 15.7697 162.964 15.2013C162.375 15.4114 162.517 15.9969 162.502 16.4928C162.46 17.8898 161.839 18.0024 160.94 17.2913C158.782 15.5846 158.628 11.1614 160.755 9.11437L160.755 9.11647ZM157.359 29.1465C156.674 29.8961 155.867 30.3047 154.944 29.4732C154.551 29.1192 154.383 28.6352 154.676 28.025C155.462 27.255 156.326 27.6918 157.157 28.171C157.486 28.3623 157.623 28.856 157.361 29.1438L157.359 29.1465Z" fill="#7F2E00"/>
<path d="M180.948 35.2248L174.725 45.781L197.725 41.7192L211.683 18.0425C211.249 17.2289 210.892 16.4023 210.647 15.497C210.428 14.6888 210.684 14.154 211.538 14.5804C212.141 14.8818 212.663 15.0721 212.729 14.058C212.768 13.4544 212.423 12.955 211.966 12.8794C208.416 12.2877 208.317 8.88638 207.503 6.07945C207.361 5.5895 207.321 4.99464 207.898 4.78857C208.37 4.61986 208.856 4.80734 209.154 5.23019C209.588 5.84517 209.807 6.69667 210.307 7.19968C212.425 9.3257 214.256 9.40384 215.445 6.29012C215.663 5.71708 215.551 4.95071 215.809 4.41738C216.515 2.95584 217.406 1.53212 216.091 -0.121885C214.988 -1.50895 213.339 -1.02576 211.974 -1.51967C210.503 -2.04909 210.56 0.0111292 210.276 1.07539C209.088 1.24752 209.138 0.190425 208.802 -0.40527C207.686 -2.38201 206.106 -3.60131 204.409 -4.56901L182.098 33.2809C181.987 34.2592 181.656 34.959 180.951 35.2284L180.948 35.2248ZM199.771 25.8013C199.293 23.8183 198.95 22.3845 198.576 20.8279C201.326 22.1776 201.548 22.898 199.771 25.8013ZM202.879 26.2324C202.879 26.2324 202.884 26.2217 202.886 26.2143L202.887 26.2185C202.887 26.2185 202.889 26.2269 202.89 26.2311C203.703 27.7048 205.015 26.5895 206.001 27.157C204.694 28.3986 203.657 28.0899 202.89 26.2311C202.89 26.2311 202.887 26.2253 202.886 26.2232C202.883 26.2265 202.88 26.2297 202.879 26.2324C201.65 29.514 199.326 31.1363 195.64 32.0855C198.037 29.1795 200.949 28.4506 202.879 26.2324ZM188.509 23.1385C188.607 23.0849 188.856 23.3631 189.034 23.4898C189.147 23.8516 189.307 24.2561 188.924 24.4675C188.83 24.52 188.519 24.2728 188.411 24.0895C188.221 23.7634 188.131 23.344 188.51 23.1406L188.509 23.1385ZM189.546 37.5019C189.546 37.5019 189.544 37.3768 189.544 37.3678C189.58 37.3543 189.608 37.343 189.642 37.3301C190.671 35.5159 192.351 34.7351 194.27 33.6734C192.995 35.944 192.66 36.2025 189.642 37.3301C189.617 37.3745 189.591 37.4169 189.568 37.4607C189.92 38.6498 190.501 39.8602 189.487 41.0397C187.835 40.044 187.447 38.138 186.284 36.7513C187.844 35.4531 188.589 37.0373 189.544 37.5025L189.546 37.5019Z" fill="#7F2E00"/>
<path d="M219.386 -7.96857C218.036 -4.69941 219.806 -1.74953 220.558 1.28707C220.647 1.64727 220.786 1.99417 220.939 2.33914L230.898 -14.5558L222.124 -13.0051C222.011 -12.8576 221.897 -12.7123 221.787 -12.5702C220.721 -11.2036 220.059 -9.58883 219.386 -7.96646L219.386 -7.96857Z" fill="#7F2E00"/>
<path d="M244.516 33.4529C244.089 33.0479 243.664 32.6562 243.198 32.3477C242.094 31.612 242.369 30.2146 242.903 29.2136C243.432 28.2184 244.298 27.9854 245.241 28.8497C245.422 29.0143 245.629 29.1435 245.827 29.2846C246.583 29.8237 247.757 29.2563 248.434 29.8433L257.585 14.3189C257.292 13.9768 257.188 13.5208 257.501 12.7627C258.84 9.50596 257.372 6.58896 256.094 3.71551C254.109 -0.740421 252.161 -5.16925 254.182 -10.2979C253.429 -10.7579 252.627 -10.7461 251.838 -10.8867L223.514 37.1637L244.516 33.4529ZM240.027 28.8763C239.181 29.4686 238.501 28.6292 238.006 27.919C237.587 27.3173 237.25 26.5828 237.056 25.8559C236.716 24.5762 236.692 23.2135 236.067 21.9027C237.185 23.7188 238.883 24.7731 239.857 26.5409C240.242 27.24 241.01 28.1888 240.025 28.8768L240.027 28.8763Z" fill="#7F2E00"/>
<path d="M258.964 -4.72203C259.304 -3.54962 258.421 -2.97123 257.618 -2.36039C255.776 -0.962498 255.534 -0.237815 257.02 1.65929C259.31 4.58299 260.06 7.56999 259.727 10.6843L270.497 -7.58644C268.663 -8.72358 268.555 -9.63267 268.905 -12.3233C270.073 -11.4544 270.673 -10.284 271.294 -8.93502L279.689 -23.1763L256.689 -19.1144L254.044 -14.6279C257.684 -12.6852 257.902 -8.3919 258.966 -4.72259L258.964 -4.72203ZM267.519 -4.85878C267.717 -5.04206 267.905 -4.97315 268.045 -4.69496C268.169 -4.41429 268.111 -4.16097 267.861 -4.1555C267.717 -4.15363 267.545 -4.38982 267.419 -4.54896C267.388 -4.59152 267.452 -4.79432 267.519 -4.85669L267.519 -4.85878Z" fill="#7F2E00"/>
<path d="M276.892 21.8324C276.892 21.8324 276.891 21.8419 276.889 21.8472C276.538 23.1746 275.975 24.0865 275.272 24.5814L273.01 28.4202L296.01 24.3562L296.278 23.8997C296.099 23.8554 295.908 23.8014 295.688 23.7332C295.038 23.5264 294.656 23.7833 294.127 23.8852C292.39 24.2205 289.369 22.2091 288.649 20.4004C288.209 19.2917 289.127 18.2819 290.401 18.4347C291.674 18.5875 292.641 19.9033 294.107 19.9178C294.748 18.4378 293.288 17.1765 294.036 16.2406C296.33 13.3693 295.053 8.73897 297.524 5.85549C298.518 7.04391 297.693 7.74136 297.506 8.54447C296.993 10.7404 295.926 12.8909 297.4 15.251C297.572 15.5258 297.668 16.1214 297.529 16.3339C296.365 18.1313 297.091 19.961 297.495 21.837L320.404 -17.025C320.032 -18.2579 320.092 -19.5878 320.597 -21.0091C321.608 -23.8592 321.156 -25.7383 318.897 -27.8039C318.246 -28.3989 317.583 -28.9624 317.32 -29.8208L306.183 -27.8527L276.894 21.8366L276.892 21.8324ZM287.713 14.3204C286.886 16.3886 285.926 18.3707 285.729 20.737C285.669 21.4616 284.726 21.753 284.45 21.1247C283.733 19.4976 282.003 19.1387 281.197 17.5306C281.576 17.3271 281.877 17.0019 282.136 17.0506C283.671 17.3409 284.654 16.9227 284.481 14.9171C284.371 13.652 285.004 13.0379 285.87 12.5856C286.375 12.3221 286.91 11.9506 287.445 12.5114C287.93 13.019 287.939 13.7493 287.712 14.3183L287.713 14.3204ZM296.556 -9.16881C297.391 -8.11549 298.236 -7.0698 299.056 -6.00294C299.294 -5.69173 299.373 -5.28477 299.139 -4.94639C298.833 -4.50331 298.379 -4.41321 297.945 -4.67221C296.397 -5.59962 296.238 -7.23061 296.556 -9.16881ZM299.536 1.11106C300.549 3.9354 304.258 0.38469 304.823 4.11242C301.621 5.80965 300.038 4.97976 299.536 1.11106ZM306.776 0.761241C305.009 -1.03407 304.739 -2.80611 304.205 -5.14594C306.563 -3.68223 306.539 -1.77005 306.776 0.761241Z" fill="#7F2E00"/>
<path d="M357.255 -18.7342C361.319 -17.9272 361.984 -17.0489 361.41 -12.4429L377.971 -40.536L375.837 -40.1585C375.886 -40.0186 375.939 -39.8799 375.982 -39.7357C376.222 -38.9523 376.036 -38.1951 375.874 -37.4523C375.76 -36.9325 375.536 -36.4327 374.981 -36.5784C374.701 -36.6525 374.285 -37.0176 374.249 -37.2893C374.123 -38.2159 373.829 -39.0096 373.437 -39.7339L356.594 -36.7576C356.69 -36.5117 356.774 -36.257 356.837 -35.9843C357.304 -33.9683 357.601 -31.9148 358.895 -30.1563C359.54 -29.2806 359.781 -27.7647 358.405 -27.2436C357.126 -26.7577 356.369 -27.824 356.173 -29.0732C355.834 -31.2461 355.031 -33.2023 354.195 -35.1552L349.211 -26.7007C350.686 -24.1056 352.804 -22.1444 354.764 -20.0352C355.441 -19.3066 356.277 -18.9252 357.253 -18.7315L357.255 -18.7342Z" fill="#7F2E00"/>
<path d="M337.042 -4.88273C337.23 -5.60191 337.605 -6.01655 338.274 -5.64645C338.772 -5.37103 338.717 -4.81244 338.615 -4.2781C338.168 -1.92709 338.854 -0.0492258 340.675 1.35552C340.409 2.71777 338.815 2.19289 338.824 3.58976C338.83 4.17964 338.972 5.04142 338.047 4.8523C337.54 4.74876 337.359 4.22121 337.278 3.67327C336.942 1.37413 336.447 -0.713086 334.524 -1.78577L321.8 19.7998L330.344 18.2915C330.28 18.2524 330.215 18.2133 330.151 18.1673C329.759 17.8883 329.778 17.1996 330.109 16.776C330.731 15.9846 331.473 15.9938 332.219 16.5818C332.559 17.0506 332.622 17.5287 332.388 17.931L344.799 15.7385L361.276 -12.2115C361.095 -13.1004 360.944 -13.9984 360.691 -14.8644C359.829 -17.807 358.151 -18.5887 355.939 -17.1317C352.968 -15.1759 352.945 -15.1458 350.268 -18.0143C348.998 -19.3762 347.632 -20.626 346.555 -22.1948L335.599 -3.61008C336.195 -3.34492 336.707 -3.60386 337.042 -4.88273ZM334.057 12.9697C333.75 13.4292 333.296 13.3936 332.888 13.0695C332.439 12.7127 332.389 12.2464 332.685 11.756C333.03 11.36 333.438 11.2594 333.851 11.6298C334.262 11.9966 334.362 12.5108 334.057 12.9697ZM350.354 3.14934C350.603 2.87717 350.863 2.90737 350.905 3.22065C350.955 3.5797 350.902 3.99825 350.768 4.31891C350.648 4.60542 350.327 4.54181 350.287 4.23694C350.238 3.86415 350.328 3.47268 350.352 3.14779L350.354 3.14934Z" fill="#7F2E00"/>
<path d="M396.702 -29.2447C397.231 -28.4994 397.799 -27.7096 397.041 -26.8801C396.381 -26.1592 395.613 -26.4112 394.944 -26.9778C394.582 -27.6886 394.228 -28.4132 394.319 -29.0767L390.028 -21.7988C390.063 -21.7506 390.099 -21.7002 390.134 -21.6519C390.456 -21.2185 390.449 -20.6384 390.156 -20.2405C389.865 -19.8432 389.431 -19.8872 389.045 -20.1315L381.246 -6.90178C381.558 -5.42871 381.5 -3.8073 381.043 -2.14042C380.404 -2.60208 379.77 -3.05858 379.311 -3.62016L373.78 5.76433C373.713 6.03636 373.589 6.32671 373.394 6.65727C372.57 8.05563 371.881 9.56218 371.201 11.0727L393.588 7.11909L396.392 2.36093C396.359 2.3052 396.318 2.25181 396.286 2.19551C395.867 1.4571 396.078 0.6555 395.929 -0.0878039C395.473 -2.37248 395.789 -4.82615 394.397 -6.92622C393.874 -7.71445 393.877 -8.82536 394.618 -9.41408C395.706 -10.2811 395.93 -11.8129 396.746 -12.7769C397.826 -14.0567 398.095 -15.2992 397.67 -16.9972C397.406 -18.0494 397.46 -19.2561 398.587 -19.5598C399.853 -19.9023 401.157 -19.7566 401.915 -18.1859C402.451 -17.0753 402.792 -15.7323 401.687 -15.0223C397.946 -12.6171 396.976 -9.08549 398.183 -4.34895C398.452 -3.29159 397.988 -2.04289 397.918 -0.874399C397.904 -0.634791 397.906 -0.423048 397.907 -0.213383L412.704 -25.3157C412.586 -25.4455 412.469 -25.6027 412.36 -25.813C411.665 -27.1501 413.764 -28.3387 414.509 -29.6712C414.808 -30.2034 415.31 -30.4705 415.855 -30.6621L426.758 -49.1574L403.757 -45.0956L394.872 -30.0223C395.536 -30.5368 396.182 -29.9744 396.7 -29.2463L396.702 -29.2447ZM398.961 -26.9187C399.822 -27.4744 400.725 -27.0407 401.479 -26.2729C401.74 -26.0076 402.009 -25.7494 402.582 -25.1847C402.819 -24.8001 403.423 -24.1015 403.712 -23.2786C404.214 -21.8444 404.901 -20.7516 406.226 -20.2129C406.971 -19.9101 407.385 -19.2249 407.11 -18.369C406.724 -17.1628 405.797 -17.6598 405.084 -17.9063C403.865 -18.3229 403.311 -19.4553 402.865 -20.752C402.442 -21.9826 401.865 -23.2608 400.416 -23.0845C399.594 -22.9861 398.77 -22.6706 398.655 -24.0892C398.578 -25.0651 397.95 -26.2681 398.96 -26.9208L398.961 -26.9187Z" fill="#7F2E00"/>
<path d="M464.569 -53.6279C463.91 -53.0052 463.238 -53.324 462.751 -53.9821C462.358 -54.5162 461.917 -54.9281 461.436 -55.2795L452.548 -53.7092L445.265 -41.3517C445.546 -40.7684 445.864 -40.1992 446.219 -39.6505C446.568 -39.1116 446.948 -38.5709 446.908 -37.8732C446.877 -37.3358 446.681 -36.8108 446.218 -36.6587C445.946 -36.5687 445.489 -36.674 445.278 -36.8934C444.73 -37.4682 444.215 -38.0828 443.705 -38.7061L439.878 -32.2157C441.111 -32.1734 442.322 -32.3456 443.454 -33.3087C444.194 -33.9359 445.342 -33.5609 445.888 -32.4923C447.241 -29.8409 449.701 -28.5988 451.692 -26.9377C453.012 -25.8358 452.957 -25.1632 452.842 -23.8848C452.736 -22.6843 452.251 -21.6986 451.866 -20.6277C451.442 -19.4487 451.42 -18.3822 451.744 -17.3922L463.452 -37.2521C463.454 -37.5337 463.466 -37.816 463.503 -38.0995C463.565 -38.5917 463.844 -39.0379 463.985 -39.4041C464.341 -39.71 464.655 -39.8063 464.93 -39.76L466.604 -42.5991C466.449 -42.6804 466.295 -42.8104 466.15 -43.0023C465.838 -43.4158 465.613 -43.9756 465.979 -44.3805C466.439 -44.8881 467.011 -44.757 467.514 -44.2525C467.526 -44.2359 467.535 -44.2182 467.548 -44.1995L475.55 -57.7737L466.047 -56.0946C465.812 -55.1619 465.315 -54.3324 464.569 -53.6279ZM452.754 -47.6329C452.449 -47.4481 452.149 -47.6073 451.929 -47.9607C451.828 -48.4109 451.571 -48.9721 452.132 -49.1915C452.352 -49.2765 452.795 -49.0959 452.955 -48.8721C453.272 -48.4302 453.215 -47.9122 452.752 -47.6323L452.754 -47.6329Z" fill="#7F2E00"/>
<path d="M445.736 -20.9753C445.2 -22.1568 444.797 -23.4122 444.265 -24.5969C443.825 -25.5757 443.401 -26.2395 442.125 -25.7637C440.781 -25.2619 439.379 -26.2742 438.301 -27.2604C438.009 -27.527 437.73 -27.8119 437.45 -28.0962L419.376 2.56367L431.206 0.473887C431.156 0.416466 431.108 0.358437 431.062 0.288218C430.776 -0.160752 431.097 -0.690839 431.373 -1.10418C431.945 -1.63076 432.407 -1.32386 432.8 -0.752775C432.984 -0.484114 433.14 -0.156106 433.13 0.134645L442.376 -1.49817L449.846 -14.1675C449.754 -14.2393 449.668 -14.3127 449.573 -14.3834C447.569 -15.8666 446.805 -18.6209 445.737 -20.9759L445.736 -20.9753ZM425.693 0.142138C424.66 0.0485765 424.363 -0.858656 423.88 -1.75296C425.144 -2.01035 425.793 -1.50824 426.037 -0.356263C426.066 -0.214885 425.809 0.151517 425.692 0.140046L425.693 0.142138Z" fill="#7F2E00"/>
<path d="M500.645 -58.4027C499.554 -58.4257 499.757 -59.1379 499.848 -59.8014L492.871 -47.9673C493.413 -47.0115 493.939 -46.0438 494.474 -45.0836C494.238 -44.8815 494 -44.6767 493.763 -44.4745C493.291 -45.3221 492.782 -46.126 492.243 -46.9022L477.842 -22.4722C477.97 -22.5101 478.089 -22.5452 478.225 -22.5833C478.666 -22.7079 479.094 -22.8925 479.542 -22.9851C480.611 -23.2088 481.419 -22.2018 480.972 -21.4907C478.555 -17.6398 480.811 -13.9975 481.628 -10.3397C481.782 -9.65249 481.822 -9.03493 481.779 -8.46185L486.833 -9.35405C486.046 -11.0619 486.134 -12.6381 486.756 -14.2513C487.24 -15.5111 488.251 -15.568 488.742 -14.3015C489.332 -12.7717 490.115 -11.4008 490.978 -10.0867L491.167 -10.1208L510.45 -42.8342C509.748 -44.5367 509.324 -46.3563 509.143 -48.2587C509.039 -49.3475 508.354 -50.0939 508.371 -51.4808C510.292 -49.798 510.781 -47.3388 511.891 -45.44C511.906 -45.4129 511.922 -45.3859 511.938 -45.3588L516.383 -52.8997C516.086 -53.8138 516.067 -54.8307 516.438 -55.8014C517.15 -57.6645 516.98 -59.1732 516.356 -60.9985C515.784 -62.6777 515.832 -64.0517 516.396 -64.9938L511.367 -64.1048C511.316 -62.7825 511.106 -61.4422 511.325 -60.1592C511.412 -59.6452 510.871 -59.2836 510.37 -59.3181C510.051 -59.339 509.587 -59.4583 509.449 -59.7096C509.151 -60.2555 508.945 -60.8987 508.834 -61.5262C508.71 -62.2294 508.535 -62.9077 508.321 -63.5665L502.516 -62.5412C502.575 -61.7994 502.388 -60.9777 502.159 -60.1113C501.901 -59.1258 501.532 -58.3912 500.649 -58.4087L500.645 -58.4027ZM487.998 -19.2382C487.72 -19.1878 487.319 -19.3815 487.091 -19.6158C486.818 -19.8956 486.83 -20.3174 487.117 -20.638C487.624 -20.909 487.984 -20.634 488.236 -20.1398C488.431 -19.7578 488.383 -19.3066 487.998 -19.2382ZM504.606 -46.275C503.995 -45.5008 503.387 -46.3356 502.918 -46.8642C502.428 -47.416 501.826 -48.1818 502.346 -48.8587C502.998 -49.7073 503.508 -48.7645 503.979 -48.2523C504.349 -47.6263 505.185 -47.0072 504.606 -46.275Z" fill="#7F2E00"/>
<path d="M539.875 -49.6799C539.89 -49.6617 540.313 -48.7417 540.971 -48.2884C544.511 -45.8531 543.419 -42.1829 543.36 -38.8163C543.347 -38.0839 542.974 -37.2678 542.184 -37.1454C541.357 -37.0184 541.018 -37.7751 540.634 -38.47C539.532 -40.4672 538.017 -42.2479 538.203 -44.8458C538.256 -45.5771 537.855 -46.1728 537.387 -46.6861L529.955 -34.0763C531.454 -32.994 532.543 -31.1206 533.387 -29.2752C534.119 -27.6691 535.019 -26.4123 536.341 -25.4388C538.437 -23.8954 539.824 -21.5148 541.552 -19.5337C541.642 -19.4297 541.721 -19.3175 541.794 -19.2009L551.217 -35.1877C550.068 -36.4986 549.039 -37.982 547.375 -38.4783C546.59 -38.7114 545.76 -39.4648 546.233 -40.5268C546.683 -41.5379 547.472 -42.6444 548.671 -42.0367C550.3 -41.2142 551.881 -40.4819 553.671 -40.6167C553.857 -40.6317 554.079 -40.5256 554.281 -40.3857L574.873 -75.3162L572.289 -74.8592C572.825 -73.8764 572.93 -73.1215 572.522 -72.153C571.639 -72.8555 571.434 -73.6112 571.585 -74.7341L551.872 -71.2523L539.501 -50.2635C539.62 -50.0863 539.743 -49.8964 539.879 -49.6789L539.875 -49.6799ZM552.074 -69.411C553.345 -67.8299 553.834 -65.7568 555.711 -65.7088C556.146 -61.9061 558.819 -58.4105 557.419 -54.3743C557.193 -53.7234 556.871 -52.9234 555.941 -52.8964C555.319 -55.6471 554.731 -58.3855 553.326 -60.8952C551.956 -63.347 551.105 -66.0464 552.074 -69.411ZM552.718 -48.9796C552.804 -50.0207 552.13 -51.7867 553.494 -51.9889C555.009 -52.2132 554.619 -50.3119 554.956 -49.3444C555.468 -47.8745 555.986 -46.3678 555.968 -44.7473C555.959 -43.9659 555.555 -43.5696 555.002 -43.3435C554.549 -43.1578 554.099 -43.2996 553.733 -43.742C552.492 -45.2958 552.568 -47.1854 552.718 -48.9796ZM546.127 -47.993C546.982 -48.1244 547.419 -47.6178 547.551 -46.7478C547.574 -46.5862 547.298 -46.3831 547.16 -46.1981C546.889 -46.8392 545.96 -47.0182 546.127 -47.9909L546.127 -47.993Z" fill="#7F2E00"/>
<path d="M527.868 -30.5391L521.562 -19.8424C522.459 -18.2286 523.486 -16.8952 524.918 -16.0796L536.736 -18.1681C535.306 -21.574 533.02 -24.3689 530.684 -26.7871C529.606 -27.9032 528.768 -29.2549 527.868 -30.5391Z" fill="#7F2E00"/>
<path d="M-555.068 133.459L-553.827 131.352C-554.663 130.258 -556.133 129.655 -556.103 127.903C-556.084 126.737 -555.941 125.58 -555.821 124.412L-572.028 127.275L-577.574 136.685C-577.189 136.943 -576.824 137.21 -576.447 137.432C-576.046 137.667 -575.707 138.12 -576.049 138.657C-576.349 139.128 -576.878 139.081 -577.275 138.868C-577.676 138.651 -578.046 138.388 -578.39 138.071L-583.068 146.007L-578.314 172.893L-574.747 166.842C-574.783 166.805 -574.82 166.772 -574.854 166.734C-575.841 165.697 -576.018 163.38 -575.289 162.477C-574.873 162.157 -574.312 162.065 -574.102 162.602C-573.857 163.226 -573.567 163.781 -573.239 164.284L-560.801 143.185C-561.181 142.398 -561.006 141.573 -560.686 140.758C-560.51 140.312 -560.138 140.303 -559.854 140.593C-559.715 140.734 -559.613 140.878 -559.529 141.023L-555.713 134.552C-555.723 134.494 -555.736 134.434 -555.741 134.374C-555.823 133.511 -555.481 133.422 -555.067 133.456L-555.068 133.459ZM-567.793 130.273C-567.586 129.882 -567.207 130.094 -566.944 130.365C-566.488 130.839 -566.315 131.394 -566.559 132.012C-566.862 132.395 -567.157 132.321 -567.393 131.966C-567.731 131.46 -568.121 130.897 -567.791 130.273L-567.793 130.273ZM-563.696 145.61C-564.08 145.987 -564.533 145.663 -564.87 145.291C-565.396 144.708 -565.747 144.039 -565.102 143.371C-564.695 142.948 -564.293 143.322 -563.917 143.716C-563.501 144.284 -563.007 144.935 -563.696 145.61Z" fill="#7F2E00"/>
<path d="M600.726 -46.0337C599.306 -47.4766 598.611 -50.3804 599.425 -52.182C599.663 -52.7112 599.963 -53.2027 600.221 -53.7519L596.768 -73.2762L594.547 -69.5097C594.754 -68.8005 594.444 -68.2485 593.953 -67.8137C593.768 -67.6481 593.57 -67.5493 593.375 -67.5225L588.035 -58.4606C588.446 -57.9047 588.598 -57.2444 588.706 -56.593C589.056 -54.4558 589.754 -52.5716 591.324 -51.1529C593.293 -49.3709 591.401 -47.5873 591.47 -45.661C590.636 -47.5526 589.563 -49.0175 588.164 -50.3985C586.731 -51.8146 585.949 -53.1814 585.747 -54.5794L571.551 -30.4993C571.613 -30.5071 571.669 -30.5042 571.731 -30.5147C573.139 -30.7692 574.23 -29.1959 574.459 -27.8608C574.628 -26.8771 574.882 -25.9108 575.163 -24.9509L590.481 -27.6562L592.277 -30.7047C590.088 -31.8946 588.444 -34.014 587.282 -36.625C586.801 -37.7096 586.161 -38.9471 587.343 -39.7408C588.319 -40.3943 589.323 -39.7275 590.154 -38.8943C590.327 -38.7205 590.526 -38.5086 590.595 -38.2768C591.241 -36.0797 592.539 -34.7195 594.048 -33.7087L601.121 -45.7057C600.985 -45.7954 600.85 -45.9036 600.725 -46.0311L600.726 -46.0337ZM584.91 -30.3719C584.841 -30.3047 584.592 -30.4709 584.424 -30.5324C584.479 -30.7344 584.483 -31.0097 584.602 -31.1135C584.685 -31.1852 584.93 -31.0178 585.104 -30.9581C585.046 -30.7549 585.032 -30.4947 584.91 -30.3719ZM584.291 -36.4853C583.437 -35.8357 582.557 -36.0756 581.758 -36.8091C581.122 -37.3929 580.521 -38.0239 579.415 -39.1157C579.547 -38.972 579.154 -39.2964 578.889 -39.7179C578.551 -40.2533 578.246 -40.9158 578.768 -41.4613C579.164 -41.8753 579.636 -41.6056 579.966 -41.2116C580.735 -40.2951 581.536 -39.795 582.71 -39.99C583.755 -40.1651 584.372 -39.2444 584.734 -38.1909C584.973 -37.4941 584.781 -36.8583 584.291 -36.4853ZM597.565 -57.2547C597.504 -57.4345 597.59 -57.7925 597.719 -57.8902C597.826 -57.9693 598.093 -57.7861 598.287 -57.7168C598.295 -57.484 598.393 -57.1584 598.297 -57.0414C598.021 -56.7084 597.702 -56.8455 597.565 -57.2547Z" fill="#7F2E00"/>
</svg>
