<svg width="51" height="445" viewBox="0 0 51 445" fill="none" xmlns="http://www.w3.org/2000/svg">
<g clip-path="url(#clip0_478_1555)">
<rect width="445" height="51" transform="translate(0 445) rotate(-90)" fill="black"/>
<mask id="path-1-outside-1_478_1555" maskUnits="userSpaceOnUse" x="7.90771" y="330.749" width="36" height="191" fill="black">
<rect fill="white" x="7.90771" y="330.749" width="36" height="191"/>
<path d="M40.2827 500.75C40.4327 501.44 40.5677 502.25 40.6877 503.18C40.8077 503.96 40.8977 504.92 40.9577 506.06C41.0477 507.2 41.0927 508.505 41.0927 509.975C41.0927 511.775 40.9127 513.275 40.5527 514.475C40.2227 515.645 39.7277 516.59 39.0677 517.31C38.4077 518.03 37.5977 518.54 36.6377 518.84C35.6477 519.11 34.5377 519.245 33.3077 519.245H18.0977C16.5677 519.245 15.2777 519.05 14.2277 518.66C13.1777 518.24 12.3377 517.64 11.7077 516.86C11.0477 516.05 10.5827 515.06 10.3127 513.89C10.0427 512.72 9.90772 511.385 9.90772 509.885C9.90772 508.535 9.95272 507.32 10.0427 506.24C10.1327 505.13 10.2227 504.185 10.3127 503.405C10.4327 502.505 10.5677 501.695 10.7177 500.975H19.3127V507.14H15.2177C15.1877 507.35 15.1427 507.59 15.0827 507.86C15.0527 508.1 15.0227 508.37 14.9927 508.67C14.9627 508.97 14.9477 509.285 14.9477 509.615C14.9477 510.845 15.2327 511.67 15.8027 512.09C16.3427 512.48 17.1377 512.675 18.1877 512.675H32.8127C33.9527 512.675 34.7927 512.495 35.3327 512.135C35.8427 511.745 36.0977 510.98 36.0977 509.84C36.0977 509.48 36.0977 509.135 36.0977 508.805C36.0677 508.445 36.0377 508.145 36.0077 507.905C35.9777 507.605 35.9327 507.32 35.8727 507.05H31.2377V500.75H40.2827ZM40.5077 482.99L32.7677 484.61V489.83L40.5077 491.18V497.93L10.4927 492.08L10.4927 482.225L40.5077 476.15L40.5077 482.99ZM21.7427 486.23C21.2327 486.35 20.5877 486.47 19.8077 486.59C19.0277 486.68 18.2777 486.77 17.5577 486.86C16.7177 486.98 15.8327 487.1 14.9027 487.22C15.8327 487.34 16.7177 487.46 17.5577 487.58C18.3077 487.7 19.0727 487.82 19.8527 487.94C20.6327 488.06 21.2777 488.15 21.7877 488.21L27.9077 489.245V485.15L21.7427 486.23ZM32.5877 454.578C34.1177 454.578 35.4227 454.818 36.5027 455.298C37.5827 455.778 38.4677 456.453 39.1577 457.323C39.8177 458.193 40.2977 459.258 40.5977 460.518C40.9277 461.778 41.0927 463.188 41.0927 464.748C41.0927 466.218 41.0477 467.508 40.9577 468.618C40.8977 469.698 40.8077 470.613 40.6877 471.363C40.5677 472.233 40.4177 472.983 40.2377 473.613H32.7227V467.358H35.8277C35.8877 467.178 35.9327 466.938 35.9627 466.638C35.9927 466.398 36.0227 466.098 36.0527 465.738C36.0527 465.348 36.0527 464.898 36.0527 464.388C36.0527 463.158 35.7827 462.318 35.2427 461.868C34.6727 461.418 34.0127 461.193 33.2627 461.193C32.8127 461.193 32.4077 461.268 32.0477 461.418C31.6877 461.568 31.3577 461.793 31.0577 462.093C30.7277 462.363 30.4127 462.723 30.1127 463.173C29.8127 463.593 29.4677 464.088 29.0777 464.658L26.1977 469.068C25.3877 470.298 24.3377 471.363 23.0477 472.263C21.7277 473.133 20.0477 473.568 18.0077 473.568C15.3377 473.568 13.3277 472.788 11.9777 471.228C10.5977 469.668 9.90772 467.283 9.90772 464.073C9.90772 462.633 9.95272 461.373 10.0427 460.293C10.1327 459.213 10.2227 458.313 10.3127 457.593C10.4327 456.753 10.5677 456.033 10.7177 455.433H18.0077V461.733H15.1277C15.0977 461.913 15.0677 462.108 15.0377 462.318C15.0077 462.498 14.9927 462.723 14.9927 462.993C14.9627 463.263 14.9477 463.563 14.9477 463.893C14.9477 465.153 15.2177 465.993 15.7577 466.413C16.2677 466.833 16.9127 467.043 17.6927 467.043C18.6527 467.043 19.3577 466.818 19.8077 466.368C20.2577 465.888 20.7227 465.258 21.2027 464.478L24.4427 459.258C25.4027 457.728 26.5127 456.573 27.7727 455.793C29.0027 454.983 30.6077 454.578 32.5877 454.578ZM40.5077 438H27.5477V443.805H40.5077V450.42H10.4927L10.4927 443.805H22.3277V438H10.4927L10.4927 431.34H40.5077L40.5077 438ZM32.6327 406.958C34.0727 406.958 35.3027 407.108 36.3227 407.408C37.3127 407.708 38.1227 408.203 38.7527 408.893C39.3527 409.583 39.8027 410.483 40.1027 411.593C40.3727 412.703 40.5077 414.053 40.5077 415.643V425.678H10.4927L10.4927 416.228C10.4927 414.878 10.5527 413.663 10.6727 412.583C10.7927 411.503 11.0777 410.588 11.5277 409.838C11.9477 409.058 12.5927 408.458 13.4627 408.038C14.3327 407.618 15.5177 407.408 17.0177 407.408H18.5027C19.2527 407.408 19.9577 407.438 20.6177 407.498C21.2777 407.558 21.8777 407.723 22.4177 407.993C22.9577 408.233 23.4227 408.608 23.8127 409.118C24.1727 409.598 24.4427 410.288 24.6227 411.188C24.8027 410.138 25.1027 409.328 25.5227 408.758C25.9427 408.188 26.4377 407.768 27.0077 407.498C27.5777 407.228 28.1927 407.078 28.8527 407.048C29.5127 406.988 30.1727 406.958 30.8327 406.958H32.6327ZM30.2027 413.528C29.7227 413.528 29.3177 413.558 28.9877 413.618C28.6277 413.678 28.3277 413.813 28.0877 414.023C27.8477 414.203 27.6677 414.488 27.5477 414.878C27.4277 415.268 27.3677 415.778 27.3677 416.408V419.063H35.2877V416.588C35.2877 415.838 35.2277 415.268 35.1077 414.878C34.9877 414.458 34.7927 414.158 34.5227 413.978C34.2527 413.768 33.9227 413.648 33.5327 413.618C33.1427 413.558 32.6777 413.528 32.1377 413.528H30.2027ZM17.8727 413.978C17.3627 413.978 16.9577 414.038 16.6577 414.158C16.3577 414.248 16.1477 414.398 16.0277 414.608C15.8777 414.818 15.7877 415.103 15.7577 415.463C15.7277 415.793 15.7127 416.183 15.7127 416.633L15.7127 419.063H22.5077V416.408C22.5077 415.838 22.4477 415.403 22.3277 415.103C22.2077 414.773 22.0427 414.533 21.8327 414.383C21.5927 414.203 21.3077 414.098 20.9777 414.068C20.6477 414.008 20.2577 413.978 19.8077 413.978H17.8727ZM40.5077 388.727L32.7677 390.347V395.567L40.5077 396.917V403.667L10.4927 397.817L10.4927 387.962L40.5077 381.887V388.727ZM21.7427 391.967C21.2327 392.087 20.5877 392.207 19.8077 392.327C19.0277 392.417 18.2777 392.507 17.5577 392.597C16.7177 392.717 15.8327 392.837 14.9027 392.957C15.8327 393.077 16.7177 393.197 17.5577 393.317C18.3077 393.437 19.0727 393.557 19.8527 393.677C20.6327 393.797 21.2777 393.887 21.7877 393.947L27.9077 394.982V390.887L21.7427 391.967ZM40.2827 360.609C40.4327 361.299 40.5677 362.109 40.6877 363.039C40.8077 363.819 40.8977 364.779 40.9577 365.919C41.0477 367.059 41.0927 368.364 41.0927 369.834C41.0927 371.634 40.9127 373.134 40.5527 374.334C40.2227 375.504 39.7277 376.449 39.0677 377.169C38.4077 377.889 37.5977 378.399 36.6377 378.699C35.6477 378.969 34.5377 379.104 33.3077 379.104H18.0977C16.5677 379.104 15.2777 378.909 14.2277 378.519C13.1777 378.099 12.3377 377.499 11.7077 376.719C11.0477 375.909 10.5827 374.919 10.3127 373.749C10.0427 372.579 9.90771 371.244 9.90771 369.744C9.90771 368.394 9.95271 367.179 10.0427 366.099C10.1327 364.989 10.2227 364.044 10.3127 363.264C10.4327 362.364 10.5677 361.554 10.7177 360.834L19.3127 360.834L19.3127 366.999H15.2177C15.1877 367.209 15.1427 367.449 15.0827 367.719C15.0527 367.959 15.0227 368.229 14.9927 368.529C14.9627 368.829 14.9477 369.144 14.9477 369.474C14.9477 370.704 15.2327 371.529 15.8027 371.949C16.3427 372.339 17.1377 372.534 18.1877 372.534L32.8127 372.534C33.9527 372.534 34.7927 372.354 35.3327 371.994C35.8427 371.604 36.0977 370.839 36.0977 369.699C36.0977 369.339 36.0977 368.994 36.0977 368.664C36.0677 368.304 36.0377 368.004 36.0077 367.764C35.9777 367.464 35.9327 367.179 35.8727 366.909H31.2377V360.609L40.2827 360.609ZM40.5077 342.264L27.9077 349.149L40.5077 349.149L40.5077 355.674L10.4927 355.674L10.4927 349.149H21.9677L10.4927 342.309L10.4927 335.154L24.5327 343.794L40.5077 334.749V342.264Z"/>
</mask>
<path d="M40.2827 500.75C40.4327 501.44 40.5677 502.25 40.6877 503.18C40.8077 503.96 40.8977 504.92 40.9577 506.06C41.0477 507.2 41.0927 508.505 41.0927 509.975C41.0927 511.775 40.9127 513.275 40.5527 514.475C40.2227 515.645 39.7277 516.59 39.0677 517.31C38.4077 518.03 37.5977 518.54 36.6377 518.84C35.6477 519.11 34.5377 519.245 33.3077 519.245H18.0977C16.5677 519.245 15.2777 519.05 14.2277 518.66C13.1777 518.24 12.3377 517.64 11.7077 516.86C11.0477 516.05 10.5827 515.06 10.3127 513.89C10.0427 512.72 9.90772 511.385 9.90772 509.885C9.90772 508.535 9.95272 507.32 10.0427 506.24C10.1327 505.13 10.2227 504.185 10.3127 503.405C10.4327 502.505 10.5677 501.695 10.7177 500.975H19.3127V507.14H15.2177C15.1877 507.35 15.1427 507.59 15.0827 507.86C15.0527 508.1 15.0227 508.37 14.9927 508.67C14.9627 508.97 14.9477 509.285 14.9477 509.615C14.9477 510.845 15.2327 511.67 15.8027 512.09C16.3427 512.48 17.1377 512.675 18.1877 512.675H32.8127C33.9527 512.675 34.7927 512.495 35.3327 512.135C35.8427 511.745 36.0977 510.98 36.0977 509.84C36.0977 509.48 36.0977 509.135 36.0977 508.805C36.0677 508.445 36.0377 508.145 36.0077 507.905C35.9777 507.605 35.9327 507.32 35.8727 507.05H31.2377V500.75H40.2827ZM40.5077 482.99L32.7677 484.61V489.83L40.5077 491.18V497.93L10.4927 492.08L10.4927 482.225L40.5077 476.15L40.5077 482.99ZM21.7427 486.23C21.2327 486.35 20.5877 486.47 19.8077 486.59C19.0277 486.68 18.2777 486.77 17.5577 486.86C16.7177 486.98 15.8327 487.1 14.9027 487.22C15.8327 487.34 16.7177 487.46 17.5577 487.58C18.3077 487.7 19.0727 487.82 19.8527 487.94C20.6327 488.06 21.2777 488.15 21.7877 488.21L27.9077 489.245V485.15L21.7427 486.23ZM32.5877 454.578C34.1177 454.578 35.4227 454.818 36.5027 455.298C37.5827 455.778 38.4677 456.453 39.1577 457.323C39.8177 458.193 40.2977 459.258 40.5977 460.518C40.9277 461.778 41.0927 463.188 41.0927 464.748C41.0927 466.218 41.0477 467.508 40.9577 468.618C40.8977 469.698 40.8077 470.613 40.6877 471.363C40.5677 472.233 40.4177 472.983 40.2377 473.613H32.7227V467.358H35.8277C35.8877 467.178 35.9327 466.938 35.9627 466.638C35.9927 466.398 36.0227 466.098 36.0527 465.738C36.0527 465.348 36.0527 464.898 36.0527 464.388C36.0527 463.158 35.7827 462.318 35.2427 461.868C34.6727 461.418 34.0127 461.193 33.2627 461.193C32.8127 461.193 32.4077 461.268 32.0477 461.418C31.6877 461.568 31.3577 461.793 31.0577 462.093C30.7277 462.363 30.4127 462.723 30.1127 463.173C29.8127 463.593 29.4677 464.088 29.0777 464.658L26.1977 469.068C25.3877 470.298 24.3377 471.363 23.0477 472.263C21.7277 473.133 20.0477 473.568 18.0077 473.568C15.3377 473.568 13.3277 472.788 11.9777 471.228C10.5977 469.668 9.90772 467.283 9.90772 464.073C9.90772 462.633 9.95272 461.373 10.0427 460.293C10.1327 459.213 10.2227 458.313 10.3127 457.593C10.4327 456.753 10.5677 456.033 10.7177 455.433H18.0077V461.733H15.1277C15.0977 461.913 15.0677 462.108 15.0377 462.318C15.0077 462.498 14.9927 462.723 14.9927 462.993C14.9627 463.263 14.9477 463.563 14.9477 463.893C14.9477 465.153 15.2177 465.993 15.7577 466.413C16.2677 466.833 16.9127 467.043 17.6927 467.043C18.6527 467.043 19.3577 466.818 19.8077 466.368C20.2577 465.888 20.7227 465.258 21.2027 464.478L24.4427 459.258C25.4027 457.728 26.5127 456.573 27.7727 455.793C29.0027 454.983 30.6077 454.578 32.5877 454.578ZM40.5077 438H27.5477V443.805H40.5077V450.42H10.4927L10.4927 443.805H22.3277V438H10.4927L10.4927 431.34H40.5077L40.5077 438ZM32.6327 406.958C34.0727 406.958 35.3027 407.108 36.3227 407.408C37.3127 407.708 38.1227 408.203 38.7527 408.893C39.3527 409.583 39.8027 410.483 40.1027 411.593C40.3727 412.703 40.5077 414.053 40.5077 415.643V425.678H10.4927L10.4927 416.228C10.4927 414.878 10.5527 413.663 10.6727 412.583C10.7927 411.503 11.0777 410.588 11.5277 409.838C11.9477 409.058 12.5927 408.458 13.4627 408.038C14.3327 407.618 15.5177 407.408 17.0177 407.408H18.5027C19.2527 407.408 19.9577 407.438 20.6177 407.498C21.2777 407.558 21.8777 407.723 22.4177 407.993C22.9577 408.233 23.4227 408.608 23.8127 409.118C24.1727 409.598 24.4427 410.288 24.6227 411.188C24.8027 410.138 25.1027 409.328 25.5227 408.758C25.9427 408.188 26.4377 407.768 27.0077 407.498C27.5777 407.228 28.1927 407.078 28.8527 407.048C29.5127 406.988 30.1727 406.958 30.8327 406.958H32.6327ZM30.2027 413.528C29.7227 413.528 29.3177 413.558 28.9877 413.618C28.6277 413.678 28.3277 413.813 28.0877 414.023C27.8477 414.203 27.6677 414.488 27.5477 414.878C27.4277 415.268 27.3677 415.778 27.3677 416.408V419.063H35.2877V416.588C35.2877 415.838 35.2277 415.268 35.1077 414.878C34.9877 414.458 34.7927 414.158 34.5227 413.978C34.2527 413.768 33.9227 413.648 33.5327 413.618C33.1427 413.558 32.6777 413.528 32.1377 413.528H30.2027ZM17.8727 413.978C17.3627 413.978 16.9577 414.038 16.6577 414.158C16.3577 414.248 16.1477 414.398 16.0277 414.608C15.8777 414.818 15.7877 415.103 15.7577 415.463C15.7277 415.793 15.7127 416.183 15.7127 416.633L15.7127 419.063H22.5077V416.408C22.5077 415.838 22.4477 415.403 22.3277 415.103C22.2077 414.773 22.0427 414.533 21.8327 414.383C21.5927 414.203 21.3077 414.098 20.9777 414.068C20.6477 414.008 20.2577 413.978 19.8077 413.978H17.8727ZM40.5077 388.727L32.7677 390.347V395.567L40.5077 396.917V403.667L10.4927 397.817L10.4927 387.962L40.5077 381.887V388.727ZM21.7427 391.967C21.2327 392.087 20.5877 392.207 19.8077 392.327C19.0277 392.417 18.2777 392.507 17.5577 392.597C16.7177 392.717 15.8327 392.837 14.9027 392.957C15.8327 393.077 16.7177 393.197 17.5577 393.317C18.3077 393.437 19.0727 393.557 19.8527 393.677C20.6327 393.797 21.2777 393.887 21.7877 393.947L27.9077 394.982V390.887L21.7427 391.967ZM40.2827 360.609C40.4327 361.299 40.5677 362.109 40.6877 363.039C40.8077 363.819 40.8977 364.779 40.9577 365.919C41.0477 367.059 41.0927 368.364 41.0927 369.834C41.0927 371.634 40.9127 373.134 40.5527 374.334C40.2227 375.504 39.7277 376.449 39.0677 377.169C38.4077 377.889 37.5977 378.399 36.6377 378.699C35.6477 378.969 34.5377 379.104 33.3077 379.104H18.0977C16.5677 379.104 15.2777 378.909 14.2277 378.519C13.1777 378.099 12.3377 377.499 11.7077 376.719C11.0477 375.909 10.5827 374.919 10.3127 373.749C10.0427 372.579 9.90771 371.244 9.90771 369.744C9.90771 368.394 9.95271 367.179 10.0427 366.099C10.1327 364.989 10.2227 364.044 10.3127 363.264C10.4327 362.364 10.5677 361.554 10.7177 360.834L19.3127 360.834L19.3127 366.999H15.2177C15.1877 367.209 15.1427 367.449 15.0827 367.719C15.0527 367.959 15.0227 368.229 14.9927 368.529C14.9627 368.829 14.9477 369.144 14.9477 369.474C14.9477 370.704 15.2327 371.529 15.8027 371.949C16.3427 372.339 17.1377 372.534 18.1877 372.534L32.8127 372.534C33.9527 372.534 34.7927 372.354 35.3327 371.994C35.8427 371.604 36.0977 370.839 36.0977 369.699C36.0977 369.339 36.0977 368.994 36.0977 368.664C36.0677 368.304 36.0377 368.004 36.0077 367.764C35.9777 367.464 35.9327 367.179 35.8727 366.909H31.2377V360.609L40.2827 360.609ZM40.5077 342.264L27.9077 349.149L40.5077 349.149L40.5077 355.674L10.4927 355.674L10.4927 349.149H21.9677L10.4927 342.309L10.4927 335.154L24.5327 343.794L40.5077 334.749V342.264Z" stroke="#FF7E21" stroke-width="4" mask="url(#path-1-outside-1_478_1555)"/>
<mask id="path-2-outside-2_478_1555" maskUnits="userSpaceOnUse" x="7.90771" y="126.252" width="36" height="191" fill="black">
<rect fill="white" x="7.90771" y="126.252" width="36" height="191"/>
<path d="M40.2827 296.254C40.4327 296.944 40.5677 297.754 40.6877 298.684C40.8077 299.464 40.8977 300.424 40.9577 301.564C41.0477 302.704 41.0927 304.009 41.0927 305.479C41.0927 307.279 40.9127 308.779 40.5527 309.979C40.2227 311.149 39.7277 312.094 39.0677 312.814C38.4077 313.534 37.5977 314.044 36.6377 314.344C35.6477 314.614 34.5377 314.749 33.3077 314.749H18.0977C16.5677 314.749 15.2777 314.554 14.2277 314.164C13.1777 313.744 12.3377 313.144 11.7077 312.364C11.0477 311.554 10.5827 310.564 10.3127 309.394C10.0427 308.224 9.90772 306.889 9.90772 305.389C9.90772 304.039 9.95272 302.824 10.0427 301.744C10.1327 300.634 10.2227 299.689 10.3127 298.909C10.4327 298.009 10.5677 297.199 10.7177 296.479H19.3127V302.644H15.2177C15.1877 302.854 15.1427 303.094 15.0827 303.364C15.0527 303.604 15.0227 303.874 14.9927 304.174C14.9627 304.474 14.9477 304.789 14.9477 305.119C14.9477 306.349 15.2327 307.174 15.8027 307.594C16.3427 307.984 17.1377 308.179 18.1877 308.179H32.8127C33.9527 308.179 34.7927 307.999 35.3327 307.639C35.8427 307.249 36.0977 306.484 36.0977 305.344C36.0977 304.984 36.0977 304.639 36.0977 304.309C36.0677 303.949 36.0377 303.649 36.0077 303.409C35.9777 303.109 35.9327 302.824 35.8727 302.554H31.2377V296.254H40.2827ZM40.5077 278.493L32.7677 280.113V285.333L40.5077 286.683V293.433L10.4927 287.583L10.4927 277.728L40.5077 271.653L40.5077 278.493ZM21.7427 281.733C21.2327 281.853 20.5877 281.973 19.8077 282.093C19.0277 282.183 18.2777 282.273 17.5577 282.363C16.7177 282.483 15.8327 282.603 14.9027 282.723C15.8327 282.843 16.7177 282.963 17.5577 283.083C18.3077 283.203 19.0727 283.323 19.8527 283.443C20.6327 283.563 21.2777 283.653 21.7877 283.713L27.9077 284.748V280.653L21.7427 281.733ZM32.5877 250.081C34.1177 250.081 35.4227 250.321 36.5027 250.801C37.5827 251.281 38.4677 251.956 39.1577 252.826C39.8177 253.696 40.2977 254.761 40.5977 256.021C40.9277 257.281 41.0927 258.691 41.0927 260.251C41.0927 261.721 41.0477 263.011 40.9577 264.121C40.8977 265.201 40.8077 266.116 40.6877 266.866C40.5677 267.736 40.4177 268.486 40.2377 269.116H32.7227V262.861H35.8277C35.8877 262.681 35.9327 262.441 35.9627 262.141C35.9927 261.901 36.0227 261.601 36.0527 261.241C36.0527 260.851 36.0527 260.401 36.0527 259.891C36.0527 258.661 35.7827 257.821 35.2427 257.371C34.6727 256.921 34.0127 256.696 33.2627 256.696C32.8127 256.696 32.4077 256.771 32.0477 256.921C31.6877 257.071 31.3577 257.296 31.0577 257.596C30.7277 257.866 30.4127 258.226 30.1127 258.676C29.8127 259.096 29.4677 259.591 29.0777 260.161L26.1977 264.571C25.3877 265.801 24.3377 266.866 23.0477 267.766C21.7277 268.636 20.0477 269.071 18.0077 269.071C15.3377 269.071 13.3277 268.291 11.9777 266.731C10.5977 265.171 9.90772 262.786 9.90772 259.576C9.90772 258.136 9.95272 256.876 10.0427 255.796C10.1327 254.716 10.2227 253.816 10.3127 253.096C10.4327 252.256 10.5677 251.536 10.7177 250.936H18.0077V257.236H15.1277C15.0977 257.416 15.0677 257.611 15.0377 257.821C15.0077 258.001 14.9927 258.226 14.9927 258.496C14.9627 258.766 14.9477 259.066 14.9477 259.396C14.9477 260.656 15.2177 261.496 15.7577 261.916C16.2677 262.336 16.9127 262.546 17.6927 262.546C18.6527 262.546 19.3577 262.321 19.8077 261.871C20.2577 261.391 20.7227 260.761 21.2027 259.981L24.4427 254.761C25.4027 253.231 26.5127 252.076 27.7727 251.296C29.0027 250.486 30.6077 250.081 32.5877 250.081ZM40.5077 233.503H27.5477V239.308H40.5077V245.923H10.4927L10.4927 239.308H22.3277V233.503H10.4927L10.4927 226.843H40.5077L40.5077 233.503ZM32.6327 202.462C34.0727 202.462 35.3027 202.612 36.3227 202.912C37.3127 203.212 38.1227 203.707 38.7527 204.397C39.3527 205.087 39.8027 205.987 40.1027 207.097C40.3727 208.207 40.5077 209.557 40.5077 211.147V221.182H10.4927L10.4927 211.732C10.4927 210.382 10.5527 209.167 10.6727 208.087C10.7927 207.007 11.0777 206.092 11.5277 205.342C11.9477 204.562 12.5927 203.962 13.4627 203.542C14.3327 203.122 15.5177 202.912 17.0177 202.912H18.5027C19.2527 202.912 19.9577 202.942 20.6177 203.002C21.2777 203.062 21.8777 203.227 22.4177 203.497C22.9577 203.737 23.4227 204.112 23.8127 204.622C24.1727 205.102 24.4427 205.792 24.6227 206.692C24.8027 205.642 25.1027 204.832 25.5227 204.262C25.9427 203.692 26.4377 203.272 27.0077 203.002C27.5777 202.732 28.1927 202.582 28.8527 202.552C29.5127 202.492 30.1727 202.462 30.8327 202.462H32.6327ZM30.2027 209.032C29.7227 209.032 29.3177 209.062 28.9877 209.122C28.6277 209.182 28.3277 209.317 28.0877 209.527C27.8477 209.707 27.6677 209.992 27.5477 210.382C27.4277 210.772 27.3677 211.282 27.3677 211.912V214.567H35.2877V212.092C35.2877 211.342 35.2277 210.772 35.1077 210.382C34.9877 209.962 34.7927 209.662 34.5227 209.482C34.2527 209.272 33.9227 209.152 33.5327 209.122C33.1427 209.062 32.6777 209.032 32.1377 209.032H30.2027ZM17.8727 209.482C17.3627 209.482 16.9577 209.542 16.6577 209.662C16.3577 209.752 16.1477 209.902 16.0277 210.112C15.8777 210.322 15.7877 210.607 15.7577 210.967C15.7277 211.297 15.7127 211.687 15.7127 212.137L15.7127 214.567H22.5077V211.912C22.5077 211.342 22.4477 210.907 22.3277 210.607C22.2077 210.277 22.0427 210.037 21.8327 209.887C21.5927 209.707 21.3077 209.602 20.9777 209.572C20.6477 209.512 20.2577 209.482 19.8077 209.482H17.8727ZM40.5077 184.231L32.7677 185.851V191.071L40.5077 192.421V199.171L10.4927 193.321L10.4927 183.466L40.5077 177.391V184.231ZM21.7427 187.471C21.2327 187.591 20.5877 187.711 19.8077 187.831C19.0277 187.921 18.2777 188.011 17.5577 188.101C16.7177 188.221 15.8327 188.341 14.9027 188.461C15.8327 188.581 16.7177 188.701 17.5577 188.821C18.3077 188.941 19.0727 189.061 19.8527 189.181C20.6327 189.301 21.2777 189.391 21.7877 189.451L27.9077 190.486V186.391L21.7427 187.471ZM40.2827 156.112C40.4327 156.802 40.5677 157.612 40.6877 158.542C40.8077 159.322 40.8977 160.282 40.9577 161.422C41.0477 162.562 41.0927 163.867 41.0927 165.337C41.0927 167.137 40.9127 168.637 40.5527 169.837C40.2227 171.007 39.7277 171.952 39.0677 172.672C38.4077 173.392 37.5977 173.902 36.6377 174.202C35.6477 174.472 34.5377 174.607 33.3077 174.607H18.0977C16.5677 174.607 15.2777 174.412 14.2277 174.022C13.1777 173.602 12.3377 173.002 11.7077 172.222C11.0477 171.412 10.5827 170.422 10.3127 169.252C10.0427 168.082 9.90771 166.747 9.90771 165.247C9.90771 163.897 9.95271 162.682 10.0427 161.602C10.1327 160.492 10.2227 159.547 10.3127 158.767C10.4327 157.867 10.5677 157.057 10.7177 156.337L19.3127 156.337L19.3127 162.502H15.2177C15.1877 162.712 15.1427 162.952 15.0827 163.222C15.0527 163.462 15.0227 163.732 14.9927 164.032C14.9627 164.332 14.9477 164.647 14.9477 164.977C14.9477 166.207 15.2327 167.032 15.8027 167.452C16.3427 167.842 17.1377 168.037 18.1877 168.037L32.8127 168.037C33.9527 168.037 34.7927 167.857 35.3327 167.497C35.8427 167.107 36.0977 166.342 36.0977 165.202C36.0977 164.842 36.0977 164.497 36.0977 164.167C36.0677 163.807 36.0377 163.507 36.0077 163.267C35.9777 162.967 35.9327 162.682 35.8727 162.412H31.2377V156.112L40.2827 156.112ZM40.5077 137.767L27.9077 144.652L40.5077 144.652L40.5077 151.177L10.4927 151.177L10.4927 144.652H21.9677L10.4927 137.812L10.4927 130.657L24.5327 139.297L40.5077 130.252V137.767Z"/>
</mask>
<path d="M40.2827 296.254C40.4327 296.944 40.5677 297.754 40.6877 298.684C40.8077 299.464 40.8977 300.424 40.9577 301.564C41.0477 302.704 41.0927 304.009 41.0927 305.479C41.0927 307.279 40.9127 308.779 40.5527 309.979C40.2227 311.149 39.7277 312.094 39.0677 312.814C38.4077 313.534 37.5977 314.044 36.6377 314.344C35.6477 314.614 34.5377 314.749 33.3077 314.749H18.0977C16.5677 314.749 15.2777 314.554 14.2277 314.164C13.1777 313.744 12.3377 313.144 11.7077 312.364C11.0477 311.554 10.5827 310.564 10.3127 309.394C10.0427 308.224 9.90772 306.889 9.90772 305.389C9.90772 304.039 9.95272 302.824 10.0427 301.744C10.1327 300.634 10.2227 299.689 10.3127 298.909C10.4327 298.009 10.5677 297.199 10.7177 296.479H19.3127V302.644H15.2177C15.1877 302.854 15.1427 303.094 15.0827 303.364C15.0527 303.604 15.0227 303.874 14.9927 304.174C14.9627 304.474 14.9477 304.789 14.9477 305.119C14.9477 306.349 15.2327 307.174 15.8027 307.594C16.3427 307.984 17.1377 308.179 18.1877 308.179H32.8127C33.9527 308.179 34.7927 307.999 35.3327 307.639C35.8427 307.249 36.0977 306.484 36.0977 305.344C36.0977 304.984 36.0977 304.639 36.0977 304.309C36.0677 303.949 36.0377 303.649 36.0077 303.409C35.9777 303.109 35.9327 302.824 35.8727 302.554H31.2377V296.254H40.2827ZM40.5077 278.493L32.7677 280.113V285.333L40.5077 286.683V293.433L10.4927 287.583L10.4927 277.728L40.5077 271.653L40.5077 278.493ZM21.7427 281.733C21.2327 281.853 20.5877 281.973 19.8077 282.093C19.0277 282.183 18.2777 282.273 17.5577 282.363C16.7177 282.483 15.8327 282.603 14.9027 282.723C15.8327 282.843 16.7177 282.963 17.5577 283.083C18.3077 283.203 19.0727 283.323 19.8527 283.443C20.6327 283.563 21.2777 283.653 21.7877 283.713L27.9077 284.748V280.653L21.7427 281.733ZM32.5877 250.081C34.1177 250.081 35.4227 250.321 36.5027 250.801C37.5827 251.281 38.4677 251.956 39.1577 252.826C39.8177 253.696 40.2977 254.761 40.5977 256.021C40.9277 257.281 41.0927 258.691 41.0927 260.251C41.0927 261.721 41.0477 263.011 40.9577 264.121C40.8977 265.201 40.8077 266.116 40.6877 266.866C40.5677 267.736 40.4177 268.486 40.2377 269.116H32.7227V262.861H35.8277C35.8877 262.681 35.9327 262.441 35.9627 262.141C35.9927 261.901 36.0227 261.601 36.0527 261.241C36.0527 260.851 36.0527 260.401 36.0527 259.891C36.0527 258.661 35.7827 257.821 35.2427 257.371C34.6727 256.921 34.0127 256.696 33.2627 256.696C32.8127 256.696 32.4077 256.771 32.0477 256.921C31.6877 257.071 31.3577 257.296 31.0577 257.596C30.7277 257.866 30.4127 258.226 30.1127 258.676C29.8127 259.096 29.4677 259.591 29.0777 260.161L26.1977 264.571C25.3877 265.801 24.3377 266.866 23.0477 267.766C21.7277 268.636 20.0477 269.071 18.0077 269.071C15.3377 269.071 13.3277 268.291 11.9777 266.731C10.5977 265.171 9.90772 262.786 9.90772 259.576C9.90772 258.136 9.95272 256.876 10.0427 255.796C10.1327 254.716 10.2227 253.816 10.3127 253.096C10.4327 252.256 10.5677 251.536 10.7177 250.936H18.0077V257.236H15.1277C15.0977 257.416 15.0677 257.611 15.0377 257.821C15.0077 258.001 14.9927 258.226 14.9927 258.496C14.9627 258.766 14.9477 259.066 14.9477 259.396C14.9477 260.656 15.2177 261.496 15.7577 261.916C16.2677 262.336 16.9127 262.546 17.6927 262.546C18.6527 262.546 19.3577 262.321 19.8077 261.871C20.2577 261.391 20.7227 260.761 21.2027 259.981L24.4427 254.761C25.4027 253.231 26.5127 252.076 27.7727 251.296C29.0027 250.486 30.6077 250.081 32.5877 250.081ZM40.5077 233.503H27.5477V239.308H40.5077V245.923H10.4927L10.4927 239.308H22.3277V233.503H10.4927L10.4927 226.843H40.5077L40.5077 233.503ZM32.6327 202.462C34.0727 202.462 35.3027 202.612 36.3227 202.912C37.3127 203.212 38.1227 203.707 38.7527 204.397C39.3527 205.087 39.8027 205.987 40.1027 207.097C40.3727 208.207 40.5077 209.557 40.5077 211.147V221.182H10.4927L10.4927 211.732C10.4927 210.382 10.5527 209.167 10.6727 208.087C10.7927 207.007 11.0777 206.092 11.5277 205.342C11.9477 204.562 12.5927 203.962 13.4627 203.542C14.3327 203.122 15.5177 202.912 17.0177 202.912H18.5027C19.2527 202.912 19.9577 202.942 20.6177 203.002C21.2777 203.062 21.8777 203.227 22.4177 203.497C22.9577 203.737 23.4227 204.112 23.8127 204.622C24.1727 205.102 24.4427 205.792 24.6227 206.692C24.8027 205.642 25.1027 204.832 25.5227 204.262C25.9427 203.692 26.4377 203.272 27.0077 203.002C27.5777 202.732 28.1927 202.582 28.8527 202.552C29.5127 202.492 30.1727 202.462 30.8327 202.462H32.6327ZM30.2027 209.032C29.7227 209.032 29.3177 209.062 28.9877 209.122C28.6277 209.182 28.3277 209.317 28.0877 209.527C27.8477 209.707 27.6677 209.992 27.5477 210.382C27.4277 210.772 27.3677 211.282 27.3677 211.912V214.567H35.2877V212.092C35.2877 211.342 35.2277 210.772 35.1077 210.382C34.9877 209.962 34.7927 209.662 34.5227 209.482C34.2527 209.272 33.9227 209.152 33.5327 209.122C33.1427 209.062 32.6777 209.032 32.1377 209.032H30.2027ZM17.8727 209.482C17.3627 209.482 16.9577 209.542 16.6577 209.662C16.3577 209.752 16.1477 209.902 16.0277 210.112C15.8777 210.322 15.7877 210.607 15.7577 210.967C15.7277 211.297 15.7127 211.687 15.7127 212.137L15.7127 214.567H22.5077V211.912C22.5077 211.342 22.4477 210.907 22.3277 210.607C22.2077 210.277 22.0427 210.037 21.8327 209.887C21.5927 209.707 21.3077 209.602 20.9777 209.572C20.6477 209.512 20.2577 209.482 19.8077 209.482H17.8727ZM40.5077 184.231L32.7677 185.851V191.071L40.5077 192.421V199.171L10.4927 193.321L10.4927 183.466L40.5077 177.391V184.231ZM21.7427 187.471C21.2327 187.591 20.5877 187.711 19.8077 187.831C19.0277 187.921 18.2777 188.011 17.5577 188.101C16.7177 188.221 15.8327 188.341 14.9027 188.461C15.8327 188.581 16.7177 188.701 17.5577 188.821C18.3077 188.941 19.0727 189.061 19.8527 189.181C20.6327 189.301 21.2777 189.391 21.7877 189.451L27.9077 190.486V186.391L21.7427 187.471ZM40.2827 156.112C40.4327 156.802 40.5677 157.612 40.6877 158.542C40.8077 159.322 40.8977 160.282 40.9577 161.422C41.0477 162.562 41.0927 163.867 41.0927 165.337C41.0927 167.137 40.9127 168.637 40.5527 169.837C40.2227 171.007 39.7277 171.952 39.0677 172.672C38.4077 173.392 37.5977 173.902 36.6377 174.202C35.6477 174.472 34.5377 174.607 33.3077 174.607H18.0977C16.5677 174.607 15.2777 174.412 14.2277 174.022C13.1777 173.602 12.3377 173.002 11.7077 172.222C11.0477 171.412 10.5827 170.422 10.3127 169.252C10.0427 168.082 9.90771 166.747 9.90771 165.247C9.90771 163.897 9.95271 162.682 10.0427 161.602C10.1327 160.492 10.2227 159.547 10.3127 158.767C10.4327 157.867 10.5677 157.057 10.7177 156.337L19.3127 156.337L19.3127 162.502H15.2177C15.1877 162.712 15.1427 162.952 15.0827 163.222C15.0527 163.462 15.0227 163.732 14.9927 164.032C14.9627 164.332 14.9477 164.647 14.9477 164.977C14.9477 166.207 15.2327 167.032 15.8027 167.452C16.3427 167.842 17.1377 168.037 18.1877 168.037L32.8127 168.037C33.9527 168.037 34.7927 167.857 35.3327 167.497C35.8427 167.107 36.0977 166.342 36.0977 165.202C36.0977 164.842 36.0977 164.497 36.0977 164.167C36.0677 163.807 36.0377 163.507 36.0077 163.267C35.9777 162.967 35.9327 162.682 35.8727 162.412H31.2377V156.112L40.2827 156.112ZM40.5077 137.767L27.9077 144.652L40.5077 144.652L40.5077 151.177L10.4927 151.177L10.4927 144.652H21.9677L10.4927 137.812L10.4927 130.657L24.5327 139.297L40.5077 130.252V137.767Z" stroke="#FF7E21" stroke-width="4" mask="url(#path-2-outside-2_478_1555)"/>
<mask id="path-3-outside-3_478_1555" maskUnits="userSpaceOnUse" x="7.90771" y="-78.2451" width="36" height="191" fill="black">
<rect fill="white" x="7.90771" y="-78.2451" width="36" height="191"/>
<path d="M40.2827 91.7567C40.4327 92.4467 40.5677 93.2567 40.6877 94.1867C40.8077 94.9667 40.8977 95.9267 40.9577 97.0667C41.0477 98.2067 41.0927 99.5117 41.0927 100.982C41.0927 102.782 40.9127 104.282 40.5527 105.482C40.2227 106.652 39.7277 107.597 39.0677 108.317C38.4077 109.037 37.5977 109.547 36.6377 109.847C35.6477 110.117 34.5377 110.252 33.3077 110.252H18.0977C16.5677 110.252 15.2777 110.057 14.2277 109.667C13.1777 109.247 12.3377 108.647 11.7077 107.867C11.0477 107.057 10.5827 106.067 10.3127 104.897C10.0427 103.727 9.90772 102.392 9.90772 100.892C9.90772 99.5417 9.95272 98.3267 10.0427 97.2467C10.1327 96.1367 10.2227 95.1917 10.3127 94.4117C10.4327 93.5117 10.5677 92.7017 10.7177 91.9817H19.3127V98.1467H15.2177C15.1877 98.3567 15.1427 98.5967 15.0827 98.8667C15.0527 99.1067 15.0227 99.3767 14.9927 99.6767C14.9627 99.9767 14.9477 100.292 14.9477 100.622C14.9477 101.852 15.2327 102.677 15.8027 103.097C16.3427 103.487 17.1377 103.682 18.1877 103.682H32.8127C33.9527 103.682 34.7927 103.502 35.3327 103.142C35.8427 102.752 36.0977 101.987 36.0977 100.847C36.0977 100.487 36.0977 100.142 36.0977 99.8117C36.0677 99.4517 36.0377 99.1517 36.0077 98.9117C35.9777 98.6117 35.9327 98.3267 35.8727 98.0567H31.2377V91.7567H40.2827ZM40.5077 73.9965L32.7677 75.6165V80.8365L40.5077 82.1865V88.9365L10.4927 83.0865L10.4927 73.2315L40.5077 67.1565L40.5077 73.9965ZM21.7427 77.2365C21.2327 77.3565 20.5877 77.4765 19.8077 77.5965C19.0277 77.6865 18.2777 77.7765 17.5577 77.8665C16.7177 77.9865 15.8327 78.1065 14.9027 78.2265C15.8327 78.3465 16.7177 78.4665 17.5577 78.5865C18.3077 78.7065 19.0727 78.8265 19.8527 78.9465C20.6327 79.0665 21.2777 79.1565 21.7877 79.2165L27.9077 80.2515V76.1565L21.7427 77.2365ZM32.5877 45.5839C34.1177 45.5839 35.4227 45.8239 36.5027 46.3039C37.5827 46.7839 38.4677 47.4589 39.1577 48.3289C39.8177 49.1989 40.2977 50.2639 40.5977 51.5239C40.9277 52.7839 41.0927 54.1939 41.0927 55.7539C41.0927 57.2239 41.0477 58.5139 40.9577 59.6239C40.8977 60.7039 40.8077 61.6189 40.6877 62.3689C40.5677 63.2389 40.4177 63.9889 40.2377 64.6189H32.7227V58.3639H35.8277C35.8877 58.1839 35.9327 57.9439 35.9627 57.6439C35.9927 57.4039 36.0227 57.1039 36.0527 56.7439C36.0527 56.3539 36.0527 55.9039 36.0527 55.3939C36.0527 54.1639 35.7827 53.3239 35.2427 52.8739C34.6727 52.4239 34.0127 52.1989 33.2627 52.1989C32.8127 52.1989 32.4077 52.2739 32.0477 52.4239C31.6877 52.5739 31.3577 52.7989 31.0577 53.0989C30.7277 53.3689 30.4127 53.7289 30.1127 54.1789C29.8127 54.5989 29.4677 55.0939 29.0777 55.6639L26.1977 60.0739C25.3877 61.3039 24.3377 62.3689 23.0477 63.2689C21.7277 64.1389 20.0477 64.5739 18.0077 64.5739C15.3377 64.5739 13.3277 63.7939 11.9777 62.2339C10.5977 60.6739 9.90772 58.2889 9.90772 55.0789C9.90772 53.6389 9.95272 52.3789 10.0427 51.2989C10.1327 50.2189 10.2227 49.3189 10.3127 48.5989C10.4327 47.7589 10.5677 47.0389 10.7177 46.4389H18.0077V52.7389H15.1277C15.0977 52.9189 15.0677 53.1139 15.0377 53.3239C15.0077 53.5039 14.9927 53.7289 14.9927 53.9989C14.9627 54.2689 14.9477 54.5689 14.9477 54.8989C14.9477 56.1589 15.2177 56.9989 15.7577 57.4189C16.2677 57.8389 16.9127 58.0489 17.6927 58.0489C18.6527 58.0489 19.3577 57.8239 19.8077 57.3739C20.2577 56.8939 20.7227 56.2639 21.2027 55.4839L24.4427 50.2639C25.4027 48.7339 26.5127 47.5789 27.7727 46.7989C29.0027 45.9889 30.6077 45.5839 32.5877 45.5839ZM40.5077 29.006H27.5477V34.811H40.5077V41.426H10.4927L10.4927 34.811H22.3277V29.006H10.4927L10.4927 22.346H40.5077L40.5077 29.006ZM32.6327 -2.03523C34.0727 -2.03523 35.3027 -1.88524 36.3227 -1.58524C37.3127 -1.28523 38.1227 -0.790237 38.7527 -0.100235C39.3527 0.589767 39.8027 1.48976 40.1027 2.59976C40.3727 3.70976 40.5077 5.05977 40.5077 6.64977V16.6848H10.4927L10.4927 7.23476C10.4927 5.88477 10.5527 4.66977 10.6727 3.58977C10.7927 2.50977 11.0777 1.59476 11.5277 0.844765C11.9477 0.0647659 12.5927 -0.535233 13.4627 -0.955231C14.3327 -1.37523 15.5177 -1.58524 17.0177 -1.58524H18.5027C19.2527 -1.58524 19.9577 -1.55523 20.6177 -1.49523C21.2777 -1.43523 21.8777 -1.27023 22.4177 -1.00024C22.9577 -0.760239 23.4227 -0.385239 23.8127 0.124763C24.1727 0.604767 24.4427 1.29476 24.6227 2.19476C24.8027 1.14476 25.1027 0.334763 25.5227 -0.235237C25.9427 -0.805237 26.4377 -1.22523 27.0077 -1.49523C27.5777 -1.76523 28.1927 -1.91524 28.8527 -1.94524C29.5127 -2.00523 30.1727 -2.03523 30.8327 -2.03523H32.6327ZM30.2027 4.53477C29.7227 4.53477 29.3177 4.56477 28.9877 4.62476C28.6277 4.68476 28.3277 4.81976 28.0877 5.02976C27.8477 5.20976 27.6677 5.49477 27.5477 5.88477C27.4277 6.27477 27.3677 6.78477 27.3677 7.41476V10.0698H35.2877V7.59476C35.2877 6.84476 35.2277 6.27477 35.1077 5.88477C34.9877 5.46477 34.7927 5.16476 34.5227 4.98476C34.2527 4.77477 33.9227 4.65476 33.5327 4.62476C33.1427 4.56477 32.6777 4.53477 32.1377 4.53477H30.2027ZM17.8727 4.98476C17.3627 4.98476 16.9577 5.04476 16.6577 5.16476C16.3577 5.25476 16.1477 5.40477 16.0277 5.61477C15.8777 5.82477 15.7877 6.10976 15.7577 6.46976C15.7277 6.79977 15.7127 7.18977 15.7127 7.63976L15.7127 10.0698H22.5077V7.41476C22.5077 6.84476 22.4477 6.40977 22.3277 6.10976C22.2077 5.77976 22.0427 5.53976 21.8327 5.38976C21.5927 5.20976 21.3077 5.10477 20.9777 5.07477C20.6477 5.01477 20.2577 4.98476 19.8077 4.98476H17.8727ZM40.5077 -20.2662L32.7677 -18.6462V-13.4262L40.5077 -12.0762V-5.32621L10.4927 -11.1762L10.4927 -21.0312L40.5077 -27.1062V-20.2662ZM21.7427 -17.0262C21.2327 -16.9062 20.5877 -16.7862 19.8077 -16.6662C19.0277 -16.5762 18.2777 -16.4862 17.5577 -16.3962C16.7177 -16.2762 15.8327 -16.1562 14.9027 -16.0362C15.8327 -15.9162 16.7177 -15.7962 17.5577 -15.6762C18.3077 -15.5562 19.0727 -15.4362 19.8527 -15.3162C20.6327 -15.1962 21.2777 -15.1062 21.7877 -15.0462L27.9077 -14.0112V-18.1062L21.7427 -17.0262ZM40.2827 -48.3849C40.4327 -47.6949 40.5677 -46.8849 40.6877 -45.9549C40.8077 -45.1749 40.8977 -44.2149 40.9577 -43.0749C41.0477 -41.9349 41.0927 -40.6299 41.0927 -39.1599C41.0927 -37.3599 40.9127 -35.8599 40.5527 -34.6599C40.2227 -33.4899 39.7277 -32.5449 39.0677 -31.8249C38.4077 -31.1049 37.5977 -30.5949 36.6377 -30.2949C35.6477 -30.0249 34.5377 -29.8899 33.3077 -29.8899H18.0977C16.5677 -29.8899 15.2777 -30.0849 14.2277 -30.4749C13.1777 -30.8949 12.3377 -31.4949 11.7077 -32.2749C11.0477 -33.0849 10.5827 -34.0749 10.3127 -35.2449C10.0427 -36.4149 9.90771 -37.7499 9.90771 -39.2499C9.90771 -40.5999 9.95271 -41.8149 10.0427 -42.8949C10.1327 -44.0049 10.2227 -44.9499 10.3127 -45.7299C10.4327 -46.6299 10.5677 -47.4399 10.7177 -48.1599L19.3127 -48.1599L19.3127 -41.9949H15.2177C15.1877 -41.7849 15.1427 -41.5449 15.0827 -41.2749C15.0527 -41.0349 15.0227 -40.7649 14.9927 -40.4649C14.9627 -40.1649 14.9477 -39.8499 14.9477 -39.5199C14.9477 -38.2899 15.2327 -37.4649 15.8027 -37.0449C16.3427 -36.6549 17.1377 -36.4599 18.1877 -36.4599L32.8127 -36.4599C33.9527 -36.4599 34.7927 -36.6399 35.3327 -36.9999C35.8427 -37.3899 36.0977 -38.1549 36.0977 -39.2949C36.0977 -39.6549 36.0977 -39.9999 36.0977 -40.3299C36.0677 -40.6899 36.0377 -40.9899 36.0077 -41.2299C35.9777 -41.5299 35.9327 -41.8149 35.8727 -42.0849H31.2377V-48.3849L40.2827 -48.3849ZM40.5077 -66.7301L27.9077 -59.8451L40.5077 -59.8451L40.5077 -53.3201L10.4927 -53.3201L10.4927 -59.8451H21.9677L10.4927 -66.6851L10.4927 -73.8401L24.5327 -65.2001L40.5077 -74.2451V-66.7301Z"/>
</mask>
<path d="M40.2827 91.7567C40.4327 92.4467 40.5677 93.2567 40.6877 94.1867C40.8077 94.9667 40.8977 95.9267 40.9577 97.0667C41.0477 98.2067 41.0927 99.5117 41.0927 100.982C41.0927 102.782 40.9127 104.282 40.5527 105.482C40.2227 106.652 39.7277 107.597 39.0677 108.317C38.4077 109.037 37.5977 109.547 36.6377 109.847C35.6477 110.117 34.5377 110.252 33.3077 110.252H18.0977C16.5677 110.252 15.2777 110.057 14.2277 109.667C13.1777 109.247 12.3377 108.647 11.7077 107.867C11.0477 107.057 10.5827 106.067 10.3127 104.897C10.0427 103.727 9.90772 102.392 9.90772 100.892C9.90772 99.5417 9.95272 98.3267 10.0427 97.2467C10.1327 96.1367 10.2227 95.1917 10.3127 94.4117C10.4327 93.5117 10.5677 92.7017 10.7177 91.9817H19.3127V98.1467H15.2177C15.1877 98.3567 15.1427 98.5967 15.0827 98.8667C15.0527 99.1067 15.0227 99.3767 14.9927 99.6767C14.9627 99.9767 14.9477 100.292 14.9477 100.622C14.9477 101.852 15.2327 102.677 15.8027 103.097C16.3427 103.487 17.1377 103.682 18.1877 103.682H32.8127C33.9527 103.682 34.7927 103.502 35.3327 103.142C35.8427 102.752 36.0977 101.987 36.0977 100.847C36.0977 100.487 36.0977 100.142 36.0977 99.8117C36.0677 99.4517 36.0377 99.1517 36.0077 98.9117C35.9777 98.6117 35.9327 98.3267 35.8727 98.0567H31.2377V91.7567H40.2827ZM40.5077 73.9965L32.7677 75.6165V80.8365L40.5077 82.1865V88.9365L10.4927 83.0865L10.4927 73.2315L40.5077 67.1565L40.5077 73.9965ZM21.7427 77.2365C21.2327 77.3565 20.5877 77.4765 19.8077 77.5965C19.0277 77.6865 18.2777 77.7765 17.5577 77.8665C16.7177 77.9865 15.8327 78.1065 14.9027 78.2265C15.8327 78.3465 16.7177 78.4665 17.5577 78.5865C18.3077 78.7065 19.0727 78.8265 19.8527 78.9465C20.6327 79.0665 21.2777 79.1565 21.7877 79.2165L27.9077 80.2515V76.1565L21.7427 77.2365ZM32.5877 45.5839C34.1177 45.5839 35.4227 45.8239 36.5027 46.3039C37.5827 46.7839 38.4677 47.4589 39.1577 48.3289C39.8177 49.1989 40.2977 50.2639 40.5977 51.5239C40.9277 52.7839 41.0927 54.1939 41.0927 55.7539C41.0927 57.2239 41.0477 58.5139 40.9577 59.6239C40.8977 60.7039 40.8077 61.6189 40.6877 62.3689C40.5677 63.2389 40.4177 63.9889 40.2377 64.6189H32.7227V58.3639H35.8277C35.8877 58.1839 35.9327 57.9439 35.9627 57.6439C35.9927 57.4039 36.0227 57.1039 36.0527 56.7439C36.0527 56.3539 36.0527 55.9039 36.0527 55.3939C36.0527 54.1639 35.7827 53.3239 35.2427 52.8739C34.6727 52.4239 34.0127 52.1989 33.2627 52.1989C32.8127 52.1989 32.4077 52.2739 32.0477 52.4239C31.6877 52.5739 31.3577 52.7989 31.0577 53.0989C30.7277 53.3689 30.4127 53.7289 30.1127 54.1789C29.8127 54.5989 29.4677 55.0939 29.0777 55.6639L26.1977 60.0739C25.3877 61.3039 24.3377 62.3689 23.0477 63.2689C21.7277 64.1389 20.0477 64.5739 18.0077 64.5739C15.3377 64.5739 13.3277 63.7939 11.9777 62.2339C10.5977 60.6739 9.90772 58.2889 9.90772 55.0789C9.90772 53.6389 9.95272 52.3789 10.0427 51.2989C10.1327 50.2189 10.2227 49.3189 10.3127 48.5989C10.4327 47.7589 10.5677 47.0389 10.7177 46.4389H18.0077V52.7389H15.1277C15.0977 52.9189 15.0677 53.1139 15.0377 53.3239C15.0077 53.5039 14.9927 53.7289 14.9927 53.9989C14.9627 54.2689 14.9477 54.5689 14.9477 54.8989C14.9477 56.1589 15.2177 56.9989 15.7577 57.4189C16.2677 57.8389 16.9127 58.0489 17.6927 58.0489C18.6527 58.0489 19.3577 57.8239 19.8077 57.3739C20.2577 56.8939 20.7227 56.2639 21.2027 55.4839L24.4427 50.2639C25.4027 48.7339 26.5127 47.5789 27.7727 46.7989C29.0027 45.9889 30.6077 45.5839 32.5877 45.5839ZM40.5077 29.006H27.5477V34.811H40.5077V41.426H10.4927L10.4927 34.811H22.3277V29.006H10.4927L10.4927 22.346H40.5077L40.5077 29.006ZM32.6327 -2.03523C34.0727 -2.03523 35.3027 -1.88524 36.3227 -1.58524C37.3127 -1.28523 38.1227 -0.790237 38.7527 -0.100235C39.3527 0.589767 39.8027 1.48976 40.1027 2.59976C40.3727 3.70976 40.5077 5.05977 40.5077 6.64977V16.6848H10.4927L10.4927 7.23476C10.4927 5.88477 10.5527 4.66977 10.6727 3.58977C10.7927 2.50977 11.0777 1.59476 11.5277 0.844765C11.9477 0.0647659 12.5927 -0.535233 13.4627 -0.955231C14.3327 -1.37523 15.5177 -1.58524 17.0177 -1.58524H18.5027C19.2527 -1.58524 19.9577 -1.55523 20.6177 -1.49523C21.2777 -1.43523 21.8777 -1.27023 22.4177 -1.00024C22.9577 -0.760239 23.4227 -0.385239 23.8127 0.124763C24.1727 0.604767 24.4427 1.29476 24.6227 2.19476C24.8027 1.14476 25.1027 0.334763 25.5227 -0.235237C25.9427 -0.805237 26.4377 -1.22523 27.0077 -1.49523C27.5777 -1.76523 28.1927 -1.91524 28.8527 -1.94524C29.5127 -2.00523 30.1727 -2.03523 30.8327 -2.03523H32.6327ZM30.2027 4.53477C29.7227 4.53477 29.3177 4.56477 28.9877 4.62476C28.6277 4.68476 28.3277 4.81976 28.0877 5.02976C27.8477 5.20976 27.6677 5.49477 27.5477 5.88477C27.4277 6.27477 27.3677 6.78477 27.3677 7.41476V10.0698H35.2877V7.59476C35.2877 6.84476 35.2277 6.27477 35.1077 5.88477C34.9877 5.46477 34.7927 5.16476 34.5227 4.98476C34.2527 4.77477 33.9227 4.65476 33.5327 4.62476C33.1427 4.56477 32.6777 4.53477 32.1377 4.53477H30.2027ZM17.8727 4.98476C17.3627 4.98476 16.9577 5.04476 16.6577 5.16476C16.3577 5.25476 16.1477 5.40477 16.0277 5.61477C15.8777 5.82477 15.7877 6.10976 15.7577 6.46976C15.7277 6.79977 15.7127 7.18977 15.7127 7.63976L15.7127 10.0698H22.5077V7.41476C22.5077 6.84476 22.4477 6.40977 22.3277 6.10976C22.2077 5.77976 22.0427 5.53976 21.8327 5.38976C21.5927 5.20976 21.3077 5.10477 20.9777 5.07477C20.6477 5.01477 20.2577 4.98476 19.8077 4.98476H17.8727ZM40.5077 -20.2662L32.7677 -18.6462V-13.4262L40.5077 -12.0762V-5.32621L10.4927 -11.1762L10.4927 -21.0312L40.5077 -27.1062V-20.2662ZM21.7427 -17.0262C21.2327 -16.9062 20.5877 -16.7862 19.8077 -16.6662C19.0277 -16.5762 18.2777 -16.4862 17.5577 -16.3962C16.7177 -16.2762 15.8327 -16.1562 14.9027 -16.0362C15.8327 -15.9162 16.7177 -15.7962 17.5577 -15.6762C18.3077 -15.5562 19.0727 -15.4362 19.8527 -15.3162C20.6327 -15.1962 21.2777 -15.1062 21.7877 -15.0462L27.9077 -14.0112V-18.1062L21.7427 -17.0262ZM40.2827 -48.3849C40.4327 -47.6949 40.5677 -46.8849 40.6877 -45.9549C40.8077 -45.1749 40.8977 -44.2149 40.9577 -43.0749C41.0477 -41.9349 41.0927 -40.6299 41.0927 -39.1599C41.0927 -37.3599 40.9127 -35.8599 40.5527 -34.6599C40.2227 -33.4899 39.7277 -32.5449 39.0677 -31.8249C38.4077 -31.1049 37.5977 -30.5949 36.6377 -30.2949C35.6477 -30.0249 34.5377 -29.8899 33.3077 -29.8899H18.0977C16.5677 -29.8899 15.2777 -30.0849 14.2277 -30.4749C13.1777 -30.8949 12.3377 -31.4949 11.7077 -32.2749C11.0477 -33.0849 10.5827 -34.0749 10.3127 -35.2449C10.0427 -36.4149 9.90771 -37.7499 9.90771 -39.2499C9.90771 -40.5999 9.95271 -41.8149 10.0427 -42.8949C10.1327 -44.0049 10.2227 -44.9499 10.3127 -45.7299C10.4327 -46.6299 10.5677 -47.4399 10.7177 -48.1599L19.3127 -48.1599L19.3127 -41.9949H15.2177C15.1877 -41.7849 15.1427 -41.5449 15.0827 -41.2749C15.0527 -41.0349 15.0227 -40.7649 14.9927 -40.4649C14.9627 -40.1649 14.9477 -39.8499 14.9477 -39.5199C14.9477 -38.2899 15.2327 -37.4649 15.8027 -37.0449C16.3427 -36.6549 17.1377 -36.4599 18.1877 -36.4599L32.8127 -36.4599C33.9527 -36.4599 34.7927 -36.6399 35.3327 -36.9999C35.8427 -37.3899 36.0977 -38.1549 36.0977 -39.2949C36.0977 -39.6549 36.0977 -39.9999 36.0977 -40.3299C36.0677 -40.6899 36.0377 -40.9899 36.0077 -41.2299C35.9777 -41.5299 35.9327 -41.8149 35.8727 -42.0849H31.2377V-48.3849L40.2827 -48.3849ZM40.5077 -66.7301L27.9077 -59.8451L40.5077 -59.8451L40.5077 -53.3201L10.4927 -53.3201L10.4927 -59.8451H21.9677L10.4927 -66.6851L10.4927 -73.8401L24.5327 -65.2001L40.5077 -74.2451V-66.7301Z" stroke="#FF7E21" stroke-width="4" mask="url(#path-3-outside-3_478_1555)"/>
</g>
<defs>
<clipPath id="clip0_478_1555">
<rect width="445" height="51" fill="white" transform="translate(0 445) rotate(-90)"/>
</clipPath>
</defs>
</svg>
