<svg width="851" height="445" viewBox="0 0 851 445" fill="none" xmlns="http://www.w3.org/2000/svg">
<path d="M43.8008 -35.042L43.9028 -35.0244L50.0125 -40.0586C49.748 -40.6878 49.5276 -41.3433 49.2909 -41.9864C49.2632 -41.9746 49.2371 -41.9583 49.2075 -41.9465L49.2467 -42.0604C49.2343 -42.0217 49.2056 -41.9466 49.2055 -41.9444C49.1712 -41.9722 49.1372 -42.0042 49.105 -42.034C48.8203 -41.9378 48.5361 -41.824 48.2466 -41.7912C47.8759 -41.749 47.5438 -42.0147 47.6168 -42.4237C47.7134 -42.969 48.1116 -42.818 48.3959 -42.6286C48.6473 -42.4603 48.8717 -42.2386 49.103 -42.0319C49.154 -42.0493 49.2032 -42.0667 49.2541 -42.0818C49.2652 -42.0508 49.278 -42.0175 49.289 -41.9865C50.0065 -42.3141 50.5659 -42.9302 51.225 -43.8538C51.5438 -42.9299 51.4524 -42.0224 51.3227 -41.1405L63.2583 -50.9731C60.2071 -52.6152 60.1841 -52.6903 61.0935 -56.0193C61.4637 -57.3745 61.9494 -58.7137 62.7946 -59.8971C64.7938 -57.2228 64.9527 -57.0717 63.2657 -54.8006C62.1558 -53.3063 63.2446 -52.3391 63.4072 -51.0951L82.8337 -67.0974C81.4685 -68.1795 80.4534 -69.5141 79.1651 -70.4488C78.2978 -71.0788 78.6723 -72.314 78.5115 -73.3027C78.2848 -74.6869 77.4149 -75.4087 76.3179 -74.2366C74.7194 -72.5308 74.1561 -73.5877 73.7094 -75.1498C73.467 -75.9961 73.3944 -76.911 73.1819 -77.7734C73.0118 -78.4615 73.0689 -79.0915 73.5507 -79.5671C73.7739 -79.7861 74.018 -79.9518 74.2717 -80.0931L71.3196 -80.6118L51.7398 -64.4811C52.1905 -62.5655 51.856 -60.5412 51.5411 -58.5488C51.3314 -57.2146 50.795 -56.3445 49.1477 -57.1121C47.9996 -57.6479 46.6434 -58.4176 44.9331 -57.8423C44.9418 -58.1865 44.9369 -58.527 44.9262 -58.8677L20.8981 -39.0742L39.7742 -35.7529C40.6901 -36.4272 41.781 -36.9867 42.2346 -36.8856C42.598 -36.806 43.2493 -35.9763 43.8009 -35.0442L43.8008 -35.042ZM59.8322 -59.6202C60.1664 -59.8385 60.469 -59.7399 60.6907 -59.1279C60.6652 -58.9677 60.7187 -58.4833 60.5383 -58.2994C60.1094 -57.865 59.7142 -58.1314 59.5195 -58.6462C59.3792 -59.0189 59.512 -59.4099 59.832 -59.618L59.8322 -59.6202ZM46.9624 -45.9777C47.3314 -46.0484 47.5397 -45.8165 47.6085 -45.4601C47.683 -45.0773 47.5534 -44.7297 47.1622 -44.719C46.9934 -44.7135 46.7544 -44.8943 46.6777 -45.0701C46.526 -45.4193 46.6562 -45.7494 46.9622 -45.9755L46.9624 -45.9777ZM46.2015 -53.1178C47.0229 -51.8624 47.0796 -50.3818 46.3717 -48.6761C45.9019 -50.2108 45.8101 -51.5062 46.2015 -53.1178Z" fill="#7F2E00"/>
<path d="M120.115 -72.0203L101.111 -56.3654C101.076 -55.909 100.883 -55.5229 100.323 -55.3583C100.155 -55.3091 100.01 -55.3156 99.8742 -55.3457L69.6956 -30.4849L92.6986 -26.4372L143.118 -67.9727L120.115 -72.0225L120.115 -72.0203ZM98.9475 -48.6674C98.5394 -50.387 98.2045 -51.5537 98.0025 -52.758C97.9219 -53.2371 98.1704 -53.817 98.6999 -53.935C99.2527 -54.0584 99.4359 -53.5442 99.5919 -53.0748C99.9965 -51.8418 100.076 -50.6168 98.9477 -48.6696L98.9475 -48.6674ZM102.008 -52.8354C101.875 -52.9941 101.693 -53.1265 101.618 -53.3153C101.515 -53.5773 101.644 -53.7635 101.894 -53.8133C102.033 -53.6675 102.255 -53.5441 102.286 -53.366C102.311 -53.2209 102.11 -53.014 102.008 -52.8332L102.008 -52.8354ZM102.697 -47.1686C102.389 -47.6273 102.327 -48.0991 102.805 -48.5072C103.257 -48.8948 103.759 -48.8002 104.011 -48.3506C104.72 -47.0776 105.59 -45.8434 105.185 -43.4951C104.188 -44.9663 103.438 -46.0665 102.697 -47.1707L102.697 -47.1686ZM133.234 -59.9672C132.503 -59.6401 131.973 -60.1983 131.545 -60.765C131.312 -61.0765 131.404 -61.4584 131.76 -61.7434C132.432 -61.9967 133.082 -61.9305 133.509 -61.2482C133.785 -60.804 133.702 -60.1774 133.234 -59.9672Z" fill="#7F2E00"/>
<path d="M183.859 -60.8012C183.789 -60.656 183.72 -60.5086 183.623 -60.4715C183.501 -60.4225 183.314 -60.6119 183.156 -60.6975C183.194 -60.7613 183.23 -60.8338 183.264 -60.9064L179.981 -61.4836C180.036 -61.3961 180.09 -61.302 180.14 -61.2016C180.512 -60.4521 181.105 -59.529 180.287 -58.8068C179.393 -58.0181 178.894 -59.094 178.442 -59.725C178.007 -60.3312 177.644 -61.0258 178.032 -61.8285L168.91 -63.4335L118.49 -21.8981L141.493 -17.8505L191.914 -59.3858L183.863 -60.8032L183.859 -60.8012Z" fill="#7F2E00"/>
<path d="M217.702 -54.8445L196.902 -37.7086C196.988 -37.2816 197.066 -36.8659 197.192 -36.4807C197.354 -35.9827 196.94 -35.5193 196.439 -35.4022C196.055 -35.3104 195.722 -35.5696 195.681 -35.9532C195.656 -36.1811 195.633 -36.4112 195.61 -36.6434L167.282 -13.3068L170.546 -12.7327C170.577 -13.1719 170.775 -13.5643 171.29 -13.7942C171.93 -14.0795 172.335 -13.6666 172.539 -13.0184C172.608 -12.7971 172.639 -12.5754 172.629 -12.3665L190.285 -9.25922L240.705 -50.7947L217.702 -54.8445ZM204.056 -34.7503C203.146 -34.5556 201.768 -32.8334 201.349 -35.415C201.175 -36.4828 200.447 -37.6235 201.655 -38.5595C202.269 -39.0357 204.92 -36.9929 205.137 -35.9014C205.311 -35.0189 204.834 -34.7786 204.056 -34.7503ZM206.566 -26.0005C206.243 -25.7358 205.906 -25.8491 205.738 -26.2667C205.561 -26.7087 205.928 -27.7435 206.323 -27.9809C206.691 -28.1127 207.047 -28.0443 207.182 -27.6522C207.425 -26.9434 207.05 -26.4019 206.566 -26.0027L206.566 -26.0005ZM214.394 -47.1194C214.116 -47.2191 213.904 -47.5776 213.717 -47.8673C213.69 -47.91 213.966 -48.2139 214.1 -48.3954C214.51 -48.4293 214.713 -48.128 214.827 -47.7629C214.962 -47.3403 214.85 -46.9549 214.392 -47.1194L214.394 -47.1194Z" fill="#7F2E00"/>
<path d="M266.495 -46.2554L216.076 -4.71994L239.079 -0.67015L240.236 -1.62364C240.207 -1.67509 240.175 -1.71359 240.147 -1.77374C240.165 -1.98668 240.091 -2.54403 240.248 -2.65473C240.631 -2.92763 240.971 -2.77058 241.213 -2.43036L289.498 -42.2056L266.495 -46.2554ZM235.369 -10.7847C234.873 -10.5518 234.588 -11.0859 234.323 -11.5056C234.233 -12.1117 234.044 -12.8094 234.814 -13.0627C235.293 -13.2222 235.747 -12.9095 235.898 -12.4164C236.085 -11.7973 235.988 -11.0732 235.369 -10.7847Z" fill="#7F2E00"/>
<path d="M329.458 -30.0547C330.008 -30.1326 330.039 -31.514 329.525 -31.6286C327.268 -32.127 326.307 -34.408 324.775 -35.997L322.934 -36.3218C322.086 -34.7764 322.17 -33.1434 322.859 -31.6249C323.586 -30.0197 323.193 -28.901 322.095 -27.8642C321.026 -26.8544 320.708 -25.5382 320.319 -24.1096C319.645 -21.6361 318.791 -19.2076 317.889 -16.8097L329.031 -25.9888C328.875 -26.541 328.72 -27.0933 328.537 -27.6337C328.147 -28.7832 327.609 -29.7976 329.46 -30.0568L329.458 -30.0547Z" fill="#7F2E00"/>
<path d="M312.167 -13.9956C312.588 -14.3453 313.272 -14.3059 313.84 -14.3742C314.663 -14.4724 315.105 -15.0066 315.235 -15.8731C315.805 -19.671 318.052 -22.8482 318.682 -26.6281C318.763 -27.1239 318.942 -27.8247 319.262 -28.0241C321.536 -29.4552 321.347 -31.1868 320.505 -33.5169C320.185 -34.3994 320.192 -35.5615 320.413 -36.7643L315.293 -37.6661L287.728 -14.9605C287.649 -14.8026 287.528 -14.6947 287.367 -14.6626L264.871 3.86925L287.874 7.91904L299.93 -2.01073C302.919 -7.43385 307.807 -10.3768 312.171 -13.9933L312.167 -13.9956ZM289.032 -10.6772C288.52 -10.6413 288.205 -11.2159 288.224 -11.7168C288.299 -13.7004 289.616 -13.3228 290.708 -13.6161C290.869 -11.9142 290.559 -10.7809 289.032 -10.675L289.032 -10.6772Z" fill="#7F2E00"/>
<path d="M361.904 -4.4723C361.664 -4.9433 361.782 -5.41347 362.244 -5.78094C362.738 -5.98559 363.094 -5.81255 363.389 -5.5114L387.084 -25.0298L374.604 -27.2263C374.72 -27.101 374.835 -26.9694 374.945 -26.8292C375.582 -26.0198 375.165 -25.4387 374.509 -24.9273C372.842 -23.6325 372.403 -21.9073 372.719 -19.7535C372.885 -18.6293 372.295 -17.5325 371.822 -16.5025C371.787 -16.4277 371.341 -16.4478 371.219 -16.582C370.241 -17.651 370.456 -19.1267 370.98 -20.2089C371.886 -22.0788 372.194 -23.8797 371.896 -25.8887C371.795 -26.576 372.101 -27.1337 372.58 -27.5789L364.081 -29.0752L336.962 -6.73568C336.846 -6.57293 336.73 -6.408 336.613 -6.24534C335.824 -5.14663 334.648 -4.40769 333.969 -2.96814C333.705 -3.18941 333.448 -3.41469 333.205 -3.63937L326.514 1.87262C327.116 2.08288 327.577 2.46566 327.769 3.37288C328.099 4.92757 326.592 5.42041 325.421 6.63501C325.418 5.43527 324.877 4.61922 324.396 3.61612L313.66 12.4601L336.663 16.5099L361.977 -4.34472C361.951 -4.38513 361.925 -4.42336 361.902 -4.46804L361.904 -4.4723ZM352.673 -9.7944C351.393 -8.9642 350.664 -9.92175 350.303 -11.0263C349.701 -12.8615 349.704 -14.7589 350.934 -16.8585C352.468 -15.7558 352.693 -14.0902 353.576 -12.9579C354.57 -11.6787 353.822 -10.5411 352.675 -9.7965L352.673 -9.7944Z" fill="#7F2E00"/>
<path d="M428.259 -13.8536C428.235 -13.8896 428.209 -13.9257 428.185 -13.9638C428.216 -13.9625 428.247 -13.9676 428.278 -13.9684C427.9 -15.1741 427.527 -16.4013 427.649 -17.7154C427.654 -17.7784 427.658 -17.8306 427.662 -17.8893L415.854 -19.9683C415.858 -19.9463 415.861 -19.9266 415.861 -19.9091C415.757 -18.1973 414.386 -17.4759 413.569 -16.3195C413.544 -16.2814 413.051 -16.4998 413.047 -16.6265C412.986 -18.2236 414.159 -18.8601 414.961 -20.1262L412.879 -20.4924L362.46 21.0431L373.318 22.9551C373.409 22.9243 373.501 22.8935 373.593 22.8693C374.296 22.6762 374.636 22.866 374.824 23.2212L385.463 25.0929L393.017 18.8694C392.723 18.1735 392.423 17.4839 392.145 16.7821C391.918 16.2158 391.783 15.4703 392.523 15.1502C393.001 14.9427 393.423 15.3128 393.663 15.762C393.997 16.3855 394.264 17.0235 394.462 17.6801L428.403 -10.2811C427.955 -11.3656 427.621 -12.4625 428.263 -13.8556L428.259 -13.8536ZM392.278 10.1707C395.04 9.35258 394.695 11.8475 395.778 13.2201C394.485 12.8363 393.319 11.8198 392.278 10.1707ZM400.967 4.07889C400.895 4.13893 400.413 3.76174 400.279 3.48309C400.064 3.03503 400.098 2.48474 400.497 2.11879C400.84 1.80487 401.099 2.02589 401.261 2.46719C401.249 3.00321 401.48 3.64175 400.967 4.08107L400.967 4.07889ZM418.09 -15.3792C418.497 -13.1188 418.36 -11.1009 419.358 -8.92515C417.14 -10.6322 416.835 -12.3646 418.09 -15.3792ZM423.625 -7.72362C422.888 -7.20929 422.203 -7.77876 422.014 -8.52226C421.751 -9.57012 421.085 -10.2085 420.59 -11.0247C420.249 -11.5853 420.419 -12.2385 420.805 -12.7359C421.197 -13.0542 421.658 -12.9877 421.715 -12.6449C421.949 -11.2079 423.07 -10.8675 423.854 -10.0711C424.397 -9.51666 424.51 -8.34038 423.625 -7.72362Z" fill="#7F2E00"/>
<path d="M449.228 20.6573C449.014 19.8952 449.262 19.0906 450.949 19.0835C451.039 19.0832 451.113 19.069 451.179 19.0502L451.496 18.7896C451.731 18.3029 451.388 17.3256 451.572 16.7385C451.864 15.8094 452.215 14.8829 453.223 15.0656C454.027 15.2108 454.005 15.9644 453.96 16.7607L483.984 -7.9719L479.304 -8.79503C479.165 -8.53081 478.935 -8.31868 478.62 -8.18884C478.103 -7.97435 477.765 -8.21853 477.585 -8.7719C477.572 -8.8837 477.565 -8.99307 477.564 -9.10219L460.981 -12.0217L458.765 -10.1954C458.72 -9.69792 458.655 -9.16864 458.607 -8.61026C458.271 -8.87617 458.03 -9.15527 457.849 -9.44042L449.931 -2.91915C449.868 -2.78895 449.777 -2.67308 449.649 -2.58284C449.542 -2.50695 449.441 -2.46351 449.341 -2.43092L433.451 10.6593C433.542 10.9295 433.64 11.2 433.759 11.4671C433.378 11.4259 433.064 11.3311 432.782 11.2116L410.561 29.5159L426.824 32.3774C426.813 32.0105 426.877 31.6164 426.948 31.2401C427.063 30.6258 427.034 29.9113 427.958 29.1611C428.365 29.8053 428.737 30.2822 428.998 30.8305C429.329 31.5325 429.265 32.1861 428.901 32.7433L433.563 33.5634L449.226 20.6594L449.228 20.6573ZM462.08 -7.28082C462.516 -7.58619 462.631 -7.16008 462.683 -6.8066C462.717 -6.57387 462.713 -6.16618 462.603 -6.09264C462.168 -5.809 462.141 -6.34674 461.957 -6.54042C461.997 -6.82214 461.963 -7.20101 462.08 -7.28082ZM452.861 -3.95442C453.24 -4.34088 453.545 -4.08729 453.666 -3.73941C453.769 -3.44031 453.788 -2.9204 453.626 -2.70954C453.356 -2.35089 452.98 -2.56191 452.778 -2.90469C452.579 -3.2386 452.627 -3.61597 452.863 -3.95651L452.861 -3.95442ZM448.841 4.05275C449.153 3.49532 449.475 2.85546 450.133 2.85885C450.959 2.86326 451.262 3.6446 451.447 4.36177C451.6 4.95097 451.762 5.81762 451.503 6.2313C450.444 7.91333 450.494 9.89162 450.029 12.3768C447.726 9.11947 447.463 6.51219 448.841 4.05275ZM448.783 -0.0829681C448.479 0.701641 448.333 1.64822 447.295 1.38563C447.197 1.36161 447.104 0.912517 447.16 0.707811C447.419 -0.244571 448.055 -0.253074 448.783 -0.0829681ZM438.767 11.7378C439.407 11.3958 439.817 11.8919 440.074 12.525C440.242 13.1585 440.395 13.8982 439.801 14.2881C439.096 14.7516 438.389 14.3316 438.049 13.662C437.644 12.8652 438.081 12.1039 438.767 11.7378ZM429.647 27.2718C428.591 27.4228 427.949 26.8989 427.715 25.7411C427.6 25.1776 427.788 24.6713 428.245 24.489C429.123 24.1424 429.741 24.7482 430.269 25.387C430.548 25.7245 430.698 26.1979 431.073 26.9346C430.305 27.1182 429.978 27.2234 429.647 27.2696L429.647 27.2718Z" fill="#7F2E00"/>
<path d="M469.294 39.8493C469.603 38.8315 470.072 37.8907 469.647 36.7004C469.21 35.4812 470.038 34.6329 470.997 34.3793C471.846 34.1536 472.62 34.8034 472.837 35.7052C473.212 37.2641 473.519 38.8679 473.282 40.5497L482.361 42.1484L504.563 23.8585C504.532 23.6325 504.497 23.4106 504.474 23.1784C504.732 23.2336 504.97 23.2836 505.201 23.3332L529.707 3.1446C529.265 2.12365 529.403 1.15926 529.637 0.0596085L509.775 -3.43686L480.676 20.5346C480.769 20.626 480.832 20.7597 480.848 20.9175C480.917 21.6273 481.276 22.5027 480.378 22.9204C480.223 22.992 479.888 22.5058 479.725 22.3567C479.623 22.0206 479.567 21.7149 479.576 21.4427L459.356 38.1007L469.292 39.8492L469.294 39.8493ZM517.437 4.62398C517.945 4.33708 518.604 4.10059 518.765 4.92575C518.889 5.56384 518.363 6.09203 517.873 6.42769C517.445 6.72254 517.022 6.64466 516.736 6.14761C516.569 5.41818 516.895 4.92899 517.437 4.62398ZM513.742 2.52993C513.938 2.5431 514.244 2.47177 514.31 2.58598C514.471 2.868 514.67 3.29573 514.58 3.5534C514.422 4.00215 514.068 3.87283 513.859 3.54502C513.674 3.25318 513.506 2.92281 513.742 2.52993ZM504.063 4.527C504.349 4.81686 504.35 5.21167 503.94 5.40044C503.813 5.46017 503.507 5.25014 503.419 5.0717C503.334 4.89995 503.425 4.60958 503.441 4.37039C503.652 4.41694 503.924 4.38554 504.063 4.52483L504.063 4.527Z" fill="#7F2E00"/>
<path d="M513.753 47.6745C513.718 47.385 513.753 47.0179 514.081 46.8037C514.463 46.5548 514.593 47.047 514.691 47.3633C514.741 47.5225 514.795 47.6929 514.826 47.8623L531.154 50.7354L535.754 46.9463C535.511 45.7205 535.265 44.4968 535.069 43.2579C534.963 42.59 535.242 41.885 535.78 41.5493C536.38 41.1771 536.812 41.6763 537.251 42.117C537.927 42.7952 538.438 43.5772 538.817 44.423L575.601 14.1204C575.614 13.8659 575.601 13.5054 575.754 13.2854C575.994 12.9407 576.37 13.0252 576.466 13.4068L577.411 12.627C576.92 11.5471 576.32 10.4471 576.274 9.15382C577.721 9.85573 578.841 10.7959 580.302 10.0938C580.402 10.0459 580.498 10.0175 580.59 10.0064L581.574 9.19561L558.571 5.14582L554.472 8.52335C554.908 9.68586 555.21 10.8816 555.114 12.2317C554.991 13.9645 554.179 15.6729 553.572 17.7613C551.516 15.0036 553.821 12.202 552.621 10.0477L551.407 11.0466C551.403 11.5721 551.453 12.1108 551.116 12.3923C550.657 12.4328 550.328 12.2326 550.282 11.9732L508.15 46.6812L513.754 47.668L513.753 47.6745ZM565.954 12.1014C566.393 11.7896 566.804 12.0065 567.155 12.3451C567.161 12.5679 567.253 12.8926 567.16 12.9953C566.759 13.431 566.312 13.1993 565.944 12.9734C565.599 12.7594 565.625 12.3374 565.954 12.1036L565.954 12.1014ZM561.651 13.1557C562.138 12.87 562.654 12.4178 563.196 12.8958C563.474 13.1416 563.566 13.6474 563.286 13.8791C562.723 14.3489 562.066 14.6095 561.447 14.0844C561.161 13.6659 561.335 13.34 561.651 13.1557ZM559.159 17.238C559.267 17.0771 559.534 17.0476 559.731 16.9627C559.713 17.2061 559.76 17.5005 559.651 17.6766C559.557 17.8295 559.286 17.8478 559.094 17.9243C559.108 17.6893 559.054 17.3946 559.159 17.238ZM546.583 18.2935C547.081 20.6235 548.442 21.9584 547.305 24.3196C546.115 22.5911 545.758 20.985 546.583 18.2935ZM542.263 28.8544C544.148 29.6348 544.869 27.9005 545.848 26.6948C545.847 26.6773 545.844 26.6597 545.842 26.6421L545.861 26.643C545.872 26.6435 545.882 26.644 545.893 26.6445C546.98 26.1676 547.686 24.9016 549.152 24.6294C548.365 26.2997 547.185 26.576 545.893 26.6445C545.89 26.6443 545.887 26.6485 545.883 26.6506C545.871 26.6653 545.858 26.6821 545.847 26.6969C545.889 27.2092 546.103 27.9516 545.907 28.1435C543.731 30.2683 544.379 32.7685 544.66 35.309C544.798 36.5497 544.782 38.0758 543.339 38.5824C541.849 39.1043 540.811 38.6106 540.022 36.9132C539.342 35.4496 539.08 34.0834 539.406 32.4971C539.536 31.8683 539.861 31.27 539.933 30.6407C540.231 28.039 540.218 28.0057 542.265 28.8545L542.263 28.8544ZM531.891 38.9623C532.387 38.6356 532.744 38.8981 533.008 39.2961C533.254 39.667 533.488 40.1682 533.047 40.5388C532.906 40.6568 532.447 40.4006 532.209 40.2024C531.865 39.9143 531.573 39.5304 531.889 38.9644L531.891 38.9623ZM525.714 43.8562C525.89 43.6242 526.108 43.623 526.207 43.9307C526.316 44.2714 526.371 44.6599 526.356 45.0279C526.343 45.3305 526.062 45.4836 525.878 45.2812C525.532 44.8971 525.577 44.3713 525.714 43.8562ZM516.312 41.0761C516.894 40.9735 517.117 41.4197 517.258 41.9103C517.394 42.3853 517.458 43.0055 516.928 43.1801C516.446 43.3395 516.107 42.8313 515.927 42.3696C515.735 41.8768 515.854 41.3935 516.312 41.0761Z" fill="#7F2E00"/>
<path d="M577.931 58.9699C577.147 57.7351 577.157 57.524 577.305 55.1337C577.733 56.4157 578.228 57.5438 578.185 59.0163L579.948 59.3266L630.367 17.7912L607.364 13.7414L598.836 20.7674C598.879 20.9373 598.922 21.1072 598.974 21.2753C598.762 21.2396 598.563 21.1979 598.363 21.1562L575.572 39.93C575.237 41.9325 574.86 43.9374 573.948 45.7962C573.546 46.6156 573.37 47.454 572.356 47.668C571.056 47.9411 570.92 46.6896 570.361 45.9862C570.027 45.5655 569.996 45.0668 570.242 44.5391C570.616 44.0303 571.074 44.245 571.523 44.2521C572.12 44.2614 572.874 45.1481 573.275 43.9185C573.626 42.8394 573.058 42.6503 572.298 42.6314L556.945 55.279L577.93 58.9721L577.931 58.9699ZM611.944 18.691C612.332 17.7749 612.933 17.1912 613.827 17.142C614.678 17.0951 614.902 17.9427 615.311 18.6023C615.628 19.9099 615.879 21.304 616.302 22.6186C616.806 24.1789 616.678 25.4164 615.228 26.2695C613.586 27.2339 612.502 25.5276 612.209 24.6943C611.578 22.8993 611.05 20.7927 611.944 18.6888L611.944 18.691ZM607.571 33.3542C605.721 32.3529 605.382 31.5438 604.891 26.8454C605.963 29.452 606.71 31.2632 607.571 33.3542ZM587.753 42.7456C587.853 42.9463 588.033 43.1464 588.025 43.3467C588.021 43.5122 587.794 43.6809 587.666 43.8496C587.581 43.6539 587.457 43.4695 587.423 43.2607C587.372 42.9487 587.51 42.7674 587.753 42.7456ZM586.376 46.0098C586.921 45.5523 587.155 46.1103 587.359 46.4946C587.629 47.0018 588.005 47.6577 587.478 48.1728C587.089 48.5523 586.638 48.1351 586.338 47.753C585.914 47.2148 585.921 46.6372 586.376 46.0098Z" fill="#7F2E00"/>
<path d="M656.158 22.3283L649.718 27.6335C649.691 28.3106 649.628 29.0014 649.531 29.6993C649.441 30.3627 649.251 30.9844 649.547 31.5212C650.945 34.0465 649.695 36.8846 649.991 39.5392C650.07 40.2603 649.391 40.16 648.965 40.2499C648.965 40.2499 648.965 40.2521 648.965 40.2543C648.965 40.2564 648.964 40.2586 648.966 40.2631C649.579 41.0234 650.169 41.8439 650.301 42.888C650.569 45.0157 651.164 46.9007 652.337 48.4714L679.159 26.3759L656.156 22.3282L656.158 22.3283ZM653.594 33.8187C653.427 33.8679 653.133 33.7565 653.043 33.6042C652.874 33.3174 652.717 32.8785 653.239 32.7798C653.397 32.7498 653.589 33.042 653.766 33.1851C653.89 33.459 653.846 33.7428 653.594 33.8187ZM660.632 29.7138C660.338 33.1096 660.041 36.5053 659.735 40.0402C658.659 37.9656 658.839 33.5984 660.632 29.7138Z" fill="#7F2E00"/>
<path d="M648.957 40.2539C648.957 40.2539 648.963 40.2542 648.965 40.2543C649.147 38.9015 648.54 37.6637 649.108 36.1494C649.678 34.6308 649.656 32.7889 648.26 31.5332C647.584 30.9248 647.474 30.1761 647.636 29.3502L605.738 63.8659L623.198 66.9382C623.199 65.8521 623.731 65.1955 624.694 64.8876C624.865 65.1352 624.986 65.2257 624.988 65.3261C624.996 66.0615 624.828 66.6908 624.429 67.1549L628.741 67.9135L651.471 49.1893C650.201 46.395 649.612 43.3194 648.968 40.2653C648.964 40.2608 648.962 40.2585 648.959 40.254L648.957 40.2539Z" fill="#7F2E00"/>
<path d="M696.218 39.8796C696.511 42.2527 697.145 44.1329 698.9 45.7233C700.552 47.2195 700.226 48.7534 698.64 50.2198C697.321 51.4409 696.809 51.2936 696.096 49.641C695.726 48.7825 695.867 47.8531 695.715 46.9695C695.571 46.1233 695.064 45.6098 694.376 45.3892C693.506 45.108 693.216 45.8976 692.815 46.5797C692.141 47.7207 691.929 49.7504 690.356 49.4922C688.519 49.1894 688.624 47.0545 688.377 45.4359C688.337 45.1768 688.309 44.9138 688.277 44.6528L654.529 72.4548L674.93 76.0452C674.705 75.1867 674.422 74.3561 673.974 73.5966C673.604 72.9692 673.285 71.9909 672.768 71.8433C670.573 71.2125 670.892 70.2214 672.322 68.7981C672.927 68.195 673.149 67.3042 672.41 66.8239C671.04 65.9291 671.573 64.3718 671.064 63.1974C671.299 63.0814 671.532 62.9653 671.766 62.8494C672.691 64.4177 673.702 65.9266 674.516 67.5685C675.324 69.1969 676.348 70.4883 677.921 71.0759C679.443 71.6438 680.243 72.587 680.003 74.4694L690.51 65.8136C690.46 65.41 690.417 65.0155 690.222 64.7145C690.553 64.8995 690.797 65.1373 690.992 65.4165L727.952 34.9692L704.949 30.9194L695.742 38.5037C696.006 38.9039 696.151 39.3662 696.214 39.8816L696.218 39.8796ZM669.623 69.6431C669.511 69.9391 669.181 69.9242 669.117 69.6248C669.044 69.2747 669.122 68.8769 669.132 68.5654C669.405 68.2789 669.685 68.2696 669.738 68.5577C669.8 68.8964 669.747 69.315 669.623 69.6431ZM679.213 57.3713C679.121 57.4653 678.773 57.417 678.682 57.2973C678.474 57.0197 678.396 56.6541 678.687 56.3029C678.834 56.3292 679.086 56.2882 679.173 56.4055C679.374 56.6784 679.518 57.0578 679.213 57.3713ZM684.242 59.8329C684.104 60.1124 683.877 60.1589 683.753 59.896C683.682 59.7466 683.788 59.4809 683.816 59.2684C684.046 59.1305 684.213 59.2012 684.28 59.4899C684.304 59.5935 684.29 59.7368 684.242 59.8329ZM686.524 67.2136C686.53 67.227 686.537 67.2404 686.544 67.2538L686.436 67.2358C686.436 67.2358 686.544 67.2538 686.536 67.2534C686.485 67.2882 686.435 67.3252 686.384 67.3622C686.125 68.0071 685.847 68.6947 685.282 70.0936C685.325 68.3899 685.788 67.8044 686.384 67.3622C686.401 67.3193 686.419 67.2765 686.436 67.2358C686.465 67.2306 686.494 67.221 686.523 67.2158C686.311 66.7875 686.169 66.2598 685.854 65.9708C683.889 64.1639 684.919 62.1294 685.711 60.1257C685.895 59.6585 686.259 59.2539 686.782 59.5783C687.208 59.8439 687.533 60.4583 687.271 60.8283C685.911 62.7563 686.624 64.3326 687.446 66.0532C687.759 66.7129 687.112 67.0808 686.523 67.2158L686.524 67.2136ZM686.467 49.191C688.897 50.6437 689.822 53.115 690.658 55.844C688.449 53.8298 687.052 51.6121 686.467 49.191Z" fill="#7F2E00"/>
<path d="M726.189 65.8745C726.232 65.835 726.275 65.7998 726.318 65.7582C726.328 65.7804 726.338 65.8005 726.346 65.8227C728.653 63.0255 731.166 61.0598 734.782 61.4883C736.354 61.6746 738.575 61.9204 738.871 58.8323C740.21 59.1214 740.461 60.6202 741.438 61.1875C738.96 65.0676 735.862 66.3788 732.006 65.7825C730.951 65.6195 729.757 66.2529 728.638 66.5909C727.681 66.8794 726.837 66.9505 726.348 65.8228C726.327 65.848 726.306 65.871 726.287 65.8964C726.287 65.8964 726.287 65.9007 726.287 65.9029C726.255 65.8906 726.223 65.8847 726.191 65.8746C723.645 68.1594 722.141 68.5957 720.074 67.2444L703.327 81.0398L710.21 82.252C709.723 81.3271 709.402 80.244 709.48 79.471C709.525 79.0281 709.705 78.7199 710.03 78.5688C710.837 78.1928 711.712 78.1449 712.256 78.8913C713.016 79.9352 713.609 81.1353 714.267 82.2728C714.298 82.2502 714.329 82.2232 714.363 82.203C714.387 82.2411 714.413 82.2728 714.437 82.3088C716.559 81.5012 716.377 78.5638 718.273 77.0742C718.289 78.9376 720.062 78.2975 720.586 79.2873C721.132 80.3173 720.99 82.0056 722.749 81.0115C722.531 82.6332 723.683 83.2367 724.447 84.1304C724.481 84.1079 724.515 84.0898 724.549 84.0673L724.503 84.194C724.503 84.194 724.549 84.0674 724.546 84.0738C724.565 84.127 724.58 84.1822 724.597 84.2353C725.215 84.5182 725.885 84.6945 726.532 84.922L743.716 70.7667C743.847 69.8151 744.277 68.9096 744.869 68.572C745.406 68.3365 745.735 68.5083 745.973 68.9094L776.753 43.5522L753.751 39.5024L720.397 66.9775C722.542 66.7009 724.214 65.2122 726.193 65.8703L726.189 65.8745ZM766.976 43.0671C767.81 41.9028 768.886 41.9752 769.371 43.3318C769.872 44.7327 769.969 46.3118 770.953 47.8305C769.619 47.3757 768.648 47.0878 767.704 46.7117C766.162 46.095 765.879 44.6013 766.976 43.0693L766.976 43.0671ZM751.532 50.3975C752.504 49.9657 753.354 49.6768 754.159 48.7227C755.162 47.5311 756.275 48.0239 756.722 49.5816C757.121 50.967 756.863 52.4059 756.721 53.8325C756.504 55.9973 754.932 57.7413 755.271 60.1971C755.419 61.2747 753.829 61.9776 752.552 62.797C752.601 60.4545 753.486 58.1889 751.526 56.8707C750.9 56.8666 750.834 57.4656 750.65 57.9263C750.133 59.2248 749.511 59.1183 748.909 58.1425C747.465 55.8006 748.833 51.5915 751.532 50.3953L751.532 50.3975ZM741.49 68.0581C740.589 68.528 739.691 68.636 739.108 67.5389C738.86 67.0719 738.868 66.5597 739.352 66.0863C740.354 65.6319 741.017 66.3378 741.633 67.0721C741.877 67.3644 741.837 67.8752 741.492 68.056L741.49 68.0581Z" fill="#7F2E00"/>
<path d="M761.577 81.8374L752.118 89.6287L775.121 93.6785L796.335 76.2035C796.205 75.2904 796.152 74.3916 796.232 73.4573C796.303 72.6229 796.727 72.2079 797.383 72.9004C797.847 73.3902 798.272 73.7474 798.681 72.817C798.923 72.263 798.771 71.6759 798.367 71.4484C795.233 69.6784 796.304 66.4483 796.499 63.5323C796.533 63.0234 796.699 62.4507 797.311 62.4542C797.812 62.4571 798.206 62.7998 798.34 63.2987C798.538 64.0252 798.453 64.9003 798.751 65.5441C800.013 68.2661 801.708 68.966 803.89 66.4467C804.291 65.9827 804.447 65.2242 804.873 64.8114C806.036 63.6793 807.36 62.6461 806.69 60.6421C806.128 58.9614 804.413 58.8517 803.299 57.9205C802.098 56.9199 801.447 58.8755 800.816 59.7784C799.64 59.5337 800.049 58.5575 799.937 57.8829C799.565 55.6436 798.498 53.9577 797.234 52.4679L763.323 80.4044C762.883 81.2854 762.333 81.83 761.578 81.8419L761.577 81.8374ZM782.487 79.4201C782.717 77.3933 782.885 75.9286 783.066 74.338C785.188 76.5468 785.151 77.2998 782.487 79.4201ZM785.261 80.8883C785.261 80.8883 785.269 80.8799 785.273 80.8736L785.273 80.8779C785.273 80.8779 785.272 80.8866 785.272 80.891C785.531 82.5537 787.146 81.9544 787.878 82.8249C786.225 83.5445 785.357 82.8999 785.272 80.891C785.272 80.891 785.271 80.8844 785.271 80.8822C785.267 80.8842 785.263 80.8862 785.261 80.8883C782.983 83.5516 780.245 84.2814 776.457 83.9127C779.703 82.0018 782.688 82.3125 785.261 80.8883ZM772.816 73.0662C772.926 73.0493 773.065 73.3958 773.189 73.5759C773.172 73.9546 773.183 74.3892 772.751 74.457C772.645 74.474 772.437 74.1354 772.399 73.9265C772.331 73.5548 772.39 73.1299 772.816 73.0684L772.816 73.0662ZM768.877 86.918C768.877 86.918 768.919 86.7999 768.921 86.7913C768.96 86.7908 768.99 86.79 769.027 86.7895C770.614 85.4365 772.459 85.2773 774.627 84.9363C772.652 86.6339 772.248 86.7619 769.027 86.7895C768.988 86.8226 768.949 86.8536 768.912 86.8868C768.836 88.1244 768.969 89.4609 767.612 90.2222C766.401 88.7217 766.687 86.7978 766.069 85.0971C767.979 84.4108 768.137 86.1541 768.875 86.9179L768.877 86.918Z" fill="#7F2E00"/>
<path d="M812.47 54.3956C810.083 57.0061 810.738 60.3834 810.406 63.494C810.366 63.863 810.378 64.2365 810.403 64.6128L825.541 52.143L816.766 50.5994C816.609 50.6992 816.452 50.7969 816.3 50.8926C814.831 51.8124 813.656 53.1032 812.47 54.3978L812.47 54.3956Z" fill="#7F2E00"/>
<path d="M821.917 101.914C821.654 101.387 821.389 100.874 821.057 100.425C820.271 99.3557 821.008 98.1369 821.852 97.3787C822.689 96.6246 823.583 96.7018 824.173 97.8363C824.287 98.053 824.437 98.2451 824.575 98.4455C825.101 99.2107 826.399 99.0792 826.833 99.8621L840.742 88.4038C840.585 87.9823 840.642 87.5181 841.195 86.9126C843.568 84.3103 843.186 81.0674 842.968 77.9299C842.627 73.0638 842.311 68.236 845.964 64.1078C845.413 63.4178 844.656 63.1548 843.963 62.7528L800.912 98.2178L821.917 101.914ZM819.265 96.0782C818.266 96.3452 817.915 95.324 817.693 94.4874C817.505 93.7788 817.439 92.9732 817.506 92.2237C817.624 90.9051 818.068 89.6164 817.928 88.1706C818.358 90.2598 819.593 91.8311 819.903 93.8255C820.026 94.614 820.423 95.7682 819.263 96.0781L819.265 96.0782Z" fill="#7F2E00"/>
<path d="M848.551 70.983C848.469 72.2007 847.442 72.4425 846.478 72.7416C844.269 73.4254 843.794 74.0235 844.541 76.3145C845.693 79.845 845.376 82.9083 843.998 85.7211L860.368 72.2358C859.034 70.5401 859.243 69.6487 860.492 67.2402C861.292 68.4561 861.456 69.7612 861.578 71.2411L874.338 60.73L851.335 56.6802L847.315 59.9916C850.071 63.062 848.808 67.1711 848.553 70.9831L848.551 70.983ZM856.636 73.7803C856.885 73.6759 857.038 73.8049 857.074 74.1141C857.095 74.4204 856.954 74.6387 856.717 74.5582C856.581 74.5107 856.501 74.2301 856.437 74.0375C856.422 73.9866 856.551 73.8179 856.636 73.7825L856.636 73.7803Z" fill="#7F2E00"/>
<path d="M856.316 102.068C856.316 102.068 856.311 102.076 856.307 102.08C855.524 103.208 854.683 103.872 853.853 104.097L850.414 106.93L873.417 110.978L873.825 110.641C873.672 110.538 873.511 110.422 873.328 110.283C872.787 109.866 872.341 109.976 871.809 109.892C870.062 109.612 867.911 106.689 867.853 104.743C867.819 103.551 869.026 102.916 870.171 103.495C871.316 104.074 871.774 105.641 873.147 106.157C874.256 104.985 873.315 103.3 874.338 102.677C877.476 100.763 877.86 95.9754 881.168 94.1109C881.695 95.5676 880.681 95.9408 880.231 96.6316C878.998 98.5195 877.26 100.175 877.837 102.897C877.905 103.214 877.791 103.807 877.589 103.959C875.88 105.25 875.936 107.218 875.674 109.119L910.493 80.4355C910.565 79.1498 911.077 77.9208 912.037 76.7578C913.963 74.4255 914.18 72.505 912.764 69.7914C912.356 69.0097 911.925 68.2531 911.971 67.3566L900.834 65.3971L856.315 102.072L856.316 102.068ZM869.053 98.7096C867.569 100.37 865.989 101.905 864.994 104.061C864.689 104.721 863.704 104.672 863.66 103.988C863.543 102.214 862.04 101.285 861.832 99.4976C862.258 99.436 862.652 99.2334 862.879 99.368C864.222 100.165 865.288 100.109 865.812 98.1649C866.142 96.9387 866.946 96.5778 867.914 96.449C868.479 96.3741 869.109 96.2083 869.42 96.918C869.702 97.561 869.461 98.2503 869.053 98.7075L869.053 98.7096ZM885.396 79.6614C885.821 80.9368 886.257 82.2084 886.663 83.4916C886.781 83.8655 886.715 84.2748 886.38 84.5127C885.941 84.8245 885.483 84.7538 885.164 84.3622C884.026 82.9609 884.435 81.374 885.396 79.6614ZM884.681 90.3406C884.667 93.3411 889.366 91.273 888.622 94.9692C885.033 95.4689 883.829 94.1476 884.681 90.3406ZM891.604 92.488C890.557 90.1967 890.91 88.4393 891.208 86.0579C892.923 88.2397 892.247 90.0283 891.604 92.488Z" fill="#7F2E00"/>
<path d="M945.706 91.4331C949.249 93.5814 949.574 94.6342 947.459 98.7662L972.63 78.0316L970.496 77.6565C970.494 77.8048 970.496 77.9532 970.487 78.1033C970.444 78.9214 970.011 79.5694 969.604 80.212C969.32 80.6616 968.938 81.0545 968.467 80.728C968.229 80.5624 967.963 80.0772 968.021 79.8093C968.22 78.8957 968.215 78.0492 968.095 77.2346L951.249 74.2706C951.256 74.5348 951.247 74.8027 951.213 75.0803C950.962 77.1346 950.539 79.1658 951.155 81.2611C951.461 82.3043 951.169 83.8114 949.698 83.8304C948.33 83.8496 947.983 82.5886 948.226 81.3476C948.651 79.19 948.565 77.077 948.448 74.9561L940.873 81.1961C941.37 84.139 942.69 86.7065 943.811 89.3589C944.197 90.2748 944.853 90.9193 945.704 91.4352L945.706 91.4331Z" fill="#7F2E00"/>
<path d="M921.975 97.5361C922.398 96.9247 922.892 96.6634 923.394 97.2399C923.768 97.6689 923.525 98.175 923.246 98.6423C922.022 100.699 922.025 102.698 923.255 104.641C922.54 105.83 921.221 104.791 920.752 106.107C920.555 106.663 920.395 107.522 919.59 107.028C919.149 106.757 919.159 106.199 919.27 105.657C919.741 103.381 919.989 101.251 918.549 99.5851L899.211 115.517L907.755 117.022C907.708 116.963 907.661 116.904 907.616 116.839C907.343 116.443 907.596 115.802 908.052 115.517C908.908 114.987 909.602 115.249 910.102 116.057C910.261 116.613 910.156 117.084 909.799 117.382L922.211 119.567L947.254 98.9378C947.388 98.0408 947.554 97.1453 947.612 96.245C947.808 93.185 946.498 91.8764 943.922 92.4891C940.461 93.3108 940.429 93.3312 938.895 89.7202C938.167 88.0058 937.311 86.3643 936.835 84.5217L920.184 98.2386C920.653 98.6915 921.223 98.6234 921.975 97.5361ZM913.064 113.291C912.619 113.618 912.204 113.429 911.931 112.985C911.631 112.496 911.744 112.041 912.19 111.681C912.65 111.427 913.067 111.472 913.329 111.962C913.589 112.447 913.508 112.964 913.064 113.291ZM931.737 109.637C932.064 109.466 932.298 109.584 932.231 109.892C932.154 110.247 931.961 110.622 931.726 110.877C931.515 111.106 931.235 110.936 931.302 110.636C931.383 110.269 931.602 109.932 931.736 109.635L931.737 109.637Z" fill="#7F2E00"/>
<path d="M986.369 95.0483C986.611 95.9294 986.875 96.8661 985.879 97.3862C985.013 97.838 984.377 97.3383 983.942 96.5773C983.845 95.7855 983.76 94.9834 984.073 94.3911L977.551 99.7624C977.568 99.8199 977.584 99.8795 977.601 99.937C977.755 100.454 977.55 100.997 977.139 101.271C976.73 101.545 976.336 101.355 976.057 100.993L964.203 110.757C963.993 112.249 963.384 113.752 962.384 115.162C961.941 114.51 961.502 113.864 961.263 113.179L952.856 120.106C952.7 120.339 952.484 120.569 952.188 120.813C950.935 121.845 949.772 123.025 948.617 124.212L971.006 128.154L975.269 124.642C975.256 124.578 975.236 124.514 975.226 124.45C975.084 123.613 975.556 122.932 975.67 122.182C976.024 119.88 977.16 117.682 976.57 115.232C976.348 114.313 976.731 113.27 977.628 112.97C978.948 112.528 979.682 111.165 980.778 110.538C982.231 109.705 982.909 108.629 983.09 106.888C983.202 105.809 983.665 104.694 984.829 104.794C986.135 104.905 987.31 105.488 987.485 107.223C987.609 108.45 987.471 109.829 986.19 110.118C981.852 111.099 979.732 114.085 979.246 118.949C979.138 120.035 978.274 121.05 977.809 122.124C977.714 122.344 977.643 122.544 977.573 122.741L1000.06 104.213C999.996 104.051 999.939 103.863 999.909 103.628C999.714 102.134 1002.09 101.735 1003.25 100.738C1003.71 100.34 1004.27 100.261 1004.85 100.267L1021.42 86.6163L998.421 82.5665L984.916 93.6918C985.716 93.4355 986.13 94.1848 986.368 95.0461L986.369 95.0483ZM987.696 98.0066C988.695 97.7788 989.395 98.4951 989.842 99.4749C989.996 99.8133 990.161 100.148 990.506 100.874C990.597 101.317 990.926 102.18 990.916 103.052C990.897 104.571 991.169 105.833 992.23 106.793C992.826 107.332 992.981 108.118 992.43 108.828C991.654 109.829 990.954 109.045 990.368 108.57C989.364 107.761 989.231 106.508 989.256 105.137C989.28 103.836 989.175 102.437 987.753 102.107C986.946 101.918 986.064 101.933 986.442 100.561C986.702 99.6173 986.524 98.2724 987.697 98.0044L987.696 98.0066Z" fill="#7F2E00"/>
<path d="M1058.48 95.3477C1057.65 95.7072 1057.13 95.1777 1056.9 94.393C1056.71 93.7565 1056.44 93.2185 1056.1 92.7238L1047.21 91.1598L1036.14 100.281C1036.21 100.925 1036.31 101.569 1036.46 102.206C1036.6 102.832 1036.77 103.47 1036.5 104.112C1036.29 104.606 1035.92 105.032 1035.44 105.017C1035.15 105.009 1034.75 104.753 1034.63 104.475C1034.31 103.747 1034.04 102.994 1033.77 102.233L1027.96 107.024C1029.1 107.485 1030.3 107.737 1031.69 107.22C1032.6 106.883 1033.55 107.628 1033.7 108.819C1034.06 111.773 1035.95 113.782 1037.25 116.024C1038.12 117.511 1037.84 118.124 1037.29 119.286C1036.78 120.378 1035.99 121.138 1035.26 122.013C1034.46 122.976 1034.07 123.97 1034.04 125.011L1051.83 110.353C1051.93 110.09 1052.04 109.828 1052.17 109.575C1052.4 109.133 1052.81 108.81 1053.07 108.514C1053.51 108.348 1053.84 108.365 1054.08 108.502L1056.62 106.407C1056.5 106.278 1056.41 106.103 1056.33 105.873C1056.18 105.378 1056.16 104.775 1056.65 104.519C1057.25 104.2 1057.74 104.519 1058.04 105.165C1058.05 105.184 1058.05 105.204 1058.06 105.226L1070.22 95.2075L1060.72 93.5351C1060.18 94.3309 1059.43 94.9407 1058.48 95.3477ZM1045.33 96.9401C1044.98 97.0094 1044.75 96.7571 1044.67 96.3497C1044.73 95.8922 1044.68 95.2771 1045.28 95.2627C1045.51 95.258 1045.87 95.5793 1045.94 95.8443C1046.09 96.3678 1045.86 96.8351 1045.33 96.94L1045.33 96.9401Z" fill="#7F2E00"/>
<path d="M1029.62 119.589C1029.52 118.296 1029.57 116.979 1029.47 115.683C1029.4 114.613 1029.22 113.844 1027.86 113.855C1026.43 113.867 1025.46 112.436 1024.78 111.141C1024.6 110.79 1024.43 110.427 1024.27 110.064L996.797 132.693L1008.63 134.776C1008.6 134.705 1008.58 134.634 1008.56 134.552C1008.44 134.032 1008.92 133.644 1009.32 133.35C1010.04 133.051 1010.37 133.497 1010.55 134.168C1010.63 134.484 1010.66 134.845 1010.55 135.115L1019.8 136.743L1031.15 127.392C1031.09 127.294 1031.03 127.195 1030.97 127.096C1029.59 125.017 1029.82 122.168 1029.62 119.589L1029.62 119.589ZM1003.56 132.578C1002.62 132.137 1002.65 131.183 1002.51 130.178C1003.78 130.368 1004.22 131.062 1004.05 132.228C1004.03 132.371 1003.67 132.627 1003.56 132.576L1003.56 132.578Z" fill="#7F2E00"/>
<path d="M1094.02 103.199C1093 102.805 1093.43 102.205 1093.75 101.612L1083.14 110.347C1083.32 111.43 1083.49 112.519 1083.66 113.605C1083.37 113.714 1083.08 113.825 1082.79 113.934C1082.63 112.976 1082.43 112.046 1082.19 111.133L1060.3 129.164C1060.43 129.172 1060.56 129.18 1060.7 129.191C1061.15 129.224 1061.62 129.197 1062.07 129.263C1063.15 129.419 1063.57 130.641 1062.91 131.157C1059.32 133.949 1060.19 138.143 1059.71 141.86C1059.62 142.558 1059.44 143.152 1059.21 143.676L1064.26 144.566C1064.11 142.692 1064.73 141.241 1065.86 139.938C1066.75 138.92 1067.72 139.212 1067.75 140.57C1067.78 142.209 1068.05 143.765 1068.41 145.295L1068.6 145.328L1097.91 121.182C1097.83 119.343 1098.05 117.488 1098.53 115.638C1098.81 114.579 1098.42 113.644 1098.91 112.346C1100.14 114.585 1099.76 117.063 1100.15 119.227C1100.16 119.257 1100.16 119.288 1100.17 119.319L1106.92 113.753C1106.96 112.793 1107.29 111.83 1107.97 111.045C1109.27 109.538 1109.63 108.062 1109.67 106.134C1109.7 104.36 1110.22 103.085 1111.07 102.393L1106.04 101.508C1105.54 102.733 1104.89 103.921 1104.65 105.202C1104.56 105.714 1103.93 105.869 1103.47 105.665C1103.18 105.537 1102.78 105.266 1102.74 104.983C1102.64 104.368 1102.67 103.693 1102.78 103.065C1102.9 102.362 1102.97 101.665 1103 100.972L1097.19 99.9502C1096.99 100.668 1096.53 101.376 1096.02 102.112C1095.44 102.949 1094.85 103.514 1094.02 103.195L1094.02 103.199ZM1068.74 135.676C1068.46 135.629 1068.15 135.31 1068.01 135.011C1067.85 134.655 1068.01 134.263 1068.39 134.06C1068.96 133.978 1069.2 134.36 1069.27 134.911C1069.32 135.336 1069.12 135.744 1068.74 135.676ZM1093.59 115.95C1092.75 116.469 1092.47 115.477 1092.21 114.819C1091.93 114.133 1091.63 113.208 1092.35 112.75C1093.25 112.175 1093.41 113.236 1093.68 113.878C1093.81 114.593 1094.39 115.46 1093.59 115.95Z" fill="#7F2E00"/>
<path d="M1127.9 124.813C1127.9 124.836 1127.99 125.845 1128.45 126.496C1130.95 129.995 1128.66 133.071 1127.46 136.214C1127.19 136.898 1126.56 137.537 1125.78 137.382C1124.96 137.218 1124.9 136.391 1124.78 135.607C1124.42 133.353 1123.61 131.162 1124.67 128.784C1124.97 128.115 1124.8 127.418 1124.54 126.776L1113.24 136.083C1114.28 137.613 1114.66 139.746 1114.82 141.769C1114.96 143.528 1115.38 145.017 1116.29 146.384C1117.73 148.551 1118.22 151.263 1119.16 153.715C1119.21 153.844 1119.25 153.976 1119.28 154.111L1133.6 142.311C1132.97 140.686 1132.51 138.94 1131.11 137.905C1130.46 137.417 1129.93 136.425 1130.74 135.589C1131.51 134.793 1132.63 134.023 1133.55 135.004C1134.8 136.334 1136.03 137.563 1137.76 138.049C1137.94 138.098 1138.11 138.274 1138.26 138.474L1169.55 112.693L1166.97 112.239C1167.14 113.346 1166.98 114.091 1166.26 114.862C1165.67 113.899 1165.74 113.119 1166.26 112.116L1146.55 108.646L1127.75 124.137C1127.8 124.344 1127.85 124.565 1127.9 124.816L1127.9 124.813ZM1146.11 110.445C1146.76 112.365 1146.51 114.48 1148.26 115.167C1147.37 118.89 1148.68 123.089 1145.99 126.403C1145.55 126.937 1144.98 127.579 1144.09 127.286C1144.45 124.488 1144.83 121.714 1144.37 118.875C1143.92 116.102 1144.05 113.275 1146.11 110.445ZM1139.73 129.864C1140.16 128.915 1140.13 127.025 1141.48 127.302C1142.98 127.609 1141.97 129.262 1141.95 130.287C1141.93 131.843 1141.9 133.436 1141.33 134.953C1141.06 135.684 1140.54 135.918 1139.94 135.942C1139.46 135.961 1139.08 135.674 1138.89 135.133C1138.25 133.248 1138.97 131.499 1139.73 129.864ZM1133.19 128.537C1134.04 128.706 1134.28 129.332 1134.11 130.194C1134.07 130.354 1133.75 130.45 1133.55 130.577C1133.52 129.882 1132.71 129.396 1133.19 128.539L1133.19 128.537Z" fill="#7F2E00"/>
<path d="M1110.07 138.694L1100.48 146.588C1100.77 148.412 1101.28 150.016 1102.35 151.272L1114.17 153.351C1113.99 149.662 1112.8 146.254 1111.43 143.182C1110.8 141.765 1110.47 140.208 1110.07 138.694Z" fill="#7F2E00"/>
<path d="M36.3497 -77.585L38.2373 -79.1404C37.8254 -80.4544 36.6506 -81.5236 37.2774 -83.1596C37.6944 -84.2489 38.2244 -85.2872 38.7366 -86.3439L22.5275 -89.1964L14.0977 -82.251C14.3718 -81.8767 14.6229 -81.5011 14.9018 -81.1636C15.1982 -80.8057 15.3621 -80.264 14.8563 -79.8766C14.4135 -79.5367 13.9328 -79.7611 13.6328 -80.0974C13.3294 -80.4382 13.0724 -80.8118 12.8569 -81.2271L5.74732 -75.3697L1.01863 -48.48L6.44045 -52.9454C6.4191 -52.9922 6.39567 -53.0369 6.37623 -53.0835C5.80349 -54.3961 6.4297 -56.6341 7.42412 -57.2329C7.9241 -57.3914 8.4826 -57.2856 8.49654 -56.7092C8.51296 -56.0389 8.59626 -55.4179 8.7321 -54.8338L27.6362 -70.4059C27.5487 -71.2757 27.995 -71.9907 28.5746 -72.6473C28.8926 -73.006 29.2454 -72.8877 29.4127 -72.5181C29.4948 -72.3377 29.5413 -72.1677 29.571 -72.0028L35.3702 -76.7784C35.3804 -76.8368 35.3888 -76.8975 35.4047 -76.9557C35.6229 -77.7943 35.9745 -77.7611 36.3518 -77.5871L36.3497 -77.585ZM25.4822 -84.9305C25.8108 -85.2276 26.0941 -84.8987 26.248 -84.5537C26.5146 -83.9528 26.488 -83.3717 26.0467 -82.8746C25.6312 -82.6184 25.38 -82.7889 25.2792 -83.2035C25.1343 -83.7945 24.9603 -84.4567 25.4841 -84.9304L25.4822 -84.9305ZM24.0865 -69.1171C23.597 -68.8948 23.2814 -69.354 23.0925 -69.8183C22.7973 -70.547 22.6968 -71.2952 23.5313 -71.7027C24.0579 -71.9604 24.3081 -71.4715 24.527 -70.9731C24.7228 -70.2969 24.9644 -69.5161 24.0865 -69.1171Z" fill="#7F2E00"/>
<path d="M1183.83 149.052C1182.99 147.21 1183.33 144.244 1184.71 142.83C1185.12 142.414 1185.57 142.055 1186 141.627L1189.43 122.099L1186.05 124.879C1186.01 125.616 1185.53 126.028 1184.92 126.269C1184.69 126.361 1184.47 126.386 1184.27 126.345L1176.16 133.034C1176.35 133.697 1176.27 134.37 1176.15 135.018C1175.75 137.147 1175.76 139.156 1176.75 141.026C1177.99 143.374 1175.6 144.403 1175.01 146.237C1174.87 144.174 1174.36 142.43 1173.52 140.654C1172.66 138.833 1172.39 137.282 1172.68 135.899L1151.1 153.671C1151.16 153.685 1151.22 153.707 1151.28 153.718C1152.69 153.961 1153.17 155.812 1152.93 157.145C1152.76 158.127 1152.66 159.122 1152.6 160.12L1167.92 162.817L1170.65 160.567C1169 158.7 1168.18 156.146 1167.98 153.295C1167.9 152.112 1167.72 150.73 1169.1 150.388C1170.24 150.108 1170.96 151.078 1171.45 152.145C1171.56 152.368 1171.67 152.635 1171.66 152.876C1171.51 155.162 1172.27 156.884 1173.34 158.35L1184.09 149.496C1183.99 149.365 1183.9 149.217 1183.83 149.054L1183.83 149.052ZM1163.61 158.36C1163.52 158.4 1163.35 158.158 1163.21 158.043C1163.33 157.872 1163.43 157.614 1163.58 157.558C1163.68 157.519 1163.85 157.76 1164 157.875C1163.87 158.047 1163.77 158.286 1163.61 158.36ZM1165.12 152.404C1164.1 152.722 1163.35 152.195 1162.85 151.233C1162.45 150.467 1162.11 149.668 1161.44 148.264C1161.51 148.444 1161.26 148.005 1161.15 147.518C1161.02 146.899 1160.96 146.173 1161.63 145.839C1162.15 145.585 1162.5 146 1162.67 146.483C1163.08 147.607 1163.66 148.351 1164.83 148.569C1165.88 148.762 1166.14 149.839 1166.12 150.952C1166.11 151.689 1165.71 152.221 1165.12 152.404ZM1184.7 137.427C1184.7 137.237 1184.91 136.93 1185.06 136.882C1185.19 136.844 1185.38 137.108 1185.54 137.24C1185.46 137.461 1185.44 137.8 1185.31 137.877C1184.94 138.096 1184.69 137.858 1184.7 137.427Z" fill="#7F2E00"/>
<path d="M410.902 490.73L411.002 490.703L414.412 483.558C413.906 483.1 413.429 482.599 412.943 482.116C412.923 482.138 412.906 482.164 412.884 482.187L412.872 482.067C412.877 482.108 412.882 482.188 412.883 482.19C412.84 482.179 412.796 482.165 412.754 482.151C412.537 482.359 412.327 482.582 412.079 482.734C411.761 482.929 411.348 482.829 411.241 482.427C411.098 481.892 411.523 481.861 411.86 481.912C412.159 481.958 412.456 482.064 412.753 482.154C412.792 482.117 412.83 482.08 412.869 482.045C412.892 482.068 412.918 482.093 412.941 482.117C413.453 481.516 413.7 480.722 413.907 479.606C414.586 480.309 414.887 481.17 415.142 482.024L421.804 468.068C418.344 467.87 418.292 467.811 417.709 464.41C417.472 463.025 417.346 461.606 417.612 460.176C420.554 461.755 420.762 461.825 420.193 464.596C419.819 466.42 421.214 466.836 421.887 467.895L432.731 445.182C431.036 444.778 429.552 443.997 427.989 443.695C426.937 443.49 426.755 442.213 426.191 441.385C425.4 440.226 424.307 439.939 423.808 441.465C423.08 443.687 422.123 442.967 421.058 441.74C420.481 441.075 420.028 440.277 419.471 439.585C419.026 439.033 418.812 438.438 419.047 437.804C419.157 437.511 419.308 437.257 419.479 437.022L416.584 437.8L405.656 460.694C406.874 462.239 407.426 464.215 407.983 466.154C408.357 467.452 408.238 468.467 406.421 468.468C405.154 468.467 403.599 468.343 402.292 469.587C402.155 469.272 402.006 468.965 401.853 468.661L388.441 496.754L406.952 491.787C407.497 490.789 408.25 489.821 408.703 489.721C409.066 489.639 410.007 490.116 410.901 490.728L410.902 490.73ZM415.044 461.679C415.255 461.34 415.571 461.302 416.03 461.763C416.075 461.919 416.328 462.335 416.242 462.578C416.037 463.153 415.566 463.078 415.172 462.694C414.888 462.416 414.843 462.005 415.045 461.681L415.044 461.679ZM409.146 479.483C409.45 479.263 409.737 479.385 409.95 479.679C410.179 479.994 410.209 480.364 409.859 480.539C409.708 480.615 409.415 480.552 409.271 480.425C408.986 480.173 408.965 479.819 409.147 479.485L409.146 479.483ZM405.439 473.333C406.714 474.124 407.391 475.442 407.47 477.287C406.396 476.094 405.765 474.959 405.439 473.333Z" fill="#7F2E00"/>
<path d="M464.439 424.964L453.831 447.184C453.993 447.612 453.98 448.044 453.542 448.43C453.411 448.545 453.277 448.601 453.141 448.631L436.297 483.916L458.855 477.863L486.997 418.911L464.438 424.962L464.439 424.964ZM455.124 455.075C454.027 453.689 453.23 452.773 452.538 451.767C452.263 451.367 452.243 450.736 452.673 450.406C453.122 450.06 453.505 450.449 453.845 450.808C454.733 451.755 455.323 452.831 455.123 455.073L455.124 455.075ZM456.136 450.004C455.948 449.917 455.728 449.873 455.579 449.734C455.375 449.54 455.414 449.317 455.62 449.166C455.807 449.24 456.06 449.257 456.163 449.406C456.248 449.527 456.153 449.799 456.137 450.006L456.136 450.004ZM459.155 454.849C458.682 454.563 458.426 454.162 458.687 453.59C458.934 453.048 459.428 452.921 459.846 453.222C461.027 454.076 462.337 454.827 462.962 457.127C461.437 456.215 460.293 455.534 459.154 454.847L459.155 454.849ZM481.422 430.344C480.898 430.949 480.182 430.667 479.554 430.335C479.212 430.151 479.133 429.766 479.336 429.357C479.838 428.843 480.454 428.629 481.13 429.067C481.568 429.353 481.757 429.956 481.422 430.344Z" fill="#7F2E00"/>
<path d="M526.951 408.193C526.949 408.354 526.949 408.517 526.877 408.591C526.787 408.687 526.538 408.595 526.359 408.584C526.365 408.51 526.367 408.429 526.368 408.349L523.149 409.213C523.235 409.269 523.324 409.332 523.412 409.402C524.066 409.924 524.993 410.51 524.557 411.51C524.08 412.603 523.173 411.839 522.497 411.458C521.847 411.092 521.224 410.616 521.237 409.724L512.29 412.125L484.148 471.077L506.707 465.024L534.85 406.071L526.954 408.189L526.951 408.193Z" fill="#7F2E00"/>
<path d="M560.141 399.289L548.532 423.61C548.791 423.96 549.037 424.304 549.314 424.6C549.67 424.983 549.491 425.578 549.087 425.896C548.778 426.141 548.367 426.047 548.167 425.717C548.048 425.521 547.93 425.322 547.811 425.121L532 458.243L535.201 457.384C535.043 456.973 535.057 456.533 535.426 456.107C535.886 455.579 536.427 455.782 536.886 456.283C537.042 456.454 537.164 456.642 537.243 456.835L554.558 452.19L582.7 393.238L560.141 399.289ZM556.266 423.267C555.523 423.828 555.003 425.972 553.531 423.809C552.922 422.915 551.781 422.188 552.48 420.83C552.835 420.139 556.101 420.87 556.759 421.768C557.29 422.494 556.959 422.913 556.266 423.267ZM562.238 430.137C562.058 430.513 561.704 430.553 561.376 430.245C561.028 429.92 560.924 428.827 561.181 428.445C561.459 428.17 561.811 428.081 562.099 428.379C562.619 428.919 562.507 429.569 562.237 430.135L562.238 430.137ZM560.408 407.688C560.114 407.715 559.77 407.48 559.479 407.296C559.436 407.269 559.557 406.877 559.602 406.656C559.959 406.452 560.271 406.639 560.528 406.922C560.829 407.248 560.891 407.644 560.406 407.689L560.408 407.688Z" fill="#7F2E00"/>
<path d="M607.993 386.452L579.851 445.404L602.41 439.353L603.056 438C603.008 437.966 602.963 437.944 602.912 437.901C602.839 437.701 602.535 437.227 602.631 437.06C602.863 436.651 603.237 436.65 603.601 436.856L630.552 380.401L607.993 386.452ZM594.773 431.754C594.422 432.175 593.938 431.811 593.521 431.543C593.183 431.032 592.717 430.479 593.307 429.924C593.674 429.577 594.218 429.669 594.563 430.052C594.994 430.534 595.212 431.231 594.773 431.754Z" fill="#7F2E00"/>
<path d="M671.903 374.526C672.368 374.223 671.813 372.958 671.299 373.071C669.043 373.573 667.208 371.912 665.148 371.119L663.342 371.603C663.227 373.362 663.992 374.807 665.259 375.892C666.596 377.039 666.713 378.219 666.156 379.623C665.613 380.99 665.882 382.317 666.133 383.776C666.567 386.303 666.82 388.865 667.016 391.419L673.234 378.391C672.86 377.957 672.486 377.522 672.091 377.109C671.252 376.232 670.336 375.54 671.904 374.523L671.903 374.526Z" fill="#7F2E00"/>
<path d="M663.019 396.388C663.253 395.893 663.889 395.64 664.375 395.338C665.079 394.901 665.254 394.23 665.006 393.39C663.918 389.707 664.612 385.878 663.585 382.186C663.449 381.702 663.315 380.991 663.52 380.675C664.977 378.417 664.074 376.928 662.326 375.172C661.663 374.507 661.178 373.451 660.87 372.268L655.848 373.614L640.462 405.842C640.457 406.018 640.393 406.167 640.261 406.264L627.705 432.567L650.264 426.516L656.993 412.422C657.41 406.243 660.596 401.51 663.024 396.388L663.019 396.388ZM643.454 409.173C643.005 409.422 642.477 409.034 642.282 408.572C641.512 406.742 642.865 406.528 643.731 405.801C644.596 407.275 644.794 408.433 643.455 409.175L643.454 409.173Z" fill="#7F2E00"/>
<path d="M712.121 383.999C711.704 383.674 711.612 383.198 711.876 382.67C712.237 382.275 712.633 382.282 713.027 382.43L726.254 354.726L714.014 358.01C714.173 358.074 714.332 358.145 714.491 358.226C715.411 358.69 715.279 359.393 714.9 360.134C713.936 362.012 714.268 363.76 715.465 365.579C716.09 366.528 716.019 367.771 716.025 368.905C716.025 368.987 715.612 369.157 715.445 369.087C714.107 368.532 713.678 367.104 713.695 365.901C713.727 363.824 713.245 362.061 712.126 360.366C711.743 359.786 711.785 359.152 712.032 358.545L703.696 360.781L688.559 392.489C688.523 392.685 688.487 392.884 688.45 393.081C688.199 394.41 687.446 395.576 687.439 397.168C687.106 397.079 686.778 396.984 686.462 396.883L682.728 404.706C683.362 404.642 683.942 404.794 684.499 405.535C685.456 406.805 684.298 407.888 683.75 409.484C683.24 408.398 682.405 407.887 681.545 407.182L675.553 419.734L698.112 413.683L712.24 384.084C712.2 384.058 712.161 384.035 712.12 384.004L712.121 383.999ZM701.506 383.077C700.696 384.37 699.631 383.811 698.837 382.962C697.515 381.553 696.717 379.832 696.944 377.409C698.8 377.761 699.708 379.175 700.987 379.828C702.429 380.567 702.231 381.915 701.506 383.074L701.506 383.077Z" fill="#7F2E00"/>
<path d="M768.294 347.454C768.257 347.431 768.219 347.41 768.181 347.385C768.209 347.374 768.235 347.356 768.262 347.342C767.41 346.409 766.554 345.454 766.109 344.212C766.087 344.153 766.069 344.104 766.048 344.049L754.467 347.155C754.48 347.173 754.491 347.19 754.499 347.205C755.128 348.801 754.19 350.034 753.939 351.427C753.931 351.473 753.393 351.483 753.336 351.37C752.605 349.948 753.399 348.875 753.591 347.389L751.55 347.937L723.408 406.889L734.057 404.033C734.126 403.967 734.196 403.9 734.269 403.839C734.825 403.367 735.213 403.395 735.534 403.638L745.967 400.838L750.183 392.005C749.623 391.498 749.06 391 748.511 390.482C748.066 390.065 747.628 389.446 748.163 388.843C748.51 388.453 749.048 388.61 749.456 388.916C750.022 389.34 750.534 389.805 750.99 390.317L769.935 350.631C769.07 349.837 768.303 348.985 768.297 347.45L768.294 347.454ZM745.837 384.434C747.995 382.525 748.737 384.932 750.298 385.718C748.964 385.917 747.477 385.488 745.837 384.434ZM751.138 375.24C751.098 375.325 750.502 375.187 750.262 374.991C749.878 374.676 749.676 374.163 749.883 373.663C750.062 373.233 750.39 373.324 750.723 373.656C750.939 374.146 751.418 374.627 751.139 375.242L751.138 375.24ZM758.433 350.369C759.757 352.245 760.486 354.132 762.31 355.682C759.578 355.073 758.569 353.632 758.433 350.369ZM766.685 354.968C766.234 355.746 765.373 355.519 764.888 354.925C764.206 354.087 763.333 353.789 762.539 353.259C761.994 352.895 761.871 352.231 762.011 351.617C762.231 351.163 762.678 351.028 762.874 351.315C763.693 352.518 764.853 352.353 765.9 352.744C766.627 353.017 767.226 354.035 766.685 354.968Z" fill="#7F2E00"/>
<path d="M801.884 369.869C801.367 369.269 801.252 368.435 802.778 367.716C802.859 367.678 802.92 367.634 802.973 367.588L803.149 367.219C803.157 366.678 802.433 365.937 802.351 365.327C802.223 364.362 802.15 363.374 803.141 363.113C803.931 362.905 804.23 363.598 804.526 364.338L821.284 329.234L816.694 330.466C816.68 330.764 816.561 331.054 816.331 331.304C815.953 331.717 815.544 331.639 815.146 331.213C815.088 331.117 815.035 331.021 814.988 330.923L798.725 335.285L797.488 337.877C797.657 338.347 797.822 338.854 798.015 339.38C797.598 339.281 797.261 339.13 796.976 338.949L792.557 348.205C792.554 348.35 792.521 348.493 792.444 348.629C792.379 348.743 792.305 348.825 792.229 348.897L783.359 367.476C783.556 367.683 783.759 367.886 783.98 368.078C783.617 368.202 783.292 368.249 782.986 368.259L770.583 394.239L786.531 389.96C786.367 389.632 786.258 389.248 786.163 388.877C786.008 388.272 785.68 387.636 786.2 386.566C786.841 386.978 787.379 387.253 787.848 387.639C788.445 388.135 788.663 388.755 788.569 389.414L793.14 388.187L801.883 369.872L801.884 369.869ZM801.724 339.118C801.99 338.656 802.275 338.994 802.471 339.292C802.601 339.489 802.769 339.86 802.7 339.974C802.426 340.414 802.175 339.938 801.926 339.841C801.843 339.568 801.652 339.239 801.724 339.118ZM794.774 346.029C794.955 345.518 795.338 345.619 795.595 345.883C795.815 346.11 796.051 346.574 795.994 346.833C795.901 347.272 795.471 347.24 795.143 347.015C794.822 346.796 794.705 346.434 794.776 346.026L794.774 346.029ZM794.515 354.984C794.562 354.347 794.583 353.631 795.181 353.356C795.932 353.011 796.537 353.591 797.008 354.163C797.395 354.633 797.908 355.349 797.849 355.834C797.6 357.806 798.481 359.578 799.11 362.026C795.646 360.048 794.306 357.796 794.515 354.984ZM792.715 351.26C792.771 352.1 793.039 353.02 791.987 353.221C791.888 353.24 791.614 352.872 791.578 352.663C791.411 351.69 791.984 351.414 792.715 351.26ZM788.633 366.207C789.068 365.626 789.65 365.903 790.15 366.368C790.57 366.871 791.021 367.477 790.648 368.081C790.205 368.799 789.387 368.717 788.796 368.254C788.092 367.703 788.166 366.829 788.633 366.207ZM786.932 384.14C786.039 384.723 785.236 384.519 784.534 383.569C784.192 383.107 784.148 382.569 784.486 382.21C785.135 381.525 785.952 381.813 786.7 382.168C787.095 382.356 787.431 382.722 788.082 383.231C787.464 383.722 787.212 383.956 786.931 384.138L786.932 384.14Z" fill="#7F2E00"/>
<path d="M828.181 378.783C828.03 377.73 828.057 376.679 827.169 375.78C826.259 374.86 826.65 373.741 827.412 373.106C828.086 372.542 829.062 372.804 829.64 373.53C830.638 374.784 831.595 376.108 832.09 377.733L840.994 375.345L853.386 349.386C853.263 349.194 853.138 349.007 853.019 348.807C853.276 348.748 853.512 348.692 853.743 348.64L867.421 319.986C866.589 319.247 866.307 318.315 866.054 317.219L846.575 322.444L830.333 356.468C830.456 356.511 830.569 356.606 830.651 356.742C831.014 357.356 831.709 357.998 831.071 358.756C830.961 358.886 830.452 358.587 830.242 358.521C830.006 358.26 829.827 358.006 829.72 357.756L818.434 381.399L828.179 378.784L828.181 378.783ZM856.926 326.512C857.265 326.038 857.762 325.545 858.257 326.224C858.639 326.75 858.386 327.451 858.083 327.963C857.82 328.411 857.404 328.519 856.935 328.189C856.475 327.599 856.564 327.017 856.926 326.512ZM852.692 326.176C852.876 326.105 853.123 325.911 853.231 325.986C853.495 326.174 853.857 326.478 853.884 326.749C853.93 327.223 853.555 327.255 853.227 327.046C852.936 326.86 852.644 326.632 852.692 326.176ZM844.764 332.076C845.146 332.218 845.313 332.576 845.021 332.92C844.931 333.028 844.565 332.967 844.41 332.842C844.261 332.722 844.221 332.421 844.134 332.197C844.345 332.15 844.578 332.007 844.763 332.074L844.764 332.076Z" fill="#7F2E00"/>
<path d="M871.781 367.086C871.626 366.839 871.503 366.491 871.71 366.158C871.952 365.771 872.277 366.162 872.5 366.407C872.612 366.531 872.733 366.662 872.833 366.803L888.845 362.506L891.413 357.128C890.675 356.12 889.934 355.115 889.233 354.075C888.855 353.514 888.81 352.757 889.155 352.226C889.542 351.635 890.144 351.905 890.729 352.119C891.628 352.447 892.422 352.94 893.122 353.547L913.653 310.538C913.558 310.301 913.394 309.98 913.439 309.716C913.511 309.302 913.888 309.22 914.136 309.525L914.663 308.419C913.762 307.648 912.753 306.905 912.165 305.752C913.773 305.776 915.185 306.155 916.213 304.901C916.283 304.816 916.358 304.75 916.437 304.7L916.986 303.55L894.426 309.601L892.138 314.395C893.026 315.264 893.805 316.22 894.288 317.484C894.909 319.106 894.895 320.998 895.227 323.147C892.198 321.517 893.103 318.004 891.105 316.558L890.427 317.977C890.646 318.454 890.919 318.922 890.732 319.319C890.334 319.55 889.951 319.508 889.8 319.292L866.283 368.554L871.779 367.08L871.781 367.086ZM904.058 312.785C904.323 312.317 904.787 312.34 905.249 312.498C905.348 312.697 905.569 312.953 905.528 313.085C905.349 313.649 904.845 313.629 904.417 313.579C904.013 313.531 903.858 313.138 904.058 312.787L904.058 312.785ZM900.603 315.559C900.923 315.094 901.2 314.466 901.893 314.67C902.249 314.776 902.546 315.195 902.391 315.523C902.079 316.187 901.593 316.701 900.811 316.487C900.374 316.228 900.394 315.859 900.603 315.559ZM900.07 320.312C900.1 320.12 900.329 319.981 900.472 319.82C900.558 320.049 900.725 320.296 900.701 320.502C900.68 320.68 900.442 320.811 900.301 320.961C900.214 320.742 900.041 320.498 900.07 320.312ZM889.118 326.583C890.554 328.485 892.352 329.119 892.319 331.74C890.51 330.676 889.507 329.371 889.118 326.583ZM889.666 337.98C891.704 337.891 891.624 336.015 892.002 334.508C891.994 334.493 891.984 334.478 891.975 334.463L891.992 334.456C892.003 334.451 892.012 334.448 892.022 334.443C892.806 333.552 892.91 332.106 894.124 331.24C894.117 333.086 893.164 333.835 892.022 334.443C892.019 334.445 892.019 334.45 892.016 334.453C892.011 334.472 892.006 334.492 892.003 334.51C892.257 334.957 892.765 335.539 892.668 335.796C891.594 338.641 893.238 340.634 894.566 342.817C895.216 343.883 895.846 345.273 894.753 346.342C893.623 347.445 892.473 347.436 891.041 346.231C889.806 345.192 888.991 344.065 888.616 342.489C888.468 341.864 888.51 341.185 888.309 340.584C887.479 338.1 887.454 338.076 889.668 337.98L889.666 337.98ZM884.538 351.525C884.849 351.019 885.283 351.106 885.691 351.355C886.071 351.587 886.495 351.943 886.251 352.465C886.173 352.632 885.649 352.593 885.35 352.514C884.916 352.398 884.489 352.174 884.537 351.527L884.538 351.525ZM881.007 358.571C881.069 358.286 881.266 358.193 881.486 358.43C881.728 358.693 881.942 359.022 882.085 359.361C882.201 359.641 882.01 359.899 881.758 359.793C881.282 359.591 881.101 359.095 881.007 358.571ZM871.312 360.024C871.796 359.685 872.186 359.996 872.521 360.381C872.846 360.754 873.166 361.288 872.759 361.671C872.389 362.019 871.867 361.702 871.51 361.359C871.127 360.994 871.03 360.506 871.312 360.024Z" fill="#7F2E00"/>
<path d="M934.719 350.201C933.487 349.413 933.407 349.217 932.531 346.988C933.46 347.969 934.386 348.783 934.97 350.135L936.698 349.671L964.84 290.719L942.281 296.77L937.521 306.742C937.632 306.878 937.742 307.014 937.861 307.144C937.654 307.201 937.455 307.248 937.256 307.295L924.535 333.941C925.077 335.898 925.583 337.874 925.543 339.944C925.524 340.857 925.719 341.691 924.891 342.313C923.827 343.111 923.176 342.034 922.372 341.632C921.891 341.392 921.652 340.953 921.653 340.371C921.776 339.752 922.282 339.753 922.692 339.57C923.237 339.326 924.295 339.811 924.139 338.527C924.001 337.401 923.406 337.469 922.709 337.773L914.14 355.725L934.72 350.203L934.719 350.201ZM948.523 299.321C948.488 298.326 948.786 297.543 949.575 297.121C950.327 296.719 950.887 297.393 951.537 297.817C952.377 298.869 953.193 300.026 954.133 301.039C955.249 302.24 955.656 303.415 954.703 304.801C953.622 306.369 951.918 305.281 951.3 304.65C949.97 303.289 948.601 301.603 948.522 299.319L948.523 299.321ZM950.757 314.458C948.657 314.333 948.008 313.742 945.577 309.692C947.65 311.601 949.093 312.927 950.757 314.458ZM936.765 331.345C936.94 331.485 937.188 331.59 937.266 331.775C937.331 331.927 937.197 332.176 937.152 332.383C936.993 332.241 936.803 332.126 936.683 331.951C936.505 331.69 936.554 331.468 936.765 331.345ZM936.896 334.886C937.197 334.24 937.644 334.647 937.992 334.909C938.451 335.255 939.069 335.691 938.809 336.38C938.617 336.888 938.032 336.701 937.598 336.481C936.986 336.173 936.749 335.646 936.896 334.886Z" fill="#7F2E00"/>
<path d="M990.132 283.932L986.537 291.462C986.799 292.086 987.034 292.739 987.241 293.413C987.44 294.052 987.53 294.696 988.025 295.057C990.359 296.755 990.427 299.855 991.816 302.136C992.193 302.756 991.535 302.953 991.187 303.214C991.187 303.214 991.188 303.216 991.188 303.218C991.189 303.22 991.19 303.222 991.193 303.226C992.07 303.656 992.952 304.15 993.512 305.04C994.655 306.855 995.99 308.312 997.718 309.24L1012.69 277.879L990.13 283.932L990.132 283.932ZM992.664 295.429C992.534 295.544 992.22 295.567 992.074 295.467C991.799 295.279 991.472 294.948 991.904 294.637C992.034 294.544 992.331 294.727 992.552 294.782C992.781 294.978 992.861 295.254 992.664 295.429ZM997.308 288.734C998.476 291.936 999.643 295.139 1000.86 298.472C999.007 297.047 997.324 293.013 997.308 288.734Z" fill="#7F2E00"/>
<path d="M991.181 303.221C991.181 303.221 991.187 303.219 991.188 303.218C990.782 301.915 989.709 301.05 989.583 299.437C989.458 297.82 988.66 296.16 986.864 295.612C985.994 295.346 985.578 294.714 985.376 293.897L961.991 342.886L979.113 338.292C978.655 337.307 978.86 336.487 979.602 335.801C979.861 335.953 980.01 335.984 980.054 336.074C980.372 336.737 980.485 337.378 980.32 337.968L984.549 336.833L997.236 310.257C994.904 308.261 993.07 305.723 991.196 303.227C991.191 303.224 991.188 303.223 991.183 303.22L991.181 303.221Z" fill="#7F2E00"/>
<path d="M1033.86 282.909C1035.12 284.935 1036.49 286.372 1038.76 287.071C1040.89 287.729 1041.24 289.257 1040.42 291.256C1039.74 292.921 1039.22 293.003 1037.87 291.807C1037.17 291.185 1036.91 290.283 1036.4 289.546C1035.91 288.841 1035.23 288.589 1034.52 288.68C1033.61 288.793 1033.68 289.631 1033.6 290.419C1033.48 291.738 1034.14 293.667 1032.61 294.098C1030.81 294.6 1030.01 292.62 1029.1 291.258C1028.95 291.04 1028.82 290.813 1028.68 290.59L1009.84 330.05L1029.85 324.682C1029.28 323.999 1028.67 323.366 1027.95 322.867C1027.34 322.455 1026.64 321.703 1026.11 321.788C1023.86 322.144 1023.73 321.11 1024.42 319.216C1024.71 318.414 1024.54 317.513 1023.67 317.39C1022.05 317.158 1021.87 315.521 1020.91 314.672C1021.08 314.468 1021.24 314.264 1021.4 314.06C1022.9 315.09 1024.46 316.031 1025.89 317.175C1027.31 318.309 1028.78 319.047 1030.46 318.915C1032.08 318.786 1033.2 319.303 1033.78 321.11L1039.64 308.825C1039.43 308.48 1039.22 308.141 1038.92 307.95C1039.3 307.978 1039.62 308.091 1039.91 308.261L1060.54 265.047L1037.98 271.098L1032.84 281.863C1033.25 282.114 1033.58 282.471 1033.85 282.912L1033.86 282.909ZM1022.33 321.123C1022.35 321.438 1022.05 321.564 1021.87 321.32C1021.65 321.034 1021.55 320.64 1021.43 320.354C1021.56 319.979 1021.81 319.852 1021.98 320.091C1022.18 320.371 1022.31 320.773 1022.33 321.123ZM1025.84 305.948C1025.79 306.072 1025.46 306.175 1025.32 306.105C1025.02 305.942 1024.79 305.643 1024.91 305.202C1025.05 305.164 1025.26 305.02 1025.39 305.09C1025.69 305.252 1025.98 305.535 1025.84 305.948ZM1031.43 306.053C1031.43 306.365 1031.24 306.503 1031.02 306.317C1030.89 306.212 1030.87 305.926 1030.81 305.722C1030.96 305.5 1031.14 305.493 1031.32 305.727C1031.39 305.81 1031.44 305.946 1031.43 306.053ZM1036.62 311.778C1036.63 311.788 1036.65 311.797 1036.66 311.806L1036.55 311.836C1036.55 311.836 1036.66 311.806 1036.65 311.809C1036.62 311.862 1036.59 311.917 1036.56 311.972C1036.6 312.666 1036.63 313.407 1036.71 314.913C1036.03 313.351 1036.2 312.625 1036.56 311.972C1036.56 311.926 1036.55 311.88 1036.55 311.836C1036.58 311.819 1036.6 311.798 1036.62 311.781C1036.25 311.482 1035.9 311.064 1035.49 310.935C1032.94 310.128 1033.02 307.849 1032.89 305.698C1032.86 305.197 1033.02 304.676 1033.63 304.749C1034.13 304.81 1034.68 305.23 1034.6 305.675C1034.18 307.998 1035.5 309.125 1036.97 310.337C1037.53 310.802 1037.1 311.41 1036.62 311.781L1036.62 311.778ZM1028.95 295.468C1031.77 295.758 1033.65 297.607 1035.56 299.727C1032.71 298.835 1030.51 297.415 1028.95 295.468Z" fill="#7F2E00"/>
<path d="M1072 293.801C1072.03 293.747 1072.05 293.697 1072.07 293.641C1072.09 293.657 1072.11 293.671 1072.13 293.688C1073.03 290.178 1074.48 287.334 1077.94 286.195C1079.44 285.699 1081.56 284.983 1080.52 282.059C1081.86 281.756 1082.72 283.008 1083.84 283.109C1083.24 287.673 1080.98 290.171 1077.24 291.26C1076.21 291.558 1075.4 292.637 1074.53 293.416C1073.78 294.082 1073.05 294.503 1072.13 293.687C1072.12 293.719 1072.11 293.749 1072.1 293.78C1072.1 293.78 1072.1 293.784 1072.11 293.786C1072.07 293.788 1072.04 293.797 1072.01 293.801C1070.67 296.947 1069.49 297.979 1067.04 297.627L1057.69 317.208L1064.44 315.398C1063.61 314.765 1062.86 313.919 1062.61 313.186C1062.46 312.765 1062.49 312.41 1062.72 312.135C1063.3 311.454 1064.07 311.041 1064.88 311.487C1066.01 312.112 1067.05 312.949 1068.13 313.702C1068.15 313.668 1068.17 313.631 1068.19 313.598C1068.23 313.623 1068.26 313.64 1068.3 313.663C1069.88 312.034 1068.47 309.449 1069.56 307.297C1070.37 308.979 1071.7 307.65 1072.6 308.325C1073.53 309.028 1074.11 310.619 1075.28 308.974C1075.77 310.536 1077.07 310.596 1078.14 311.083C1078.16 311.049 1078.19 311.018 1078.21 310.983L1078.22 311.117C1078.22 311.117 1078.21 310.983 1078.21 310.99C1078.25 311.03 1078.28 311.074 1078.32 311.115C1079 311.11 1079.68 310.987 1080.37 310.919L1089.96 290.828C1089.67 289.91 1089.68 288.908 1090.07 288.352C1090.46 287.912 1090.83 287.928 1091.22 288.191L1108.4 252.201L1085.84 258.252L1067.22 297.249C1069.05 296.092 1069.94 294.036 1072.01 293.796L1072 293.801ZM1099.33 255.894C1099.6 254.486 1100.6 254.097 1101.61 255.121C1102.66 256.179 1103.42 257.569 1104.95 258.53C1103.55 258.681 1102.55 258.831 1101.53 258.889C1099.87 258.982 1098.99 257.748 1099.33 255.896L1099.33 255.894ZM1088.43 269.064C1089.13 268.262 1089.78 267.641 1090.11 266.436C1090.51 264.932 1091.73 264.908 1092.79 266.131C1093.74 267.218 1094.11 268.631 1094.59 269.984C1095.31 272.038 1094.62 274.283 1095.96 276.366C1096.55 277.279 1095.41 278.588 1094.6 279.871C1093.65 277.727 1093.5 275.3 1091.16 274.934C1090.59 275.194 1090.79 275.765 1090.82 276.26C1090.9 277.656 1090.29 277.822 1089.33 277.192C1087.03 275.68 1086.49 271.287 1088.43 269.062L1088.43 269.064ZM1086.8 289.314C1086.18 290.121 1085.41 290.598 1084.42 289.85C1083.99 289.532 1083.79 289.064 1084.02 288.431C1084.74 287.595 1085.64 287.955 1086.51 288.36C1086.85 288.522 1087.03 289.002 1086.8 289.311L1086.8 289.314Z" fill="#7F2E00"/>
<path d="M1110.82 293.313L1105.54 304.372L1128.1 298.321L1139.94 273.518C1139.44 272.745 1139.01 271.953 1138.69 271.072C1138.4 270.286 1138.61 269.731 1139.5 270.081C1140.13 270.329 1140.66 270.473 1140.64 269.457C1140.62 268.853 1140.24 268.385 1139.78 268.35C1136.19 268.07 1135.79 264.69 1134.74 261.965C1134.55 261.489 1134.46 260.9 1135.02 260.644C1135.47 260.435 1135.97 260.579 1136.31 260.975C1136.79 261.549 1137.09 262.379 1137.63 262.836C1139.92 264.769 1141.75 264.688 1142.67 261.482C1142.83 260.892 1142.66 260.139 1142.87 259.585C1143.44 258.067 1144.21 256.571 1142.75 255.038C1141.53 253.753 1139.93 254.378 1138.53 254.005C1137.02 253.605 1137.25 255.653 1137.06 256.738C1135.89 257.013 1135.85 255.955 1135.47 255.391C1134.18 253.519 1132.5 252.442 1130.73 251.626L1111.8 291.277C1111.77 292.261 1111.51 292.987 1110.83 293.317L1110.82 293.313ZM1128.75 282.285C1128.1 280.351 1127.64 278.953 1127.13 277.435C1129.99 278.54 1130.27 279.238 1128.75 282.285ZM1131.89 282.444C1131.89 282.444 1131.89 282.433 1131.89 282.425L1131.89 282.429C1131.89 282.429 1131.9 282.437 1131.9 282.441C1132.84 283.839 1134.05 282.613 1135.08 283.093C1133.88 284.444 1132.82 284.226 1131.9 282.441C1131.9 282.441 1131.89 282.436 1131.89 282.434C1131.89 282.438 1131.89 282.441 1131.89 282.444C1130.95 285.82 1128.78 287.639 1125.19 288.906C1127.32 285.802 1130.16 284.822 1131.89 282.444ZM1117.3 280.614C1117.4 280.552 1117.67 280.808 1117.86 280.918C1118 281.269 1118.19 281.658 1117.83 281.902C1117.74 281.962 1117.41 281.743 1117.29 281.57C1117.07 281.262 1116.94 280.852 1117.3 280.616L1117.3 280.614ZM1119.59 294.833C1119.59 294.833 1119.57 294.708 1119.57 294.699C1119.61 294.682 1119.64 294.669 1119.67 294.653C1120.53 292.756 1122.14 291.832 1123.96 290.607C1122.89 292.98 1122.58 293.267 1119.67 294.653C1119.65 294.699 1119.62 294.744 1119.61 294.79C1120.06 295.943 1120.74 297.099 1119.84 298.362C1118.1 297.514 1117.55 295.649 1116.27 294.369C1117.71 292.94 1118.59 294.453 1119.59 294.833L1119.59 294.833Z" fill="#7F2E00"/>
<path d="M1145.35 246.934C1144.29 250.309 1146.31 253.093 1147.32 256.053C1147.45 256.404 1147.61 256.737 1147.8 257.067L1156.24 239.369L1147.64 241.678C1147.54 241.835 1147.44 241.99 1147.34 242.141C1146.4 243.595 1145.88 245.262 1145.35 246.936L1145.35 246.934Z" fill="#7F2E00"/>
<path d="M1173.99 286.008C1173.53 285.642 1173.08 285.288 1172.59 285.022C1171.42 284.385 1171.57 282.969 1172.02 281.925C1172.46 280.888 1173.3 280.58 1174.32 281.359C1174.51 281.507 1174.73 281.618 1174.94 281.741C1175.74 282.212 1176.86 281.545 1177.58 282.071L1185.35 265.808C1185.03 265.492 1184.88 265.047 1185.13 264.265C1186.18 260.904 1184.46 258.126 1182.94 255.375C1180.57 251.109 1178.25 246.866 1179.81 241.581C1179.02 241.189 1178.22 241.27 1177.43 241.199L1153.4 291.535L1173.99 286.008ZM1169.12 281.84C1168.33 282.504 1167.58 281.727 1167.03 281.062C1166.56 280.5 1166.16 279.797 1165.9 279.09C1165.45 277.845 1165.31 276.489 1164.57 275.238C1165.84 276.95 1167.63 277.852 1168.75 279.528C1169.2 280.191 1170.04 281.069 1169.12 281.841L1169.12 281.84Z" fill="#7F2E00"/>
<path d="M1185.06 246.719C1185.5 247.857 1184.67 248.51 1183.93 249.189C1182.21 250.742 1182.03 251.485 1183.68 253.245C1186.22 255.958 1187.22 258.869 1187.16 262L1196.3 242.86C1194.37 241.887 1194.19 240.991 1194.3 238.28C1195.54 239.044 1196.24 240.158 1196.98 241.447L1204.1 226.529L1181.54 232.58L1179.3 237.28C1183.09 238.898 1183.68 243.156 1185.06 246.718L1185.06 246.719ZM1193.57 245.837C1193.75 245.637 1193.95 245.69 1194.11 245.955C1194.26 246.223 1194.22 246.481 1193.97 246.508C1193.83 246.522 1193.64 246.302 1193.5 246.154C1193.46 246.115 1193.51 245.907 1193.57 245.839L1193.57 245.837Z" fill="#7F2E00"/>
<path d="M1205.24 271.61C1205.24 271.61 1205.24 271.619 1205.23 271.625C1205 272.978 1204.52 273.935 1203.86 274.49L1201.94 278.511L1224.5 272.458L1224.73 271.98C1224.55 271.951 1224.35 271.914 1224.13 271.865C1223.46 271.716 1223.1 272.005 1222.58 272.153C1220.88 272.638 1217.7 270.898 1216.82 269.159C1216.29 268.092 1217.11 267.007 1218.4 267.048C1219.68 267.089 1220.76 268.316 1222.22 268.202C1222.73 266.672 1221.16 265.543 1221.83 264.545C1223.86 261.485 1222.19 256.983 1224.4 253.896C1225.49 254.993 1224.73 255.76 1224.61 256.576C1224.29 258.808 1223.42 261.043 1225.09 263.266C1225.29 263.525 1225.43 264.11 1225.31 264.334C1224.31 266.226 1225.19 267.985 1225.76 269.819L1245.19 229.108C1244.72 227.912 1244.66 226.582 1245.04 225.122C1245.8 222.195 1245.18 220.362 1242.75 218.502C1242.05 217.965 1241.34 217.462 1241.01 216.63L1230.08 219.561L1205.24 271.614L1205.24 271.61ZM1215.36 263.183C1214.72 265.316 1213.93 267.374 1213.94 269.749C1213.95 270.476 1213.03 270.848 1212.7 270.246C1211.85 268.688 1210.09 268.481 1209.15 266.949C1209.51 266.714 1209.78 266.363 1210.04 266.389C1211.6 266.545 1212.54 266.042 1212.19 264.059C1211.97 262.809 1212.55 262.142 1213.37 261.616C1213.85 261.309 1214.35 260.892 1214.94 261.405C1215.46 261.868 1215.54 262.595 1215.36 263.181L1215.36 263.183ZM1222.12 239.013C1223.05 239.989 1223.98 240.957 1224.89 241.949C1225.15 242.238 1225.27 242.637 1225.06 242.994C1224.8 243.462 1224.35 243.591 1223.9 243.371C1222.27 242.582 1221.97 240.971 1222.12 239.013ZM1225.99 248.994C1227.24 251.719 1230.63 247.859 1231.52 251.523C1228.47 253.493 1226.82 252.804 1225.99 248.994ZM1233.17 248.014C1231.25 246.38 1230.83 244.638 1230.09 242.354C1232.57 243.606 1232.71 245.513 1233.17 248.014Z" fill="#7F2E00"/>
<path d="M1281.76 224.194C1285.88 224.643 1286.61 225.46 1286.44 230.099L1300.49 200.669L1298.4 201.231C1298.46 201.366 1298.53 201.5 1298.58 201.64C1298.89 202.399 1298.77 203.17 1298.67 203.924C1298.61 204.452 1298.43 204.969 1297.86 204.872C1297.57 204.823 1297.13 204.495 1297.07 204.228C1296.86 203.316 1296.5 202.551 1296.05 201.863L1279.53 206.296C1279.65 206.533 1279.75 206.779 1279.84 207.046C1280.48 209.013 1280.95 211.033 1282.4 212.672C1283.11 213.488 1283.49 214.977 1282.16 215.616C1280.93 216.212 1280.08 215.216 1279.78 213.988C1279.25 211.853 1278.28 209.974 1277.28 208.102L1273.05 216.958C1274.74 219.415 1277.03 221.184 1279.16 223.115C1279.9 223.781 1280.77 224.088 1281.76 224.196L1281.76 224.194Z" fill="#7F2E00"/>
<path d="M1262.83 239.754C1262.95 239.021 1263.29 238.575 1263.99 238.886C1264.51 239.117 1264.5 239.678 1264.45 240.219C1264.21 242.6 1265.05 244.411 1266.99 245.652C1266.84 247.032 1265.21 246.648 1265.34 248.039C1265.4 248.626 1265.62 249.472 1264.68 249.364C1264.16 249.305 1263.94 248.796 1263.81 248.257C1263.27 245.996 1262.6 243.96 1260.59 243.059L1249.8 265.671L1258.18 263.424C1258.11 263.39 1258.04 263.357 1257.97 263.317C1257.56 263.073 1257.52 262.385 1257.81 261.934C1258.36 261.092 1259.1 261.036 1259.89 261.557C1260.27 261.995 1260.38 262.465 1260.18 262.887L1272.35 259.621L1286.33 230.341C1286.07 229.471 1285.84 228.59 1285.52 227.749C1284.4 224.893 1282.66 224.26 1280.59 225.905C1277.8 228.112 1277.78 228.144 1274.86 225.52C1273.48 224.274 1272.01 223.148 1270.8 221.679L1261.5 241.148C1262.12 241.36 1262.61 241.057 1262.83 239.754ZM1261.41 257.799C1261.14 258.283 1260.69 258.287 1260.25 258C1259.78 257.684 1259.69 257.223 1259.94 256.709C1260.25 256.285 1260.64 256.149 1261.09 256.482C1261.53 256.811 1261.67 257.315 1261.41 257.799ZM1276.79 246.595C1277.01 246.302 1277.28 246.31 1277.35 246.618C1277.43 246.972 1277.41 247.393 1277.3 247.724C1277.21 248.02 1276.88 247.985 1276.82 247.685C1276.74 247.317 1276.79 246.92 1276.79 246.594L1276.79 246.595Z" fill="#7F2E00"/>
<path d="M1320.14 210.285C1320.73 210.981 1321.36 211.719 1320.68 212.611C1320.09 213.387 1319.3 213.203 1318.58 212.696C1318.16 212.02 1317.75 211.329 1317.78 210.66L1314.14 218.284C1314.18 218.329 1314.22 218.376 1314.26 218.421C1314.62 218.825 1314.66 219.404 1314.4 219.825C1314.15 220.247 1313.71 220.241 1313.3 220.031L1306.69 233.89C1307.13 235.33 1307.21 236.951 1306.9 238.651C1306.22 238.247 1305.55 237.847 1305.05 237.328L1300.35 247.159C1300.31 247.435 1300.21 247.736 1300.05 248.082C1299.35 249.547 1298.79 251.108 1298.25 252.672L1320.2 246.782L1322.58 241.797C1322.55 241.745 1322.5 241.695 1322.46 241.642C1321.98 240.943 1322.12 240.126 1321.91 239.398C1321.26 237.162 1321.36 234.69 1319.79 232.719C1319.2 231.98 1319.1 230.873 1319.79 230.222C1320.8 229.263 1320.89 227.718 1321.62 226.686C1322.58 225.317 1322.74 224.056 1322.17 222.402C1321.81 221.376 1321.76 220.17 1322.86 219.769C1324.09 219.317 1325.4 219.349 1326.29 220.847C1326.93 221.907 1327.38 223.215 1326.34 224.019C1322.83 226.741 1322.17 230.344 1323.78 234.957C1324.14 235.987 1323.79 237.271 1323.82 238.441C1323.83 238.681 1323.85 238.892 1323.87 239.101L1336.42 212.804C1336.29 212.685 1336.16 212.539 1336.04 212.339C1335.23 211.067 1337.21 209.701 1337.84 208.308C1338.09 207.752 1338.57 207.442 1339.09 207.204L1348.34 187.828L1325.78 193.88L1318.25 209.67C1318.86 209.099 1319.56 209.603 1320.14 210.284L1320.14 210.285ZM1322.59 212.405C1323.4 211.777 1324.34 212.13 1325.16 212.829C1325.44 213.071 1325.73 213.304 1326.35 213.817C1326.62 214.18 1327.28 214.823 1327.64 215.617C1328.27 217.002 1329.05 218.031 1330.41 218.452C1331.18 218.689 1331.65 219.336 1331.45 220.212C1331.17 221.447 1330.21 221.033 1329.48 220.85C1328.22 220.541 1327.57 219.461 1327.02 218.208C1326.49 217.019 1325.8 215.796 1324.37 216.098C1323.56 216.268 1322.77 216.654 1322.53 215.251C1322.37 214.285 1321.64 213.141 1322.59 212.403L1322.59 212.405Z" fill="#7F2E00"/>
<path d="M1385.62 180.08C1385.02 180.757 1384.32 180.498 1383.78 179.885C1383.34 179.387 1382.87 179.015 1382.36 178.707L1373.64 181.046L1367.46 193.992C1367.79 194.548 1368.16 195.087 1368.56 195.603C1368.95 196.11 1369.38 196.615 1369.4 197.314C1369.42 197.852 1369.27 198.392 1368.82 198.584C1368.56 198.697 1368.09 198.632 1367.86 198.432C1367.27 197.907 1366.7 197.339 1366.14 196.763L1362.89 203.562C1364.12 203.497 1365.31 203.22 1366.36 202.162C1367.04 201.472 1368.22 201.746 1368.85 202.763C1370.43 205.286 1372.99 206.309 1375.12 207.791C1376.53 208.773 1376.53 209.448 1376.53 210.732C1376.53 211.937 1376.13 212.961 1375.84 214.061C1375.52 215.273 1375.59 216.337 1376 217.295L1385.94 196.49C1385.91 196.21 1385.9 195.927 1385.91 195.642C1385.93 195.146 1386.17 194.677 1386.28 194.3C1386.61 193.964 1386.91 193.841 1387.19 193.863L1388.61 190.889C1388.45 190.822 1388.28 190.706 1388.12 190.527C1387.78 190.142 1387.5 189.604 1387.83 189.169C1388.25 188.623 1388.83 188.704 1389.37 189.163C1389.39 189.178 1389.4 189.195 1389.41 189.212L1396.2 174.993L1386.88 177.493C1386.73 178.443 1386.3 179.313 1385.62 180.08ZM1374.37 187.082C1374.09 187.292 1373.77 187.16 1373.52 186.827C1373.38 186.387 1373.08 185.851 1373.62 185.583C1373.83 185.479 1374.29 185.62 1374.47 185.829C1374.82 186.242 1374.81 186.763 1374.37 187.082L1374.37 187.082Z" fill="#7F2E00"/>
<path d="M1369.71 214.249C1369.07 213.119 1368.56 211.904 1367.92 210.77C1367.4 209.833 1366.92 209.209 1365.69 209.794C1364.4 210.411 1362.91 209.525 1361.75 208.636C1361.44 208.396 1361.13 208.137 1360.83 207.878L1345.5 239.996L1357.1 236.883C1357.05 236.83 1356.99 236.777 1356.94 236.711C1356.62 236.289 1356.89 235.733 1357.13 235.297C1357.65 234.722 1358.14 234.988 1358.58 235.522C1358.79 235.774 1358.97 236.087 1358.99 236.378L1368.06 233.945L1374.39 220.673C1374.3 220.609 1374.2 220.544 1374.1 220.482C1371.98 219.179 1370.98 216.502 1369.71 214.249L1369.71 214.249ZM1351.58 237.033C1350.54 237.03 1350.17 236.152 1349.61 235.303C1350.85 234.937 1351.53 235.381 1351.88 236.507C1351.92 236.645 1351.7 237.033 1351.58 237.031L1351.58 237.033Z" fill="#7F2E00"/>
<path d="M1421.14 172.179C1420.06 172.251 1420.19 171.524 1420.23 170.855L1414.31 183.252C1414.93 184.157 1415.54 185.075 1416.16 185.985C1415.94 186.207 1415.72 186.432 1415.5 186.654C1414.96 185.851 1414.38 185.094 1413.78 184.368L1401.56 209.96C1401.68 209.911 1401.8 209.866 1401.93 209.816C1402.36 209.653 1402.77 209.432 1403.21 209.301C1404.25 208.985 1405.15 209.917 1404.76 210.665C1402.69 214.712 1405.26 218.144 1406.39 221.716C1406.6 222.387 1406.7 222.999 1406.7 223.574L1411.66 222.245C1410.73 220.612 1410.68 219.034 1411.16 217.373C1411.53 216.075 1412.53 215.931 1413.13 217.15C1413.85 218.622 1414.75 219.92 1415.72 221.153L1415.91 221.103L1432.27 186.833C1431.42 185.199 1430.84 183.423 1430.49 181.543C1430.3 180.468 1429.55 179.784 1429.44 178.401C1431.5 179.91 1432.21 182.317 1433.48 184.112C1433.49 184.138 1433.51 184.163 1433.53 184.189L1437.3 176.289C1436.93 175.404 1436.82 174.393 1437.1 173.394C1437.65 171.476 1437.35 169.987 1436.57 168.223C1435.85 166.601 1435.78 165.228 1436.26 164.24L1431.33 165.564C1431.39 166.886 1431.3 168.239 1431.63 169.498C1431.76 170.003 1431.25 170.41 1430.75 170.419C1430.43 170.426 1429.96 170.348 1429.8 170.109C1429.46 169.592 1429.19 168.969 1429.03 168.353C1428.84 167.664 1428.61 167.003 1428.34 166.366L1422.65 167.893C1422.77 168.627 1422.66 169.462 1422.5 170.345C1422.33 171.349 1422.03 172.113 1421.15 172.172L1421.14 172.179ZM1411.96 212.296C1411.69 212.371 1411.27 212.213 1411.02 211.999C1410.73 211.744 1410.7 211.323 1410.96 210.979C1411.44 210.665 1411.82 210.907 1412.12 211.378C1412.34 211.741 1412.34 212.195 1411.96 212.296ZM1426.15 183.915C1425.61 184.74 1424.93 183.961 1424.41 183.475C1423.88 182.968 1423.21 182.258 1423.67 181.538C1424.25 180.636 1424.84 181.531 1425.35 182C1425.77 182.591 1426.66 183.135 1426.15 183.915Z" fill="#7F2E00"/>
<path d="M1460.98 177.449C1461 177.466 1461.5 178.346 1462.2 178.74C1465.94 180.857 1465.17 184.609 1465.4 187.968C1465.45 188.698 1465.15 189.544 1464.38 189.735C1463.56 189.933 1463.16 189.209 1462.72 188.55C1461.45 186.657 1459.78 185.015 1459.74 182.411C1459.73 181.678 1459.28 181.119 1458.77 180.648L1452.46 193.858C1454.05 194.806 1455.3 196.577 1456.3 198.342C1457.17 199.878 1458.18 201.051 1459.58 201.906C1461.8 203.261 1463.39 205.512 1465.28 207.335C1465.38 207.43 1465.47 207.535 1465.55 207.645L1473.55 190.898C1472.29 189.692 1471.13 188.304 1469.43 187.955C1468.63 187.791 1467.74 187.112 1468.12 186.013C1468.48 184.967 1469.17 183.796 1470.41 184.297C1472.11 184.974 1473.75 185.566 1475.52 185.276C1475.7 185.244 1475.93 185.331 1476.15 185.452L1493.61 148.86L1491.08 149.541C1491.7 150.473 1491.87 151.216 1491.55 152.216C1490.61 151.593 1490.34 150.858 1490.39 149.727L1471.06 154.913L1460.56 176.9C1460.7 177.067 1460.83 177.245 1460.99 177.45L1460.98 177.449ZM1471.42 156.73C1472.82 158.194 1473.49 160.217 1475.36 160.101C1476.13 163.851 1479.1 167.101 1478.05 171.244C1477.89 171.912 1477.63 172.737 1476.71 172.845C1475.85 170.159 1475.03 167.482 1473.41 165.104C1471.83 162.781 1470.75 160.166 1471.42 156.73ZM1473.84 177.027C1473.84 175.983 1473.01 174.282 1474.35 173.962C1475.84 173.606 1475.62 175.535 1476.04 176.469C1476.68 177.889 1477.32 179.345 1477.45 180.96C1477.51 181.74 1477.14 182.17 1476.61 182.443C1476.17 182.668 1475.71 182.565 1475.31 182.157C1473.94 180.717 1473.85 178.828 1473.84 177.027ZM1467.36 178.585C1468.2 178.379 1468.68 178.846 1468.89 179.701C1468.92 179.86 1468.67 180.086 1468.55 180.283C1468.22 179.668 1467.28 179.57 1467.36 178.587L1467.36 178.585Z" fill="#7F2E00"/>
<path d="M1450.69 197.564L1445.34 208.769C1446.38 210.299 1447.52 211.538 1449.01 212.225L1460.6 209.115C1458.88 205.846 1456.36 203.261 1453.82 201.056C1452.65 200.038 1451.7 198.765 1450.69 197.564Z" fill="#7F2E00"/>
<path d="M386.17 455.322L387.223 453.114C386.294 452.097 384.778 451.625 384.654 449.877C384.572 448.714 384.614 447.549 384.631 446.375L368.735 450.64L364.03 460.497C364.437 460.72 364.823 460.955 365.219 461.143C365.639 461.342 366.016 461.764 365.722 462.328C365.464 462.824 364.933 462.823 364.519 462.645C364.1 462.465 363.71 462.235 363.339 461.949L359.371 470.263L366.449 496.631L369.476 490.293C369.437 490.26 369.397 490.229 369.359 490.195C368.285 489.247 367.907 486.954 368.555 485.992C368.941 485.637 369.492 485.496 369.749 486.013C370.047 486.613 370.385 487.141 370.755 487.613L381.307 465.511C380.86 464.759 380.962 463.923 381.21 463.083C381.346 462.623 381.716 462.581 382.024 462.846C382.175 462.974 382.289 463.109 382.385 463.246L385.623 456.467C385.607 456.409 385.589 456.351 385.579 456.291C385.422 455.439 385.755 455.321 386.171 455.319L386.17 455.322ZM373.216 453.257C373.388 452.849 373.784 453.028 374.069 453.275C374.565 453.707 374.786 454.245 374.596 454.882C374.328 455.29 374.028 455.241 373.762 454.908C373.381 454.434 372.943 453.907 373.218 453.257L373.216 453.257ZM378.634 468.179C378.284 468.587 377.804 468.304 377.437 467.963C376.861 467.428 376.454 466.792 377.038 466.07C377.407 465.614 377.84 465.951 378.249 466.311C378.712 466.841 379.261 467.446 378.634 468.179Z" fill="#7F2E00"/>
<path d="M1521.92 175.778C1520.38 174.464 1519.44 171.632 1520.09 169.766C1520.28 169.219 1520.54 168.703 1520.75 168.133L1515.6 148.984L1513.72 152.93C1513.99 153.618 1513.73 154.195 1513.28 154.671C1513.11 154.852 1512.92 154.968 1512.73 155.012L1508.2 164.505C1508.65 165.022 1508.86 165.667 1509.03 166.306C1509.56 168.405 1510.42 170.221 1512.11 171.498C1514.23 173.101 1512.5 175.043 1512.73 176.956C1511.74 175.144 1510.54 173.779 1509.03 172.525C1507.48 171.239 1506.58 169.945 1506.26 168.57L1494.21 193.796C1494.27 193.783 1494.33 193.781 1494.39 193.765C1495.77 193.389 1496.99 194.861 1497.34 196.171C1497.59 197.136 1497.93 198.077 1498.29 199.009L1513.32 194.979L1514.84 191.785C1512.56 190.791 1510.73 188.822 1509.35 186.323C1508.78 185.284 1508.03 184.107 1509.14 183.213C1510.05 182.477 1511.11 183.054 1512.01 183.812C1512.2 183.97 1512.42 184.163 1512.51 184.388C1513.34 186.521 1514.75 187.763 1516.34 188.638L1522.34 176.07C1522.2 175.993 1522.06 175.897 1521.92 175.781L1521.92 175.778ZM1507.53 192.759C1507.47 192.832 1507.21 192.688 1507.03 192.641C1507.07 192.435 1507.05 192.161 1507.16 192.047C1507.24 191.968 1507.5 192.113 1507.67 192.158C1507.63 192.365 1507.64 192.626 1507.53 192.759ZM1506.38 186.723C1505.59 187.444 1504.69 187.282 1503.83 186.621C1503.15 186.095 1502.49 185.518 1501.3 184.527C1501.44 184.659 1501.02 184.37 1500.72 183.973C1500.33 183.469 1499.97 182.836 1500.45 182.247C1500.8 181.8 1501.3 182.027 1501.66 182.391C1502.51 183.237 1503.35 183.666 1504.5 183.369C1505.53 183.103 1506.22 183.967 1506.67 184.985C1506.97 185.658 1506.84 186.308 1506.38 186.723ZM1517.79 164.875C1517.72 164.701 1517.77 164.337 1517.89 164.229C1517.99 164.141 1518.28 164.3 1518.47 164.352C1518.5 164.583 1518.63 164.899 1518.54 165.024C1518.3 165.38 1517.97 165.271 1517.79 164.875Z" fill="#7F2E00"/>
</svg>
